<svg width="189" height="22" viewBox="0 0 189 22" fill="none" xmlns="http://www.w3.org/2000/svg">
<g clip-path="url(#clip0_88_50)">
<path d="M108.493 4.53507V0H113.687V21.2412H108.493V4.53507ZM85.6237 0H105.663V4.57383H96.2443V21.2799H91.089V4.57383H85.6237V0ZM189 0V4.57383H179.581V21.2799H174.426V4.57383H168.96V0H189ZM0 0H22.4815V4.57383H5.19401V9.1089H19.9233V13.6827H5.19401V21.2412H0V0ZM145.161 0H166.092V4.57383H150.355V8.37244H163.263V12.9463H150.355V16.7449H166.363V21.3187H145.161V0ZM141.169 6.008V21.2412H135.975V6.008C135.975 5.19401 135.354 4.57383 134.54 4.57383H122.912V21.2799H117.718V0H135.161C138.455 0 141.169 2.71329 141.169 6.008ZM77.6388 0H59.9249V21.2412H65.1189V13.6827H76.7473C77.3675 13.7215 77.8714 14.2254 77.8714 14.8456V21.2799H83.0654V14.768C83.0654 13.644 82.4452 12.6749 81.515 12.1323C82.639 11.0857 83.3367 9.57404 83.3367 7.94606V5.69791C83.3755 2.55824 80.8173 0 77.6388 0ZM78.1815 7.94606C78.1815 8.56624 77.6776 9.1089 77.0187 9.1089H65.1189V4.57383H77.0187C77.6388 4.57383 78.1815 5.07773 78.1815 5.73667V7.94606Z" fill="#787878"/>
<path d="M55.8938 7.9073V13.4114H47.2888V7.9073H55.8938ZM36.3969 21.2412H44.9631V15.7371H36.3969V21.2412ZM55.8938 4.61259C55.8938 2.05435 53.8394 0 51.2812 0H47.3275V5.5041H55.8938V4.61259ZM36.3969 0V5.5041H44.9631V0H36.3969ZM25.4662 7.9073V13.4114H34.0324V7.9073H25.4662ZM47.2888 21.2412H51.2424C53.8007 21.2412 55.855 19.1868 55.855 16.6286V15.7371H47.2888V21.2412ZM25.4662 16.6286C25.4662 19.1868 27.5205 21.2412 30.0788 21.2412H34.0324V15.7371H25.4662V16.6286ZM25.4662 4.61259V5.5041H34.0324V0H30.0788C27.5205 0 25.4662 2.05435 25.4662 4.61259Z" fill="#787878"/>
</g>
<defs>
<clipPath id="clip0_88_50">
<rect width="189" height="21.3187" fill="white"/>
</clipPath>
</defs>
</svg>
