<svg width="48" height="48" viewBox="0 0 48 48" fill="none" xmlns="http://www.w3.org/2000/svg">
<circle cx="24" cy="24" r="24" fill="url(#paint0_linear_89_509)"/>
<circle cx="24" cy="24" r="23.5" stroke="white" stroke-opacity="0.5"/>
<g clip-path="url(#clip0_89_509)">
<path d="M31.5 12.75H16.5C15.5058 12.751 14.5525 13.1465 13.8495 13.8495C13.1465 14.5525 12.751 15.5058 12.75 16.5V31.5C12.751 32.4942 13.1465 33.4475 13.8495 34.1505C14.5525 34.8535 15.5058 35.249 16.5 35.25H31.5C32.4942 35.249 33.4475 34.8535 34.1505 34.1505C34.8535 33.4475 35.249 32.4942 35.25 31.5V16.5C35.249 15.5058 34.8535 14.5525 34.1505 13.8495C33.4475 13.1465 32.4942 12.751 31.5 12.75ZM33.75 31.5C33.7493 32.0965 33.5121 32.6684 33.0902 33.0902C32.6684 33.5121 32.0965 33.7493 31.5 33.75H16.5C15.9035 33.7493 15.3316 33.5121 14.9098 33.0902C14.4879 32.6684 14.2507 32.0965 14.25 31.5V30.3105L19.5 25.0605L21.9698 27.5303C22.1104 27.6709 22.3011 27.7498 22.5 27.7498C22.6989 27.7498 22.8896 27.6709 23.0302 27.5303L27.75 22.8105V24C27.75 24.1989 27.829 24.3897 27.9697 24.5303C28.1103 24.671 28.3011 24.75 28.5 24.75C28.6989 24.75 28.8897 24.671 29.0303 24.5303C29.171 24.3897 29.25 24.1989 29.25 24V21C29.2492 20.8013 29.17 20.611 29.0295 20.4705C28.889 20.33 28.6987 20.2508 28.5 20.25H25.5C25.3011 20.25 25.1103 20.329 24.9697 20.4697C24.829 20.6103 24.75 20.8011 24.75 21C24.75 21.1989 24.829 21.3897 24.9697 21.5303C25.1103 21.671 25.3011 21.75 25.5 21.75H26.6895L22.5 25.9395L20.0302 23.4698C19.8896 23.3291 19.6989 23.2502 19.5 23.2502C19.3011 23.2502 19.1104 23.3291 18.9698 23.4698L14.25 28.1895V16.5C14.2507 15.9035 14.4879 15.3316 14.9098 14.9098C15.3316 14.4879 15.9035 14.2507 16.5 14.25H31.5C32.0965 14.2507 32.6684 14.4879 33.0902 14.9098C33.5121 15.3316 33.7493 15.9035 33.75 16.5V31.5Z" fill="white"/>
</g>
<defs>
<linearGradient id="paint0_linear_89_509" x1="20.5" y1="51.5" x2="0.298077" y2="23.5436" gradientUnits="userSpaceOnUse">
<stop stop-color="#20B4C5"/>
<stop offset="1" stop-color="#0B89CB"/>
</linearGradient>
<clipPath id="clip0_89_509">
<rect width="24" height="24" fill="white" transform="translate(12 12)"/>
</clipPath>
</defs>
</svg>
