<svg width="48" height="48" viewBox="0 0 48 48" fill="none" xmlns="http://www.w3.org/2000/svg">
<circle cx="24" cy="24" r="24" fill="url(#paint0_linear_89_962)"/>
<circle cx="24" cy="24" r="23.5" stroke="white" stroke-opacity="0.5"/>
<path d="M34.3358 23.159C34.2459 23.0889 34.1413 23.0402 34.0298 23.0165C33.9183 22.9929 33.8028 22.9949 33.6923 23.0226C33.1381 23.1639 32.5593 23.179 31.9986 23.0669C31.9986 23.0446 31.9992 23.0224 31.9992 23.0002C31.9992 20.6244 31.0598 18.345 29.3859 16.6591C27.712 14.9732 25.4393 14.0176 23.0636 14.0007C23.0206 13.9998 22.9777 13.9998 22.9348 14.0007C20.5592 14.0178 18.2868 14.9736 16.613 16.6594C14.9393 18.3453 14 20.6246 14 23.0002C14 25.3758 14.9393 27.6551 16.613 29.3409C18.2868 31.0268 20.5592 31.9825 22.9348 31.9997C22.9562 32.0001 22.9777 32.0002 22.9992 32.0002C23.0206 32.0002 23.0421 32.0002 23.0636 31.9997C23.9421 31.9944 24.8152 31.8602 25.6547 31.6012C26.4964 32.4544 27.6313 33.1872 29.0759 33.8135C29.17 33.8543 29.2716 33.8754 29.3742 33.8754C29.4768 33.8754 29.5783 33.8543 29.6725 33.8135C32.3041 32.6727 33.91 31.1791 34.5825 29.2469C34.6101 29.1676 34.6242 29.0842 34.6242 29.0002V23.7502C34.6242 23.6362 34.5982 23.5237 34.5482 23.4213C34.4982 23.3189 34.4256 23.2292 34.3358 23.159ZM29.8242 22.0252C29.6944 21.9278 29.5365 21.8752 29.3742 21.8752C29.2119 21.8752 29.054 21.9278 28.9242 22.0252C28.5943 22.2758 28.2417 22.4949 27.8709 22.6795C27.8596 22.0342 27.8112 21.39 27.7259 20.7502H30.1525C30.3286 21.3068 30.4384 21.8822 30.4798 22.4645C30.2533 22.3303 30.0345 22.1836 29.8242 22.0252ZM25.0561 23.0226C24.9455 22.9949 24.8301 22.9929 24.7186 23.0165C24.6071 23.0401 24.5025 23.0889 24.4126 23.159C24.3228 23.2292 24.2501 23.3189 24.2001 23.4213C24.1502 23.5237 24.1242 23.6362 24.1242 23.7502V25.2502H19.7882C19.5702 23.7582 19.5695 22.2424 19.7862 20.7502H26.2123C26.3212 21.4952 26.3753 22.2472 26.3742 23.0002C26.3742 23.0413 26.3738 23.0822 26.3735 23.123C25.9318 23.166 25.4861 23.132 25.0561 23.0226ZM22.965 15.5004C22.9764 15.5001 22.9879 15.5004 22.9992 15.5004C23.0105 15.5004 23.022 15.5004 23.0333 15.5004H23.0336C23.8206 15.5204 24.6324 16.2616 25.261 17.5339C25.5282 18.0843 25.7422 18.659 25.9001 19.2502H20.0983C20.2561 18.659 20.4701 18.0843 20.7374 17.5339C21.366 16.2615 22.1779 15.5204 22.965 15.5004ZM29.4886 19.2504H27.4472C27.2555 18.4282 26.9733 17.6297 26.6057 16.8696C26.4987 16.653 26.3867 16.448 26.2696 16.2545C27.6153 16.9127 28.7356 17.9552 29.4886 19.2502V19.2504ZM19.7288 16.2543C19.6119 16.448 19.4999 16.6531 19.3926 16.8694C19.0251 17.6295 18.7429 18.428 18.5512 19.2502H16.5097C17.2627 17.9551 18.383 16.9125 19.7288 16.2543ZM15.846 20.7502H18.2727C18.0746 22.2437 18.075 23.7568 18.2737 25.2502H15.846C15.3839 23.7858 15.3839 22.2146 15.846 20.7502ZM16.5099 26.7502H18.5515C18.8281 27.8994 19.2286 28.918 19.7294 29.7463C18.3834 29.0882 17.2629 28.0455 16.5097 26.7502H16.5099ZM23.0483 30.4997H23.0336C23.0222 30.5 23.0108 30.5 22.9994 30.4997C22.988 30.4994 22.9766 30.4997 22.9652 30.4997C21.8297 30.4707 20.7087 28.9694 20.1008 26.75H24.1242V29C24.1242 29.0839 24.1383 29.1672 24.1658 29.2465C24.2952 29.618 24.4606 29.976 24.6598 30.3152C24.1308 30.4348 23.5904 30.4966 23.048 30.4997H23.0483ZM33.1242 28.8683C32.5964 30.2602 31.3667 31.3871 29.3742 32.3039C27.3816 31.3871 26.152 30.2601 25.6242 28.8683V24.6277C26.8826 24.7183 28.1392 24.3548 29.3742 23.542C30.6092 24.3549 31.8655 24.7182 33.1242 24.6277V28.8683Z" fill="white"/>
<path d="M28.9289 28.01L27.9492 27.2753L27.0492 28.4753L28.5492 29.6003C28.6936 29.7086 28.8722 29.7612 29.0523 29.7484C29.2324 29.7355 29.4018 29.6582 29.5295 29.5306L32.1545 26.9056L31.0939 25.845L28.9289 28.01Z" fill="white"/>
<defs>
<linearGradient id="paint0_linear_89_962" x1="20.5" y1="51.5" x2="0.298077" y2="23.5436" gradientUnits="userSpaceOnUse">
<stop stop-color="#20B4C5"/>
<stop offset="1" stop-color="#0B89CB"/>
</linearGradient>
</defs>
</svg>
