<svg width="48" height="48" viewBox="0 0 48 48" fill="none" xmlns="http://www.w3.org/2000/svg">
<circle cx="24" cy="24" r="24" fill="url(#paint0_linear_89_977)"/>
<circle cx="24" cy="24" r="23.5" stroke="white" stroke-opacity="0.5"/>
<path d="M33.5977 18.4786C33.594 18.4711 33.594 18.4621 33.5895 18.4546C33.5805 18.4388 33.5647 18.4298 33.5542 18.4148C33.3615 18.0998 33.0968 17.8283 32.7675 17.6378L25.1243 13.2256C24.4312 12.8258 23.5695 12.8258 22.875 13.2256L15.2318 17.6378C14.9025 17.8283 14.6385 18.0998 14.4458 18.4148C14.4353 18.4298 14.4195 18.4388 14.4105 18.4546C14.406 18.4621 14.4068 18.4703 14.4023 18.4786C14.2133 18.8116 14.1068 19.1926 14.1068 19.5871V28.4123C14.1068 29.2133 14.538 29.9596 15.2318 30.3616L22.8742 34.7746C23.2185 34.9726 23.604 35.0716 23.9895 35.0738C23.9932 35.0738 23.9963 35.0761 24 35.0761C24.0037 35.0761 24.0068 35.0738 24.0105 35.0738C24.396 35.0723 24.7815 34.9733 25.125 34.7746L32.7682 30.3616C33.462 29.9603 33.8932 29.2141 33.8932 28.4123V19.5871C33.8932 19.1926 33.7867 18.8123 33.5977 18.4786ZM32.0182 29.0618L24.75 33.2581V30.7028C24.75 30.2881 24.414 29.9528 24 29.9528C23.586 29.9528 23.25 30.2881 23.25 30.7028V33.2588L15.9825 29.0626C15.7508 28.9291 15.6075 28.6801 15.6075 28.4131V20.0116L18.9983 21.9691C19.1168 22.0373 19.2457 22.0696 19.3725 22.0696C19.632 22.0696 19.884 21.9346 20.0227 21.6946C20.2297 21.3353 20.1068 20.8771 19.7483 20.6701L16.3643 18.7163L23.6242 14.5246C23.7405 14.4578 23.8702 14.4248 24 14.4248C24.1297 14.4248 24.2595 14.4578 24.375 14.5246L31.6357 18.7163L28.2525 20.6693C27.894 20.8763 27.771 21.3353 27.978 21.6938C28.1175 21.9338 28.3687 22.0688 28.6282 22.0688C28.755 22.0688 28.884 22.0366 29.0025 21.9683L32.3932 20.0108V28.4116C32.3932 28.6793 32.2492 28.9283 32.0182 29.0618Z" fill="white"/>
<path d="M28.2728 23.1834L27.2265 22.8062C26.2725 22.4619 25.527 21.7179 25.1835 20.7632L24.807 19.7162C24.6848 19.3779 24.36 19.1499 24 19.1499C23.64 19.1499 23.3153 19.3779 23.193 19.7169L22.8165 20.7639C22.473 21.7179 21.7275 22.4627 20.7728 22.8069L19.725 23.1842C19.3875 23.3072 19.161 23.6312 19.161 23.9897C19.161 24.3482 19.3875 24.6722 19.7273 24.7959L20.7728 25.1724C21.7275 25.5167 22.4723 26.2614 22.8165 27.2162L23.193 28.2632C23.3153 28.6022 23.6393 28.8302 24 28.8302C24.3608 28.8302 24.6848 28.6022 24.807 28.2632L25.1835 27.2162C25.527 26.2622 26.2725 25.5167 27.2265 25.1724L28.275 24.7952C28.6125 24.6722 28.839 24.3482 28.839 23.9897C28.839 23.6312 28.6125 23.3072 28.2728 23.1834ZM24 26.1759C23.5268 25.2279 22.7618 24.4629 21.8138 23.9897C22.7618 23.5164 23.5268 22.7522 24 21.8034C24.4733 22.7514 25.2383 23.5164 26.1863 23.9897C25.2383 24.4629 24.4733 25.2279 24 26.1759Z" fill="white"/>
<defs>
<linearGradient id="paint0_linear_89_977" x1="20.5" y1="51.5" x2="0.298077" y2="23.5436" gradientUnits="userSpaceOnUse">
<stop stop-color="#20B4C5"/>
<stop offset="1" stop-color="#0B89CB"/>
</linearGradient>
</defs>
</svg>
