<svg width="48" height="48" viewBox="0 0 48 48" fill="none" xmlns="http://www.w3.org/2000/svg">
<circle cx="24" cy="24" r="24" fill="url(#paint0_linear_89_988)"/>
<circle cx="24" cy="24" r="23.5" stroke="white" stroke-opacity="0.5"/>
<path d="M29.4075 28.7174C29.2663 28.5762 29.0747 28.4968 28.875 28.4968C28.6753 28.4968 28.4837 28.5762 28.3425 28.7174C28.2013 28.8586 28.1219 29.0502 28.1219 29.2499C28.1219 29.4496 28.2013 29.6412 28.3425 29.7824L29.0925 30.5324C29.1622 30.6027 29.2452 30.6585 29.3366 30.6966C29.428 30.7346 29.526 30.7542 29.625 30.7542C29.724 30.7542 29.8221 30.7346 29.9134 30.6966C30.0048 30.6585 30.0878 30.6027 30.1575 30.5324L31.6575 29.0324C31.7987 28.8912 31.8781 28.6996 31.8781 28.4999C31.8781 28.3002 31.7987 28.1086 31.6575 27.9674C31.5163 27.8262 31.3247 27.7468 31.125 27.7468C30.9253 27.7468 30.7337 27.8262 30.5925 27.9674L29.625 28.9424L29.4075 28.7174Z" fill="white"/>
<path d="M34.0275 25.5525L30.2775 24.0525C30.0993 23.9815 29.9007 23.9815 29.7225 24.0525L25.9725 25.5525C25.833 25.6081 25.7133 25.7043 25.6291 25.8286C25.5448 25.953 25.4999 26.0998 25.5 26.25V29.175C25.4992 30.4282 25.9319 31.6432 26.7248 32.6137C27.5176 33.5843 28.6218 34.2507 29.85 34.5H30H30.15C31.3782 34.2507 32.4824 33.5843 33.2752 32.6137C34.0681 31.6432 34.5008 30.4282 34.5 29.175V26.25C34.5001 26.0998 34.4552 25.953 34.3709 25.8286C34.2867 25.7043 34.1671 25.6081 34.0275 25.5525ZM33 29.175C33.0015 30.0567 32.7065 30.9132 32.1623 31.607C31.6182 32.3007 30.8566 32.7914 30 33C29.1459 32.792 28.3861 32.3036 27.8423 31.6129C27.2984 30.9222 27.0019 30.0691 27 29.19V26.76L30 25.56L33 26.76V29.175Z" fill="white"/>
<path d="M33 19.5V15C33 14.6022 32.842 14.2206 32.5607 13.9393C32.2794 13.658 31.8978 13.5 31.5 13.5H16.5C16.1022 13.5 15.7206 13.658 15.4393 13.9393C15.158 14.2206 15 14.6022 15 15V18C14.6022 18 14.2206 18.158 13.9393 18.4393C13.658 18.7206 13.5 19.1022 13.5 19.5V31.5C13.5 31.8978 13.658 32.2794 13.9393 32.5607C14.2206 32.842 14.6022 33 15 33H23.895C24.0939 33 24.2847 32.921 24.4253 32.7803C24.566 32.6397 24.645 32.4489 24.645 32.25C24.645 32.0511 24.566 31.8603 24.4253 31.7197C24.2847 31.579 24.0939 31.5 23.895 31.5H15V19.5H19.1925L20.4675 20.7825C20.5376 20.852 20.6207 20.907 20.7121 20.9443C20.8034 20.9817 20.9013 21.0006 21 21H33V23.0175C33 23.2164 33.079 23.4072 33.2197 23.5478C33.3603 23.6885 33.5511 23.7675 33.75 23.7675C33.9489 23.7675 34.1397 23.6885 34.2803 23.5478C34.421 23.4072 34.5 23.2164 34.5 23.0175V21C34.5 20.6022 34.342 20.2206 34.0607 19.9393C33.7794 19.658 33.3978 19.5 33 19.5ZM20.0325 18.2175C19.9624 18.148 19.8793 18.093 19.7879 18.0557C19.6966 18.0183 19.5987 17.9994 19.5 18H16.5V15H31.5V19.5H21.3075L20.0325 18.2175Z" fill="white"/>
<defs>
<linearGradient id="paint0_linear_89_988" x1="20.5" y1="51.5" x2="0.298077" y2="23.5436" gradientUnits="userSpaceOnUse">
<stop stop-color="#20B4C5"/>
<stop offset="1" stop-color="#0B89CB"/>
</linearGradient>
</defs>
</svg>
