<svg width="1440" height="209" viewBox="0 0 1440 209" fill="none" xmlns="http://www.w3.org/2000/svg">
<g opacity="0.25">
<path d="M433.389 114.375L421.951 193.371H401.214L352.503 149.622L352.5 149.62L351.728 148.912C343.879 141.542 339.908 132.451 339.972 123.017L334.676 122.618L324.431 193.442H305.748L317.185 114.446H337.917L386.625 158.471V158.472C395.134 166.183 399.356 175.801 399.03 185.784L399.023 185.834V186.097L402.671 186.167L404.319 186.405L414.707 114.375H433.389Z" stroke="url(#paint0_linear_47_2995)" stroke-width="5.32317"/>
<path d="M433.389 114.375L421.951 193.371H401.214L352.503 149.622L352.5 149.62L351.728 148.912C343.879 141.542 339.908 132.451 339.972 123.017L334.676 122.618L324.431 193.442H305.748L317.185 114.446H337.917L386.625 158.471V158.472C395.134 166.183 399.356 175.801 399.03 185.784L399.023 185.834V186.097L402.671 186.167L404.319 186.405L414.707 114.375H433.389Z" stroke="url(#paint1_linear_47_2995)" stroke-opacity="0.2" stroke-width="5.32317"/>
<path d="M693.607 101.67H704.156L644.689 151.983L642.509 153.827L644.502 155.873L681.122 193.441H661.019L632.845 164.439L631.115 162.658L629.218 164.261L585.709 201.012L584.504 201.961C580.683 204.968 575.313 206.785 569.826 206.785H559.195L620.636 155.995L622.859 154.158L620.85 152.09L596.861 127.39L596.077 126.583H495.87C484.637 126.583 477.504 120.753 476.956 114.446H604.12L632.507 143.593L634.262 145.395L636.16 143.745L679.046 106.457C682.784 103.48 688.129 101.67 693.607 101.67ZM488.842 181.305H554.62L539.298 193.513H465.807C468.736 186.904 477.968 181.305 488.842 181.305ZM467.257 144.764L466.82 147.805H466.874L460.374 192.956L462.575 193.513H462.255C456.182 193.447 451.143 191.608 447.853 188.896C444.602 186.215 443.088 182.746 443.638 179.033L443.639 179.022L450.735 129.704L450.736 129.705C451.303 125.875 453.989 122.113 458.319 119.224C461.954 116.798 466.588 115.108 471.595 114.602L467.257 144.764ZM564.334 147.805L562.556 160.013H491.114C479.839 160.013 472.694 154.138 472.193 147.805H564.334Z" stroke="url(#paint2_linear_47_2995)" stroke-width="5.32317"/>
<path d="M693.607 101.67H704.156L644.689 151.983L642.509 153.827L644.502 155.873L681.122 193.441H661.019L632.845 164.439L631.115 162.658L629.218 164.261L585.709 201.012L584.504 201.961C580.683 204.968 575.313 206.785 569.826 206.785H559.195L620.636 155.995L622.859 154.158L620.85 152.09L596.861 127.39L596.077 126.583H495.87C484.637 126.583 477.504 120.753 476.956 114.446H604.12L632.507 143.593L634.262 145.395L636.16 143.745L679.046 106.457C682.784 103.48 688.129 101.67 693.607 101.67ZM488.842 181.305H554.62L539.298 193.513H465.807C468.736 186.904 477.968 181.305 488.842 181.305ZM467.257 144.764L466.82 147.805H466.874L460.374 192.956L462.575 193.513H462.255C456.182 193.447 451.143 191.608 447.853 188.896C444.602 186.215 443.088 182.746 443.638 179.033L443.639 179.022L450.735 129.704L450.736 129.705C451.303 125.875 453.989 122.113 458.319 119.224C461.954 116.798 466.588 115.108 471.595 114.602L467.257 144.764ZM564.334 147.805L562.556 160.013H491.114C479.839 160.013 472.694 154.138 472.193 147.805H564.334Z" stroke="url(#paint3_linear_47_2995)" stroke-opacity="0.2" stroke-width="5.32317"/>
<path d="M824.748 114.444L813.314 193.416C808.365 193.005 804.114 191.287 801.148 188.894C797.741 186.145 796.165 182.665 796.672 179.166L796.671 179.165L799.014 163.201L799.46 160.153H746.697C735.44 160.153 728.278 154.22 727.776 147.874H801.173L801.499 145.589L803.771 129.69L804.204 126.652H751.452C740.178 126.652 733.032 120.778 732.531 114.444H824.748ZM722.841 144.834L725.404 145.202V147.769L722.486 147.669L718.018 178.387C717.413 182.39 714.754 186.14 710.461 188.951C706.882 191.295 702.268 192.905 697.126 193.371L706.319 129.701C706.888 125.835 709.575 122.076 713.9 119.198C717.535 116.779 722.174 115.1 727.19 114.599L722.841 144.834Z" stroke="url(#paint4_linear_47_2995)" stroke-width="5.32317"/>
<path d="M824.748 114.444L813.314 193.416C808.365 193.005 804.114 191.287 801.148 188.894C797.741 186.145 796.165 182.665 796.672 179.166L796.671 179.165L799.014 163.201L799.46 160.153H746.697C735.44 160.153 728.278 154.22 727.776 147.874H801.173L801.499 145.589L803.771 129.69L804.204 126.652H751.452C740.178 126.652 733.032 120.778 732.531 114.444H824.748ZM722.841 144.834L725.404 145.202V147.769L722.486 147.669L718.018 178.387C717.413 182.39 714.754 186.14 710.461 188.951C706.882 191.295 702.268 192.905 697.126 193.371L706.319 129.701C706.888 125.835 709.575 122.076 713.9 119.198C717.535 116.779 722.174 115.1 727.19 114.599L722.841 144.834Z" stroke="url(#paint5_linear_47_2995)" stroke-opacity="0.2" stroke-width="5.32317"/>
<path d="M934.967 147.807L935.534 147.817C941.354 147.988 946.182 149.796 949.37 152.424C952.621 155.104 954.134 158.573 953.584 162.286L953.583 162.296L949.086 193.444H857.088C858.447 190.309 861.257 187.356 865.16 185.114C869.337 182.714 874.592 181.236 880.131 181.236H932.121L932.449 178.953L936.849 148.363L934.612 147.807H934.967ZM851.663 192.887L853.619 193.373H853.544C847.471 193.307 842.432 191.467 839.142 188.755C835.891 186.074 834.377 182.607 834.927 178.894L834.928 178.883L842.026 129.555L842.028 129.544C842.566 125.694 845.242 121.94 849.577 119.061C853.238 116.629 857.918 114.945 862.967 114.453L851.663 192.887ZM931.423 147.807C930.065 150.942 927.255 153.894 923.352 156.136C919.175 158.536 913.919 160.015 908.38 160.015H871.143L872.922 147.807H931.423ZM960.023 114.306C958.802 117.174 956.5 119.804 953.292 121.911C948.982 124.742 943.182 126.514 936.77 126.514H887.229C875.954 126.514 868.808 120.639 868.308 114.306H960.023Z" stroke="url(#paint6_linear_47_2995)" stroke-width="5.32317"/>
<path d="M934.967 147.807L935.534 147.817C941.354 147.988 946.182 149.796 949.37 152.424C952.621 155.104 954.134 158.573 953.584 162.286L953.583 162.296L949.086 193.444H857.088C858.447 190.309 861.257 187.356 865.16 185.114C869.337 182.714 874.592 181.236 880.131 181.236H932.121L932.449 178.953L936.849 148.363L934.612 147.807H934.967ZM851.663 192.887L853.619 193.373H853.544C847.471 193.307 842.432 191.467 839.142 188.755C835.891 186.074 834.377 182.607 834.927 178.894L834.928 178.883L842.026 129.555L842.028 129.544C842.566 125.694 845.242 121.94 849.577 119.061C853.238 116.629 857.918 114.945 862.967 114.453L851.663 192.887ZM931.423 147.807C930.065 150.942 927.255 153.894 923.352 156.136C919.175 158.536 913.919 160.015 908.38 160.015H871.143L872.922 147.807H931.423ZM960.023 114.306C958.802 117.174 956.5 119.804 953.292 121.911C948.982 124.742 943.182 126.514 936.77 126.514H887.229C875.954 126.514 868.808 120.639 868.308 114.306H960.023Z" stroke="url(#paint7_linear_47_2995)" stroke-opacity="0.2" stroke-width="5.32317"/>
<path d="M1232.22 114.516L1220.8 193.417C1215.84 193.007 1211.59 191.289 1208.62 188.894C1205.21 186.145 1203.64 182.665 1204.14 179.166L1204.14 179.165L1206.48 163.201L1206.93 160.153H1154.17C1142.91 160.153 1135.75 154.221 1135.25 147.874H1206.41V145.223L1208.97 145.589L1211.24 129.69L1211.68 126.652H1158.92C1147.69 126.652 1140.56 120.822 1140.01 114.516H1232.22ZM1130.31 144.834L1129.87 147.874H1129.93L1125.49 178.387C1124.88 182.39 1122.22 186.14 1117.93 188.951C1114.35 191.295 1109.74 192.905 1104.6 193.371L1113.79 129.701C1114.36 125.835 1117.05 122.076 1121.37 119.198C1125.01 116.779 1129.64 115.1 1134.66 114.599L1130.31 144.834Z" stroke="url(#paint8_linear_47_2995)" stroke-width="5.32317"/>
<path d="M1232.22 114.516L1220.8 193.417C1215.84 193.007 1211.59 191.289 1208.62 188.894C1205.21 186.145 1203.64 182.665 1204.14 179.166L1204.14 179.165L1206.48 163.201L1206.93 160.153H1154.17C1142.91 160.153 1135.75 154.221 1135.25 147.874H1206.41V145.223L1208.97 145.589L1211.24 129.69L1211.68 126.652H1158.92C1147.69 126.652 1140.56 120.822 1140.01 114.516H1232.22ZM1130.31 144.834L1129.87 147.874H1129.93L1125.49 178.387C1124.88 182.39 1122.22 186.14 1117.93 188.951C1114.35 191.295 1109.74 192.905 1104.6 193.371L1113.79 129.701C1114.36 125.835 1117.05 122.076 1121.37 119.198C1125.01 116.779 1129.64 115.1 1134.66 114.599L1130.31 144.834Z" stroke="url(#paint9_linear_47_2995)" stroke-opacity="0.2" stroke-width="5.32317"/>
<path d="M979.659 114.541C984.611 114.951 988.866 116.669 991.835 119.064C995.242 121.813 996.818 125.293 996.31 128.792L989.142 178.19L988.701 181.234H1041.53C1052.8 181.234 1059.95 187.109 1060.45 193.442H987.164C981.943 193.085 977.598 191.379 974.64 188.967C971.34 186.275 969.798 182.773 970.348 179.031L970.349 179.024L979.659 114.541ZM1094.41 114.375H1095.88L1086.66 178.186C1086.09 182.052 1083.41 185.812 1079.08 188.689C1075.45 191.109 1070.81 192.786 1065.79 193.287L1075.46 126.234C1075.93 123.156 1077.98 120.221 1081.38 117.995C1084.77 115.775 1089.34 114.375 1094.41 114.375Z" stroke="url(#paint10_linear_47_2995)" stroke-width="5.32317"/>
<path d="M979.659 114.541C984.611 114.951 988.866 116.669 991.835 119.064C995.242 121.813 996.818 125.293 996.31 128.792L989.142 178.19L988.701 181.234H1041.53C1052.8 181.234 1059.95 187.109 1060.45 193.442H987.164C981.943 193.085 977.598 191.379 974.64 188.967C971.34 186.275 969.798 182.773 970.348 179.031L970.349 179.024L979.659 114.541ZM1094.41 114.375H1095.88L1086.66 178.186C1086.09 182.052 1083.41 185.812 1079.08 188.689C1075.45 191.109 1070.81 192.786 1065.79 193.287L1075.46 126.234C1075.93 123.156 1077.98 120.221 1081.38 117.995C1084.77 115.775 1089.34 114.375 1094.41 114.375Z" stroke="url(#paint11_linear_47_2995)" stroke-opacity="0.2" stroke-width="5.32317"/>
<path d="M1348.76 114.378C1354.02 114.754 1358.38 116.494 1361.33 118.943C1364.44 121.528 1365.95 124.855 1365.57 128.455L1365.52 128.805L1362.83 147.523C1362.26 151.357 1359.59 155.101 1355.29 157.979C1351.02 160.836 1345.36 162.677 1339.34 162.782H1333.03L1331.86 167.839C1336.22 169.953 1339.72 172.759 1342.11 176.074L1342.34 176.396L1353.55 192.876H1338.7C1334.26 192.876 1330.62 191.048 1329.06 188.728L1329.05 188.717L1312.23 164.017L1311.44 162.854H1263.09L1262.75 165.131L1260.84 178.261L1260.84 178.27C1260.26 182.296 1257.61 186.058 1253.31 188.876C1249.72 191.226 1245.1 192.837 1239.95 193.304L1251.37 114.448H1270L1265.24 147.605L1264.8 150.646H1317.77C1328.75 150.646 1335.84 156.27 1336.71 162.343L1340.55 162.068L1341.98 162.273L1346.66 129.624L1347.1 126.585H1294.35C1283.06 126.585 1275.95 120.703 1275.37 114.448H1348.73L1348.76 114.378Z" stroke="url(#paint12_linear_47_2995)" stroke-width="5.32317"/>
<path d="M1348.76 114.378C1354.02 114.754 1358.38 116.494 1361.33 118.943C1364.44 121.528 1365.95 124.855 1365.57 128.455L1365.52 128.805L1362.83 147.523C1362.26 151.357 1359.59 155.101 1355.29 157.979C1351.02 160.836 1345.36 162.677 1339.34 162.782H1333.03L1331.86 167.839C1336.22 169.953 1339.72 172.759 1342.11 176.074L1342.34 176.396L1353.55 192.876H1338.7C1334.26 192.876 1330.62 191.048 1329.06 188.728L1329.05 188.717L1312.23 164.017L1311.44 162.854H1263.09L1262.75 165.131L1260.84 178.261L1260.84 178.27C1260.26 182.296 1257.61 186.058 1253.31 188.876C1249.72 191.226 1245.1 192.837 1239.95 193.304L1251.37 114.448H1270L1265.24 147.605L1264.8 150.646H1317.77C1328.75 150.646 1335.84 156.27 1336.71 162.343L1340.55 162.068L1341.98 162.273L1346.66 129.624L1347.1 126.585H1294.35C1283.06 126.585 1275.95 120.703 1275.37 114.448H1348.73L1348.76 114.378Z" stroke="url(#paint13_linear_47_2995)" stroke-opacity="0.2" stroke-width="5.32317"/>
<path d="M1477.01 114.446C1475.65 117.582 1472.84 120.534 1468.94 122.776C1464.76 125.176 1459.51 126.654 1453.97 126.654H1401.98L1401.65 128.937L1394.55 178.265L1394.12 181.306H1446.87C1458.1 181.306 1465.24 187.136 1465.79 193.442H1373.58L1385.01 114.446H1477.01ZM1482.25 114.446C1487.54 114.813 1491.92 116.549 1494.89 118.993C1498.14 121.674 1499.65 125.142 1499.1 128.854L1499.1 128.866L1492 178.186C1491.44 182.052 1488.75 185.812 1484.42 188.689C1480.79 191.105 1476.16 192.782 1471.15 193.285L1482.44 115.004L1480.2 114.446H1482.25Z" stroke="url(#paint14_linear_47_2995)" stroke-width="5.32317"/>
<path d="M1477.01 114.446C1475.65 117.582 1472.84 120.534 1468.94 122.776C1464.76 125.176 1459.51 126.654 1453.97 126.654H1401.98L1401.65 128.937L1394.55 178.265L1394.12 181.306H1446.87C1458.1 181.306 1465.24 187.136 1465.79 193.442H1373.58L1385.01 114.446H1477.01ZM1482.25 114.446C1487.54 114.813 1491.92 116.549 1494.89 118.993C1498.14 121.674 1499.65 125.142 1499.1 128.854L1499.1 128.866L1492 178.186C1491.44 182.052 1488.75 185.812 1484.42 188.689C1480.79 191.105 1476.16 192.782 1471.15 193.285L1482.44 115.004L1480.2 114.446H1482.25Z" stroke="url(#paint15_linear_47_2995)" stroke-opacity="0.2" stroke-width="5.32317"/>
<path d="M734.206 89.8872L728.664 94.2124L728.536 94.313L728.487 94.3608C726.822 95.6016 724.35 96.4174 721.643 96.4175H719.089L727.457 89.8872H734.206Z" fill="url(#paint16_linear_47_2995)"/>
<path d="M734.206 89.8872L728.664 94.2124L728.536 94.313L728.487 94.3608C726.822 95.6016 724.35 96.4174 721.643 96.4175H719.089L727.457 89.8872H734.206Z" stroke="url(#paint17_linear_47_2995)" stroke-width="5.32317"/>
<path d="M734.206 89.8872L728.664 94.2124L728.536 94.313L728.487 94.3608C726.822 95.6016 724.35 96.4174 721.643 96.4175H719.089L727.457 89.8872H734.206Z" stroke="url(#paint18_linear_47_2995)" stroke-opacity="0.2" stroke-width="5.32317"/>
<path d="M185.068 168.386C190.463 168.386 194.898 172.854 194.898 178.288C194.898 180.349 194.328 182.208 193.264 183.697L193.143 183.867L193.049 184.053C193.042 184.068 193.035 184.081 193.029 184.092L192.998 184.124L192.849 184.353C191.502 186.409 190.166 188.447 188.692 190.624C173.228 213.198 151.138 235.882 119.558 255.571C111.658 250.639 104.391 245.583 97.6352 240.285L97.6293 240.28L97.6225 240.274L95.9799 238.999C94.3566 237.73 92.7919 236.473 91.311 235.145L91.2416 235.083L91.1684 235.026L90.4877 234.486C88.9146 233.214 87.4309 231.856 85.8266 230.444C78.1127 223.637 71.2382 216.649 65.0893 209.648L78.5961 195.193C79.297 196.008 80.0126 196.795 80.7202 197.574V197.575C88.002 205.868 96.42 214.096 106.15 221.962L108.114 223.531C109.491 224.633 111.024 225.873 112.565 226.977H112.566C114.285 228.266 116.144 229.625 117.987 230.971L119.527 232.097L121.088 231C138.737 218.588 152.752 205.013 163.695 191.271C165.802 188.728 167.826 186.052 169.694 183.466L169.693 183.465C171.654 180.847 173.397 178.163 175.003 175.718L176.372 173.665L176.447 173.516C176.612 173.185 176.874 172.832 177.296 172.241L177.295 172.24C178.984 169.904 181.861 168.386 185.068 168.386Z" stroke="url(#paint19_linear_47_2995)" stroke-width="5.32317"/>
<path d="M185.068 168.386C190.463 168.386 194.898 172.854 194.898 178.288C194.898 180.349 194.328 182.208 193.264 183.697L193.143 183.867L193.049 184.053C193.042 184.068 193.035 184.081 193.029 184.092L192.998 184.124L192.849 184.353C191.502 186.409 190.166 188.447 188.692 190.624C173.228 213.198 151.138 235.882 119.558 255.571C111.658 250.639 104.391 245.583 97.6352 240.285L97.6293 240.28L97.6225 240.274L95.9799 238.999C94.3566 237.73 92.7919 236.473 91.311 235.145L91.2416 235.083L91.1684 235.026L90.4877 234.486C88.9146 233.214 87.4309 231.856 85.8266 230.444C78.1127 223.637 71.2382 216.649 65.0893 209.648L78.5961 195.193C79.297 196.008 80.0126 196.795 80.7202 197.574V197.575C88.002 205.868 96.42 214.096 106.15 221.962L108.114 223.531C109.491 224.633 111.024 225.873 112.565 226.977H112.566C114.285 228.266 116.144 229.625 117.987 230.971L119.527 232.097L121.088 231C138.737 218.588 152.752 205.013 163.695 191.271C165.802 188.728 167.826 186.052 169.694 183.466L169.693 183.465C171.654 180.847 173.397 178.163 175.003 175.718L176.372 173.665L176.447 173.516C176.612 173.185 176.874 172.832 177.296 172.241L177.295 172.24C178.984 169.904 181.861 168.386 185.068 168.386Z" stroke="url(#paint20_linear_47_2995)" stroke-opacity="0.2" stroke-width="5.32317"/>
<path d="M106.639 48.7227C112.326 48.7227 116.682 52.9848 116.682 58.5537V60.1748C115.92 64.5862 112.122 68.0961 107.617 68.2432H107.598L107.579 68.2441C80.0816 69.5331 54.5418 75.048 35.429 83.5908L33.7415 84.3457L33.8587 86.1904C34.0746 89.5728 34.4343 93.745 35.0101 98.2793C35.2324 100.196 35.5963 102.309 35.9446 104.329C36.1741 106.122 36.5464 107.837 36.886 109.467V109.468C37.6752 113.414 38.6072 117.569 39.68 121.932L39.6976 122.006L39.72 122.078C40.3273 124.052 40.9871 125.946 41.5442 127.966L41.5511 127.991L41.5589 128.016C42.0335 129.612 42.5626 131.218 43.1038 132.829H42.6194C36.1199 132.829 29.6288 133.58 23.2767 135.009C22.9865 134.187 22.727 133.368 22.4671 132.529C22.1324 131.45 21.7857 130.304 21.389 129.176C20.8223 127.121 20.2999 125.212 19.9749 123.327L19.9456 123.16L19.8958 122.997L19.7103 122.363C19.2965 120.876 19.0054 119.321 18.6878 117.67L18.6771 117.614L18.6644 117.56L18.2044 115.571C17.1778 111.017 16.3604 106.607 15.7513 102.614C15.7172 100.951 15.3263 99.135 15.1653 98.0264C14.61 92.5291 14.2615 87.585 14.0511 83.7432V72.3906C37.3796 58.2436 70.9761 50.3908 106.138 48.7227H106.639Z" stroke="url(#paint21_linear_47_2995)" stroke-width="5.32317"/>
<path d="M106.639 48.7227C112.326 48.7227 116.682 52.9848 116.682 58.5537V60.1748C115.92 64.5862 112.122 68.0961 107.617 68.2432H107.598L107.579 68.2441C80.0816 69.5331 54.5418 75.048 35.429 83.5908L33.7415 84.3457L33.8587 86.1904C34.0746 89.5728 34.4343 93.745 35.0101 98.2793C35.2324 100.196 35.5963 102.309 35.9446 104.329C36.1741 106.122 36.5464 107.837 36.886 109.467V109.468C37.6752 113.414 38.6072 117.569 39.68 121.932L39.6976 122.006L39.72 122.078C40.3273 124.052 40.9871 125.946 41.5442 127.966L41.5511 127.991L41.5589 128.016C42.0335 129.612 42.5626 131.218 43.1038 132.829H42.6194C36.1199 132.829 29.6288 133.58 23.2767 135.009C22.9865 134.187 22.727 133.368 22.4671 132.529C22.1324 131.45 21.7857 130.304 21.389 129.176C20.8223 127.121 20.2999 125.212 19.9749 123.327L19.9456 123.16L19.8958 122.997L19.7103 122.363C19.2965 120.876 19.0054 119.321 18.6878 117.67L18.6771 117.614L18.6644 117.56L18.2044 115.571C17.1778 111.017 16.3604 106.607 15.7513 102.614C15.7172 100.951 15.3263 99.135 15.1653 98.0264C14.61 92.5291 14.2615 87.585 14.0511 83.7432V72.3906C37.3796 58.2436 70.9761 50.3908 106.138 48.7227H106.639Z" stroke="url(#paint22_linear_47_2995)" stroke-opacity="0.2" stroke-width="5.32317"/>
<path d="M287.748 50.0708L225.352 116.924L225.327 116.95L225.304 116.977C223.767 118.715 222.026 120.389 220.223 121.858L220.19 121.885L220.156 121.914C211.775 129.204 201.63 134.171 190.819 136.21L190.784 136.217L190.749 136.225C186.694 137.104 182.485 137.513 178.254 137.513H125.648L178.993 80.312L178.992 80.311L198.226 59.731L198.234 59.7222L207.168 50.0708H287.748Z" stroke="url(#paint23_linear_47_2995)" stroke-width="5.32317"/>
<path d="M287.748 50.0708L225.352 116.924L225.327 116.95L225.304 116.977C223.767 118.715 222.026 120.389 220.223 121.858L220.19 121.885L220.156 121.914C211.775 129.204 201.63 134.171 190.819 136.21L190.784 136.217L190.749 136.225C186.694 137.104 182.485 137.513 178.254 137.513H125.648L178.993 80.312L178.992 80.311L198.226 59.731L198.234 59.7222L207.168 50.0708H287.748Z" stroke="url(#paint24_linear_47_2995)" stroke-opacity="0.2" stroke-width="5.32317"/>
<path d="M40.3476 142.765H113.369L73.1142 185.978L55.8671 204.361L55.8398 204.39L19.7245 244.047H-85.9434L-14.4766 166.609L-14.4776 166.608C-4.34 155.649 8.8128 148.116 23.1288 144.828L23.1269 144.811C28.7565 143.511 34.4944 142.765 40.3476 142.765Z" stroke="url(#paint25_linear_47_2995)" stroke-width="5.32317"/>
<path d="M40.3476 142.765H113.369L73.1142 185.978L55.8671 204.361L55.8398 204.39L19.7245 244.047H-85.9434L-14.4766 166.609L-14.4776 166.608C-4.34 155.649 8.8128 148.116 23.1288 144.828L23.1269 144.811C28.7565 143.511 34.4944 142.765 40.3476 142.765Z" stroke="url(#paint26_linear_47_2995)" stroke-opacity="0.2" stroke-width="5.32317"/>
</g>
<defs>
<linearGradient id="paint0_linear_47_2995" x1="332.21" y1="116.698" x2="395.777" y2="127.228" gradientUnits="userSpaceOnUse">
<stop stop-color="#18A7B7"/>
<stop offset="1" stop-color="#1F88BF"/>
</linearGradient>
<linearGradient id="paint1_linear_47_2995" x1="317.691" y1="111.714" x2="394.989" y2="135.201" gradientUnits="userSpaceOnUse">
<stop stop-color="white" stop-opacity="0.08"/>
<stop offset="1" stop-color="white" stop-opacity="0.08"/>
</linearGradient>
<linearGradient id="paint2_linear_47_2995" x1="500.594" y1="105.532" x2="624.549" y2="137.261" gradientUnits="userSpaceOnUse">
<stop stop-color="#18A7B7"/>
<stop offset="1" stop-color="#1F88BF"/>
</linearGradient>
<linearGradient id="paint3_linear_47_2995" x1="471.233" y1="99.0088" x2="611.138" y2="164.699" gradientUnits="userSpaceOnUse">
<stop stop-color="white" stop-opacity="0.08"/>
<stop offset="1" stop-color="white" stop-opacity="0.08"/>
</linearGradient>
<linearGradient id="paint4_linear_47_2995" x1="723.569" y1="116.768" x2="787.136" y2="127.298" gradientUnits="userSpaceOnUse">
<stop stop-color="#18A7B7"/>
<stop offset="1" stop-color="#1F88BF"/>
</linearGradient>
<linearGradient id="paint5_linear_47_2995" x1="709.05" y1="111.783" x2="786.348" y2="135.27" gradientUnits="userSpaceOnUse">
<stop stop-color="white" stop-opacity="0.08"/>
<stop offset="1" stop-color="white" stop-opacity="0.08"/>
</linearGradient>
<linearGradient id="paint6_linear_47_2995" x1="861.157" y1="116.633" x2="923.639" y2="126.788" gradientUnits="userSpaceOnUse">
<stop stop-color="#18A7B7"/>
<stop offset="1" stop-color="#1F88BF"/>
</linearGradient>
<linearGradient id="paint7_linear_47_2995" x1="846.9" y1="111.645" x2="923.043" y2="134.344" gradientUnits="userSpaceOnUse">
<stop stop-color="white" stop-opacity="0.08"/>
<stop offset="1" stop-color="white" stop-opacity="0.08"/>
</linearGradient>
<linearGradient id="paint8_linear_47_2995" x1="1131.04" y1="116.768" x2="1194.61" y2="127.298" gradientUnits="userSpaceOnUse">
<stop stop-color="#18A7B7"/>
<stop offset="1" stop-color="#1F88BF"/>
</linearGradient>
<linearGradient id="paint9_linear_47_2995" x1="1116.52" y1="111.783" x2="1193.82" y2="135.27" gradientUnits="userSpaceOnUse">
<stop stop-color="white" stop-opacity="0.08"/>
<stop offset="1" stop-color="white" stop-opacity="0.08"/>
</linearGradient>
<linearGradient id="paint10_linear_47_2995" x1="996.579" y1="116.703" x2="1059.06" y2="126.857" gradientUnits="userSpaceOnUse">
<stop stop-color="#18A7B7"/>
<stop offset="1" stop-color="#1F88BF"/>
</linearGradient>
<linearGradient id="paint11_linear_47_2995" x1="982.323" y1="111.714" x2="1058.46" y2="134.413" gradientUnits="userSpaceOnUse">
<stop stop-color="white" stop-opacity="0.08"/>
<stop offset="1" stop-color="white" stop-opacity="0.08"/>
</linearGradient>
<linearGradient id="paint12_linear_47_2995" x1="1265.87" y1="116.633" x2="1328.38" y2="126.797" gradientUnits="userSpaceOnUse">
<stop stop-color="#18A7B7"/>
<stop offset="1" stop-color="#1F88BF"/>
</linearGradient>
<linearGradient id="paint13_linear_47_2995" x1="1251.61" y1="111.645" x2="1327.78" y2="134.363" gradientUnits="userSpaceOnUse">
<stop stop-color="white" stop-opacity="0.08"/>
<stop offset="1" stop-color="white" stop-opacity="0.08"/>
</linearGradient>
<linearGradient id="paint14_linear_47_2995" x1="1399.5" y1="116.698" x2="1461.98" y2="126.861" gradientUnits="userSpaceOnUse">
<stop stop-color="#18A7B7"/>
<stop offset="1" stop-color="#1F88BF"/>
</linearGradient>
<linearGradient id="paint15_linear_47_2995" x1="1385.25" y1="111.714" x2="1461.38" y2="134.429" gradientUnits="userSpaceOnUse">
<stop stop-color="white" stop-opacity="0.08"/>
<stop offset="1" stop-color="white" stop-opacity="0.08"/>
</linearGradient>
<linearGradient id="paint16_linear_47_2995" x1="294.794" y1="101.918" x2="1471.86" y2="77.6443" gradientUnits="userSpaceOnUse">
<stop stop-color="#1F7CC1"/>
<stop offset="1" stop-color="#00A9B5"/>
</linearGradient>
<linearGradient id="paint17_linear_47_2995" x1="718.105" y1="87.9262" x2="732.026" y2="91.6801" gradientUnits="userSpaceOnUse">
<stop stop-color="#18A7B7"/>
<stop offset="1" stop-color="#1F88BF"/>
</linearGradient>
<linearGradient id="paint18_linear_47_2995" x1="714.785" y1="87.2261" x2="730.296" y2="94.8983" gradientUnits="userSpaceOnUse">
<stop stop-color="white" stop-opacity="0.08"/>
<stop offset="1" stop-color="white" stop-opacity="0.08"/>
</linearGradient>
<linearGradient id="paint19_linear_47_2995" x1="91.5914" y1="171.217" x2="156.462" y2="181.13" gradientUnits="userSpaceOnUse">
<stop stop-color="#18A7B7"/>
<stop offset="1" stop-color="#1F88BF"/>
</linearGradient>
<linearGradient id="paint20_linear_47_2995" x1="76.8339" y1="165.725" x2="156.404" y2="188.03" gradientUnits="userSpaceOnUse">
<stop stop-color="white" stop-opacity="0.08"/>
<stop offset="1" stop-color="white" stop-opacity="0.08"/>
</linearGradient>
<linearGradient id="paint21_linear_47_2995" x1="35.2537" y1="51.4988" x2="87.2399" y2="57.8771" gradientUnits="userSpaceOnUse">
<stop stop-color="#18A7B7"/>
<stop offset="1" stop-color="#1F88BF"/>
</linearGradient>
<linearGradient id="paint22_linear_47_2995" x1="23.5232" y1="46.0615" x2="88.4537" y2="60.6745" gradientUnits="userSpaceOnUse">
<stop stop-color="white" stop-opacity="0.08"/>
<stop offset="1" stop-color="white" stop-opacity="0.08"/>
</linearGradient>
<linearGradient id="paint23_linear_47_2995" x1="158.04" y1="52.8889" x2="239.976" y2="68.9764" gradientUnits="userSpaceOnUse">
<stop stop-color="#18A7B7"/>
<stop offset="1" stop-color="#1F88BF"/>
</linearGradient>
<linearGradient id="paint24_linear_47_2995" x1="139.123" y1="47.4097" x2="236.503" y2="82.481" gradientUnits="userSpaceOnUse">
<stop stop-color="white" stop-opacity="0.08"/>
<stop offset="1" stop-color="white" stop-opacity="0.08"/>
</linearGradient>
<linearGradient id="paint25_linear_47_2995" x1="-45.3281" y1="146.401" x2="53.6682" y2="166.923" gradientUnits="userSpaceOnUse">
<stop stop-color="#18A7B7"/>
<stop offset="1" stop-color="#1F88BF"/>
</linearGradient>
<linearGradient id="paint26_linear_47_2995" x1="-68.2809" y1="140.104" x2="48.3388" y2="184.449" gradientUnits="userSpaceOnUse">
<stop stop-color="white" stop-opacity="0.08"/>
<stop offset="1" stop-color="white" stop-opacity="0.08"/>
</linearGradient>
</defs>
</svg>
