<?xml version="1.0" encoding="UTF-8"?>
<svg xmlns="http://www.w3.org/2000/svg" version="1.1" xmlns:xlink="http://www.w3.org/1999/xlink" viewBox="0 0 275 113.96">
  <!-- Generator: Adobe Illustrator 30.0.0, SVG Export Plug-In . SVG Version: 2.1.1 Build 123)  -->
  <defs>
    <style>
      .st0 {
        fill: url(#linear-gradient2);
      }

      .st1 {
        fill: url(#linear-gradient10);
      }

      .st2 {
        fill: url(#linear-gradient21);
      }

      .st3 {
        fill: #fff;
      }

      .st4 {
        fill: url(#linear-gradient1);
      }

      .st5 {
        fill: url(#linear-gradient9);
      }

      .st6 {
        fill: url(#linear-gradient18);
      }

      .st7 {
        fill: url(#linear-gradient23);
      }

      .st8 {
        fill: url(#linear-gradient8);
      }

      .st9 {
        fill: url(#linear-gradient11);
      }

      .st10 {
        fill: url(#linear-gradient16);
      }

      .st11 {
        fill: url(#linear-gradient22);
      }

      .st12 {
        fill: url(#linear-gradient19);
      }

      .st13 {
        fill: url(#linear-gradient12);
      }

      .st14 {
        fill: url(#linear-gradient7);
      }

      .st15 {
        fill: url(#linear-gradient20);
      }

      .st16 {
        fill: url(#linear-gradient4);
      }

      .st17 {
        fill: url(#linear-gradient14);
      }

      .st18 {
        fill: url(#linear-gradient5);
      }

      .st19 {
        fill: url(#linear-gradient3);
      }

      .st20 {
        fill: url(#linear-gradient15);
      }

      .st21 {
        fill: url(#linear-gradient17);
      }

      .st22 {
        fill: url(#linear-gradient6);
      }

      .st23 {
        fill: url(#linear-gradient13);
      }

      .st24 {
        fill: url(#linear-gradient);
      }
    </style>
    <linearGradient id="linear-gradient" x1="79.86" y1="55.98" x2="245.7" y2="52.57" gradientUnits="userSpaceOnUse">
      <stop offset="0" stop-color="#1f7cc1"/>
      <stop offset="1" stop-color="#00a9b5"/>
    </linearGradient>
    <linearGradient id="linear-gradient1" x1="79.88" y1="56.79" x2="245.72" y2="53.37" xlink:href="#linear-gradient"/>
    <linearGradient id="linear-gradient2" x1="79.89" y1="57.16" x2="245.73" y2="53.74" xlink:href="#linear-gradient"/>
    <linearGradient id="linear-gradient3" x1="79.89" y1="57.55" x2="245.74" y2="54.13" xlink:href="#linear-gradient"/>
    <linearGradient id="linear-gradient4" x1="79.91" y1="58.34" x2="245.75" y2="54.92" xlink:href="#linear-gradient"/>
    <linearGradient id="linear-gradient5" x1="79.9" y1="57.87" x2="245.74" y2="54.45" xlink:href="#linear-gradient"/>
    <linearGradient id="linear-gradient6" x1="79.92" y1="58.66" x2="245.76" y2="55.24" xlink:href="#linear-gradient"/>
    <linearGradient id="linear-gradient7" x1="79.93" y1="59.05" x2="245.77" y2="55.63" xlink:href="#linear-gradient"/>
    <linearGradient id="linear-gradient8" x1="79.71" y1="48.44" x2="245.55" y2="45.02" xlink:href="#linear-gradient"/>
    <linearGradient id="linear-gradient9" x1="80.05" y1="65.25" x2="245.9" y2="61.83" xlink:href="#linear-gradient"/>
    <linearGradient id="linear-gradient10" x1="80.16" y1="70.49" x2="246" y2="67.07" xlink:href="#linear-gradient"/>
    <linearGradient id="linear-gradient11" x1="80.16" y1="70.56" x2="246.01" y2="67.14" xlink:href="#linear-gradient"/>
    <linearGradient id="linear-gradient12" x1="80.17" y1="70.84" x2="246.01" y2="67.42" xlink:href="#linear-gradient"/>
    <linearGradient id="linear-gradient13" x1="80.17" y1="71.13" x2="246.02" y2="67.71" xlink:href="#linear-gradient"/>
    <linearGradient id="linear-gradient14" x1="80.17" y1="71.14" x2="246.02" y2="67.72" xlink:href="#linear-gradient"/>
    <linearGradient id="linear-gradient15" x1="80.18" y1="71.34" x2="246.02" y2="67.92" xlink:href="#linear-gradient"/>
    <linearGradient id="linear-gradient16" x1="80.18" y1="71.55" x2="246.03" y2="68.13" xlink:href="#linear-gradient"/>
    <linearGradient id="linear-gradient17" x1="80.19" y1="71.84" x2="246.03" y2="68.42" xlink:href="#linear-gradient"/>
    <linearGradient id="linear-gradient18" x1="80.19" y1="71.98" x2="246.03" y2="68.56" xlink:href="#linear-gradient"/>
    <linearGradient id="linear-gradient19" x1="80.2" y1="72.24" x2="246.04" y2="68.82" xlink:href="#linear-gradient"/>
    <linearGradient id="linear-gradient20" x1="30.15" y1="76.47" x2="81.15" y2="51.68" xlink:href="#linear-gradient"/>
    <linearGradient id="linear-gradient21" x1="21.5" y1="58.67" x2="72.5" y2="33.88" xlink:href="#linear-gradient"/>
    <linearGradient id="linear-gradient22" x1="25.59" y1="67.09" x2="76.6" y2="42.3" xlink:href="#linear-gradient"/>
    <linearGradient id="linear-gradient23" x1="26.31" y1="68.58" x2="77.32" y2="43.79" xlink:href="#linear-gradient"/>
  </defs>
  <rect class="st3" width="275" height="113.96"/>
  <g id="Layer_1">
    <g>
      <path class="st24" d="M94.77,60.3c.06-1.54-.59-3.01-1.87-4.17l-6.97-6.3h0s-3.39,0-3.39,0l-1.72,11.88h3.39l1.49-10.3c-.01,1.49.64,2.91,1.89,4.03l6.97,6.26h3.39l1.72-11.88h-3.39l-1.51,10.47Z"/>
      <path class="st4" d="M120.76,62.84l6.31-5.33,4.08,4.2h3.88l-5.78-5.93,9.16-7.75h-2.51c-.85,0-1.69.28-2.29.76l-6.05,5.26-4.11-4.22h-.54s-17.9,0-17.9,0h0c-1.85.02-3.5,1.12-3.7,2.47l-1,6.95c-.2,1.35,1.14,2.45,2.99,2.47h0s10.99,0,10.99,0l3.1-2.47h-10.34c-1.69,0-3.21.9-3.64,2.07l.92-6.39c.09,1.18,1.36,2.07,3.04,2.07h10.39l.36-2.47h-13.74l.62-4.31c.09,1.18,1.36,2.07,3.04,2.07h13.96l3.38,3.48-9.46,7.82h2.54c.85,0,1.69-.28,2.3-.76Z"/>
      <path class="st0" d="M153.09,61.71l1.72-11.88h-13.79s0,0,0,0c-1.85.02-3.5,1.11-3.7,2.47l-1.36,9.42c1.93,0,3.54-1.06,3.75-2.45l.63-4.33c.09,1.18,1.36,2.08,3.04,2.08h7l-.33,2.25c-.19,1.31,1.22,2.45,3.04,2.45ZM140.39,54.54l.62-4.31c.09,1.18,1.36,2.07,3.04,2.07h7l-.32,2.24h-10.35Z"/>
      <path class="st19" d="M158.43,61.71s0,0,0,0h13.79l.68-4.71c.2-1.35-1.14-2.45-2.99-2.47,0,0,0,0,0,0h-9.07l-.36,2.47h5.68c1.69,0,3.22-.9,3.64-2.07l-.62,4.31h-7c-1.69,0-3.22.9-3.64,2.07l1.6-11.1c.09,1.18,1.36,2.07,3.04,2.07h6.98c1.94,0,3.56-1.07,3.77-2.47h0s-13.79,0-13.79,0c0,0,0,0,0,0-1.85.02-3.51,1.11-3.7,2.47l-1,6.95c-.2,1.35,1.14,2.45,2.99,2.47Z"/>
      <path class="st16" d="M198.43,49.83s0,0,0,0c-1.85.02-3.5,1.11-3.7,2.47l-1.36,9.42c1.93,0,3.54-1.06,3.75-2.45l.63-4.33c.09,1.18,1.36,2.08,3.04,2.08h7l-.33,2.25c-.19,1.31,1.22,2.45,3.04,2.45l1.72-11.88h-13.79ZM208.15,54.54h-10.35l.62-4.31c.09,1.18,1.36,2.07,3.04,2.07h7l-.32,2.24Z"/>
      <path class="st18" d="M177.55,61.71h10.4s0,0,0,0c1.85-.02,3.5-1.11,3.7-2.47l1.36-9.42h-.64c-1.56,0-2.87.86-3.04,1.99l-1.37,9.5c-.09-1.18-1.36-2.07-3.04-2.07h-7.01l1.01-6.96c.19-1.31-1.22-2.45-3.04-2.45l-1.36,9.42c-.2,1.36,1.16,2.47,3.03,2.47Z"/>
      <path class="st22" d="M227.97,49.83h0s-13.81,0-13.81,0l-1.72,11.88c1.93,0,3.55-1.06,3.75-2.46l.27-1.85h6.29l2.37,3.48c.31.46.96.75,1.67.75h2.8l-1.98-2.91c-.38-.55-.94-1-1.62-1.33h.89s0,0,0,0c1.84-.03,3.48-1.12,3.68-2.47l.38-2.64c.19-1.35-1.13-2.44-2.96-2.47ZM226.88,56.9c-.16-1.12-1.4-1.97-3.04-1.97h-7.03l.68-4.73c.08,1.18,1.35,2.09,3.05,2.09h7l-.66,4.6Z"/>
      <path class="st14" d="M246.78,49.83s0,0,0,0h-13.79l-1.72,11.88h13.79s0,0,0,0c1.85-.02,3.5-1.11,3.7-2.47l1-6.95c.2-1.35-1.14-2.45-2.99-2.47ZM245.07,61.32c-.09-1.18-1.36-2.07-3.04-2.07h-7l1-6.95h7c1.69,0,3.22-.9,3.64-2.07l-1.6,11.1Z"/>
      <path class="st8" d="M141.07,47.65l1.64-1.28h-2.17l-2.14,1.67h1.45c.46,0,.9-.14,1.21-.38Z"/>
      <path class="st5" d="M112.93,63.99l-1.94,1.51h2.49l2.45-1.91h-1.74c-.47,0-.93.14-1.25.4Z"/>
      <path class="st1" d="M117.57,71.17l.45-3.14c.12-.84,1.17-1.52,2.35-1.52h4.6l.1-.69h-4.6c-1.7,0-3.22.99-3.4,2.22l-.45,3.14c-.18,1.22,1.05,2.22,2.76,2.22h6.36l.1-.71h-6.36c-1.17,0-2.03-.68-1.91-1.51Z"/>
      <polygon class="st9" points="135.75 65.77 130.79 69.27 127.32 65.77 126.07 65.77 130.19 69.93 129.7 73.36 130.65 73.36 131.14 69.94 137.06 65.77 135.75 65.77"/>
      <path class="st13" d="M146.92,67.89c.17-1.15-.97-2.07-2.53-2.07h-6.36l-1.09,7.54h7.2c.67,0,1.31-.23,1.84-.64.48-.39.8-.9.88-1.44s-.05-1.06-.37-1.43c-.17-.2-.4-.36-.65-.48.59-.38.99-.91,1.07-1.48ZM145.9,71.28c-.06.39-.28.74-.6,1-.32.25-.68.39-1.06.39h-6.17c.26-.42,1.07-1.49,2.04-1.92,1.19-.53,2.13-.6,3.05-.68.46-.03.9-.08,1.35-.17h.3c.84,0,1.18.69,1.08,1.39ZM144.68,69.13c-.46.15-.95.19-1.52.24-.93.07-2.1.17-3.49.78-.57.26-1.06.65-1.46,1.02l.67-4.66h5.41c1.03,0,1.77.61,1.66,1.38-.08.53-.57,1.02-1.27,1.24Z"/>
      <polygon class="st23" points="151.36 69.94 158.27 69.94 158.37 69.24 151.47 69.24 151.36 69.94"/>
      <path class="st17" d="M149.11,68.03l-.45,3.13c-.18,1.22,1.06,2.22,2.76,2.22h6.36l.1-.71h-6.36c-1.17,0-2.03-.68-1.91-1.51l.45-3.13c.12-.84,1.17-1.52,2.35-1.52h6.36l.1-.69h-6.36c-1.7,0-3.22.99-3.4,2.22Z"/>
      <path class="st20" d="M169.98,67.89c.16-1.14-1.08-2.07-2.78-2.07h-6.28l-1.09,7.54h.95l.28-1.93c.12-.86,1.12-1.07,3.17-1.19,2.86,0,4.66,1.3,4.39,3.13h.97c.08-.57,0-1.11-.24-1.59-.23-.48-.59-.89-1.09-1.23-.33-.22-.71-.4-1.12-.56.3-.05.59-.11.87-.19,1.18-.35,1.83-.99,1.96-1.9ZM164.8,69.49c-1.09.06-2.1.11-2.93.34-.23.07-.43.14-.61.22l.51-3.53h5.33c1.17,0,2.04.61,1.93,1.36-.19,1.3-1.73,1.48-4.23,1.6Z"/>
      <polygon class="st10" points="173.55 65.82 172.6 65.82 171.51 73.36 178.49 73.36 178.6 72.65 172.56 72.65 173.55 65.82"/>
      <path class="st21" d="M188.14,66.66c-.21-.51-.82-.83-1.57-.84-.76-.01-1.46.28-1.85.8l-5.25,6.78h1.05l5.03-6.5c.19-.25.52-.39.9-.39.36.01.65.16.75.41l2.5,6.47h1.05l-2.62-6.72h0Z"/>
      <path class="st6" d="M202.22,67.89c.17-1.15-.97-2.07-2.53-2.07h-6.36l-1.09,7.54h7.2c.67,0,1.31-.23,1.84-.64.48-.39.8-.9.88-1.44s-.05-1.06-.37-1.43c-.17-.2-.4-.36-.65-.48.59-.38.99-.91,1.07-1.48ZM201.2,71.28c-.06.39-.28.74-.6,1-.32.25-.68.39-1.06.39h-6.17c.26-.42,1.07-1.49,2.04-1.92,1.19-.53,2.13-.6,3.05-.68.46-.03.9-.08,1.35-.17h.3c.84,0,1.18.69,1.08,1.39ZM199.98,69.13c-.46.15-.95.19-1.52.24-.93.07-2.1.17-3.49.78-.57.26-1.06.65-1.46,1.02l.67-4.66h5.41c1.03,0,1.77.61,1.66,1.38-.08.53-.57,1.02-1.27,1.24Z"/>
      <path class="st12" d="M204.34,67.87c-.16,1.14.97,2.06,2.53,2.06h5.55l-.2,1.36c-.11.75-1.04,1.35-2.07,1.35h-6.36l-.1.71h6.36c1.56,0,2.96-.92,3.13-2.06l.3-2.06h-6.5c-1.03,0-1.79-.61-1.68-1.37.11-.75,1.04-1.35,2.07-1.35h6.55l.1-.71h-6.55c-1.56,0-2.96.92-3.13,2.06Z"/>
      <path class="st15" d="M64.25,57.43c-.57,0-1.09.27-1.4.7-.05.07-.11.15-.15.23-.06.09-.12.18-.18.27-.23.35-.47.72-.74,1.08-.26.36-.54.73-.83,1.08-1.52,1.91-3.47,3.8-5.93,5.53-.26-.19-.52-.38-.76-.56-.21-.15-.42-.32-.62-.48-1.47-1.16-2.73-2.38-3.81-3.61-.2-.22-.39-.43-.56-.66l-2.42,2.59v.02c.93,1.08,1.98,2.16,3.17,3.21.25.22.5.45.77.66.29.26.6.5.91.74,1.02.8,2.12,1.56,3.32,2.3,4.6-2.83,7.81-6.11,10.05-9.38.21-.31.4-.6.59-.89.02-.02.04-.06.05-.08.2-.28.3-.62.3-.98,0-.97-.79-1.77-1.76-1.77Z"/>
      <path class="st2" d="M55.01,42.33c0,.92-.74,1.71-1.66,1.74-3.84.18-7.39.95-10.03,2.13.03.47.08,1.05.16,1.68.03.26.08.55.13.84.03.24.08.47.13.71.11.55.24,1.13.39,1.74.08.26.18.55.26.84.11.37.24.74.37,1.13v.03h-.58c-.92,0-1.84.11-2.74.32-.08.03-.16.03-.24.05l-.05-.18c-.13-.34-.21-.66-.32-.97-.08-.29-.16-.58-.21-.87-.08-.26-.13-.53-.18-.79-.18-.76-.32-1.5-.42-2.16,0-.21-.05-.42-.08-.63-.08-.79-.13-1.5-.16-2.05v-1.82c3.37-2.11,8.26-3.26,13.34-3.5h.08c1,0,1.79.76,1.79,1.76Z"/>
      <path class="st11" d="M65.83,42.24l-2.71,2.9-7.61,8.16-.49.53h8.27c.62,0,1.24-.06,1.84-.19,1.59-.3,3.08-1.03,4.31-2.1.27-.22.53-.47.76-.73l9.38-10.05h-12.38l-1.37,1.48Z"/>
      <path class="st7" d="M41.35,54.12c-2.09.48-4.01,1.58-5.49,3.18l-10.65,11.54h15.91l5.2-5.71,2.43-2.59,6.26-6.72h-11.15c-.86,0-1.7.11-2.52.3Z"/>
    </g>
  </g>
</svg>