<svg width="48" height="48" viewBox="0 0 48 48" fill="none" xmlns="http://www.w3.org/2000/svg">
<circle cx="24" cy="24" r="24" fill="url(#paint0_linear_215_1121)"/>
<circle cx="24" cy="24" r="23.5" stroke="white" stroke-opacity="0.5"/>
<path fill-rule="evenodd" clip-rule="evenodd" d="M14.7018 27.6905C14.5858 27.4628 14.5934 27.1906 14.7241 26.9691C17.0147 23.085 20.3962 21.0213 23.8825 20.9801C27.3702 20.9389 30.7804 22.9241 33.1204 26.7594C33.3361 27.113 33.2243 27.5745 32.8708 27.7903C32.5172 28.006 32.0556 27.8943 31.8399 27.5406C29.7199 24.066 26.76 22.4462 23.9002 22.48C21.0746 22.5134 18.1687 24.1632 16.0941 27.6004C15.9969 27.9019 15.714 28.1201 15.3801 28.1201C15.0806 28.1201 14.822 27.9444 14.7018 27.6905Z" fill="white"/>
<path fill-rule="evenodd" clip-rule="evenodd" d="M24 14.24C24.4142 14.24 24.75 14.5758 24.75 14.99V18.35C24.75 18.7642 24.4142 19.1 24 19.1C23.5858 19.1 23.25 18.7642 23.25 18.35V14.99C23.25 14.5758 23.5858 14.24 24 14.24Z" fill="white"/>
<path fill-rule="evenodd" clip-rule="evenodd" d="M14.5836 16.6063C14.9281 16.3763 15.3938 16.4691 15.6238 16.8136L17.8738 20.1836C18.1038 20.5281 18.011 20.9938 17.6665 21.2238C17.322 21.4538 16.8563 21.361 16.6263 21.0165L14.3763 17.6465C14.1463 17.302 14.2391 16.8363 14.5836 16.6063Z" fill="white"/>
<path fill-rule="evenodd" clip-rule="evenodd" d="M33.4165 16.6063C33.761 16.8363 33.8538 17.302 33.6238 17.6465L31.3738 21.0165C31.1439 21.361 30.6781 21.4538 30.3336 21.2238C29.9892 20.9938 29.8963 20.5281 30.1263 20.1836L32.3763 16.8136C32.6063 16.4691 33.072 16.3763 33.4165 16.6063Z" fill="white"/>
<path fill-rule="evenodd" clip-rule="evenodd" d="M24.0001 27C22.5455 27 21.3701 28.1751 21.3701 29.62C21.3701 31.0649 22.5455 32.24 24.0001 32.24C25.4547 32.24 26.6301 31.0649 26.6301 29.62C26.6301 28.1751 25.4547 27 24.0001 27ZM19.8701 29.62C19.8701 27.3425 21.7212 25.5 24.0001 25.5C26.279 25.5 28.1301 27.3425 28.1301 29.62C28.1301 31.8975 26.279 33.74 24.0001 33.74C21.7212 33.74 19.8701 31.8975 19.8701 29.62Z" fill="white"/>
<defs>
<linearGradient id="paint0_linear_215_1121" x1="20.5" y1="51.5" x2="0.298077" y2="23.5436" gradientUnits="userSpaceOnUse">
<stop stop-color="#20B4C5"/>
<stop offset="1" stop-color="#0B89CB"/>
</linearGradient>
</defs>
</svg>
