<svg width="48" height="48" viewBox="0 0 48 48" fill="none" xmlns="http://www.w3.org/2000/svg">
<circle cx="24" cy="24" r="24" fill="url(#paint0_linear_215_1158)"/>
<circle cx="24" cy="24" r="23.5" stroke="white" stroke-opacity="0.5"/>
<path d="M35.9938 25.0636L34.4936 15.9219C34.4691 15.7726 34.3741 15.6444 34.2385 15.5775C34.103 15.5106 33.9434 15.5131 33.81 15.5843L30.0899 17.5731C29.879 17.6858 29.7868 17.9393 29.876 18.1613L30.1178 18.7629C29.431 19.0616 28.6458 19.0862 27.94 18.8267C26.6498 18.3523 25.2283 18.4279 24 19.0281C22.7719 18.428 21.3503 18.3524 20.0601 18.8267C19.3543 19.0861 18.5691 19.0615 17.8822 18.7628L18.124 18.1613C18.2133 17.9393 18.1211 17.6858 17.9101 17.573L14.19 15.5844C14.0567 15.5131 13.8971 15.5106 13.7615 15.5775C13.6259 15.6444 13.5309 15.7727 13.5065 15.9219L12.0062 25.0636C11.9696 25.2867 12.0974 25.504 12.3101 25.5805L14.3585 26.3175C14.4108 26.3363 14.4643 26.3452 14.5171 26.3452C14.7033 26.3452 14.8787 26.2336 14.952 26.0513L15.1896 25.4603L16.278 26.3223C16.3053 26.6822 16.4558 27.0345 16.7305 27.3092C17.0319 27.6106 17.4267 27.7628 17.8226 27.7663C17.8261 28.1622 17.9783 28.557 18.2797 28.8585C18.5812 29.1599 18.976 29.312 19.3719 29.3155C19.3754 29.7114 19.5276 30.1063 19.829 30.4078C20.134 30.7127 20.5345 30.8652 20.9351 30.8652C21.0233 30.8652 21.1115 30.8573 21.1988 30.8425C21.249 31.1564 21.3945 31.4578 21.636 31.6993C21.9409 32.0043 22.3415 32.1568 22.7421 32.1568C23.0415 32.1568 23.341 32.0715 23.6006 31.901L23.7134 32.0138C24.0184 32.3188 24.4189 32.4712 24.8195 32.4712C25.2201 32.4712 25.6206 32.3188 25.9256 32.0138C26.1161 31.8234 26.2471 31.5956 26.3186 31.3537C26.5062 31.4316 26.7093 31.4725 26.9186 31.4725C27.3364 31.4725 27.7292 31.3098 28.0247 31.0144C28.2703 30.7686 28.4169 30.4609 28.4646 30.1411C28.5443 30.1534 28.6247 30.1598 28.7051 30.1598C29.1057 30.1598 29.5063 30.0074 29.8113 29.7024C30.1034 29.4103 30.2655 29.0228 30.2691 28.6103C30.6647 28.6065 31.0593 28.4544 31.3606 28.1532C31.8241 27.6897 31.9349 27.0054 31.6939 26.4359L32.9367 25.7745L33.048 26.0514C33.1213 26.2337 33.2968 26.3453 33.483 26.3453C33.5356 26.3453 33.5893 26.3364 33.6416 26.3176L35.6899 25.5806C35.9025 25.5041 36.0304 25.2867 35.9938 25.0636ZM14.2507 25.2824L12.9945 24.8305L14.3255 16.7199L17.0974 18.2017L14.2507 25.2824ZM18.2796 26.6464C18.0353 26.8906 17.6378 26.8906 17.3935 26.6462C17.1491 26.4019 17.1491 26.0043 17.3935 25.7599L17.9048 25.2486C18.0232 25.1303 18.1806 25.0651 18.348 25.0651C18.5154 25.0651 18.6728 25.1303 18.7911 25.2486C19.0355 25.493 19.0355 25.8906 18.7911 26.1349L18.2798 26.6463C18.2797 26.6463 18.2797 26.6463 18.2796 26.6464ZM19.829 28.1955C19.5847 28.44 19.187 28.44 18.9427 28.1955C18.6984 27.9512 18.6984 27.5539 18.9424 27.3095C18.9425 27.3094 18.9426 27.3093 18.9427 27.3092L20.0916 26.1603C20.21 26.0419 20.3674 25.9767 20.5348 25.9767C20.7022 25.9767 20.8596 26.0419 20.9779 26.1603C21.2223 26.4046 21.2223 26.8022 20.9779 27.0466L19.829 28.1955ZM21.3783 29.7448C21.134 29.9891 20.7363 29.9893 20.492 29.7448C20.2476 29.5005 20.2476 29.1028 20.492 28.8585L21.6409 27.7096C21.763 27.5874 21.9235 27.5263 22.084 27.5263C22.2445 27.5263 22.405 27.5874 22.5272 27.7096C22.6456 27.8279 22.7108 27.9853 22.7108 28.1527C22.7108 28.3201 22.6456 28.4775 22.5273 28.5959L21.3783 29.7448ZM23.5901 30.6315L23.1852 31.0364C22.9409 31.2808 22.5432 31.2807 22.2989 31.0364C22.0545 30.7921 22.0545 30.3945 22.2988 30.1501L22.7037 29.7452C22.8258 29.6231 22.9863 29.5619 23.1468 29.5619C23.3073 29.5619 23.4678 29.6231 23.59 29.7452C23.8344 29.9895 23.8344 30.3872 23.5901 30.6315ZM25.2627 31.3508C25.0183 31.5952 24.6207 31.5952 24.3763 31.3508L24.2856 31.2601C24.5601 30.9689 24.7111 30.5903 24.7111 30.1883C24.7111 30.0847 24.701 29.9827 24.6815 29.8833L25.2626 30.4644C25.5071 30.7088 25.5071 31.1065 25.2627 31.3508ZM30.6976 27.4902C30.4532 27.7345 30.0556 27.7346 29.8113 27.4902L26.7813 24.4601C26.5982 24.2772 26.3014 24.2771 26.1183 24.4601C25.9353 24.6432 25.9353 24.94 26.1183 25.1231L29.1483 28.1531C29.2667 28.2715 29.3319 28.4289 29.3319 28.5963C29.3319 28.7637 29.2667 28.9211 29.1483 29.0394C28.9039 29.2837 28.5063 29.2838 28.2619 29.0394L26.069 26.8464C25.8859 26.6634 25.5891 26.6634 25.406 26.8464C25.223 27.0295 25.223 27.3263 25.406 27.5094L27.3617 29.4651C27.4801 29.5835 27.5453 29.7409 27.5453 29.9083C27.5453 30.0757 27.4801 30.2331 27.3617 30.3514C27.2434 30.4698 27.0859 30.535 26.9186 30.535C26.7512 30.535 26.5938 30.4698 26.4754 30.3514L25.0665 28.9425C24.8834 28.7595 24.5866 28.7595 24.4035 28.9425C24.351 28.995 24.3141 29.0571 24.2917 29.123C24.2789 29.1093 24.2662 29.0956 24.2529 29.0823C24.057 28.8865 23.8183 28.7493 23.5579 28.6789C23.6172 28.5123 23.6482 28.3349 23.6482 28.1528C23.6482 27.735 23.4855 27.3421 23.19 27.0466C22.8886 26.7452 22.4938 26.593 22.0979 26.5895C22.0943 26.1936 21.9422 25.7988 21.6408 25.4974C21.3453 25.2019 20.9525 25.0392 20.5347 25.0392C20.2871 25.0392 20.0486 25.0968 19.8337 25.2047C19.7598 24.9783 19.6336 24.7654 19.4539 24.5857C19.1585 24.2903 18.7657 24.1276 18.3478 24.1276C17.93 24.1276 17.5372 24.2903 17.2418 24.5857L16.7304 25.097C16.6572 25.1702 16.5931 25.249 16.5374 25.332L15.5542 24.5533L17.5325 19.6325C18.4337 20.0169 19.46 20.0462 20.3835 19.7067C21.2074 19.4038 22.0971 19.3768 22.9249 19.6152L21.7326 20.2747C21.2992 20.5145 20.9856 20.9285 20.8723 21.4107C20.759 21.8929 20.8554 22.4033 21.1367 22.8109C21.5917 23.4703 22.4348 23.7386 23.1873 23.4634L25.7569 22.5232C26.1395 22.3834 26.5726 22.479 26.8606 22.767L30.6975 26.6038C30.942 26.8482 30.942 27.2458 30.6976 27.4902ZM31.1062 25.6865L27.5237 22.1041C26.9787 21.559 26.1587 21.3781 25.4349 21.6428L22.8653 22.5829C22.5142 22.7114 22.1208 22.5862 21.9084 22.2785C21.7752 22.0855 21.7314 21.8535 21.7851 21.6252C21.8387 21.3969 21.9813 21.2086 22.1865 21.095L24.2268 19.9663C25.2661 19.3914 26.5016 19.2967 27.6164 19.7067C28.5398 20.0462 29.5662 20.0168 30.4673 19.6325L32.5848 24.8996L31.1062 25.6865ZM33.7493 25.2824L30.9026 18.2017L33.6745 16.7199L35.0055 24.8305L33.7493 25.2824Z" fill="white"/>
<defs>
<linearGradient id="paint0_linear_215_1158" x1="20.5" y1="51.5" x2="0.298077" y2="23.5436" gradientUnits="userSpaceOnUse">
<stop stop-color="#20B4C5"/>
<stop offset="1" stop-color="#0B89CB"/>
</linearGradient>
</defs>
</svg>
