<svg width="48" height="48" viewBox="0 0 48 48" fill="none" xmlns="http://www.w3.org/2000/svg">
<circle cx="24" cy="24" r="24" fill="url(#paint0_linear_215_1137)"/>
<circle cx="24" cy="24" r="23.5" stroke="white" stroke-opacity="0.5"/>
<g clip-path="url(#clip0_215_1137)">
<path d="M24 19.5C21.519 19.5 19.5 21.519 19.5 24C19.5 26.481 21.519 28.5 24 28.5C26.481 28.5 28.5 26.481 28.5 24C28.5 21.519 26.481 19.5 24 19.5ZM24 27C22.3455 27 21 25.6545 21 24C21 22.3455 22.3455 21 24 21C25.6545 21 27 22.3455 27 24C27 25.6545 25.6545 27 24 27Z" fill="white"/>
<path d="M35.25 23.25H32.9625C32.5995 18.885 29.115 15.4005 24.75 15.0375V12.75C24.75 12.336 24.414 12 24 12C23.586 12 23.25 12.336 23.25 12.75V15.0375C18.885 15.4005 15.4005 18.8865 15.0375 23.25H12.75C12.336 23.25 12 23.586 12 24C12 24.414 12.336 24.75 12.75 24.75H15.0375C15.4005 29.115 18.885 32.5995 23.25 32.9625V35.25C23.25 35.664 23.586 36 24 36C24.414 36 24.75 35.664 24.75 35.25V32.9625C29.115 32.5995 32.5995 29.115 32.9625 24.75H35.25C35.664 24.75 36 24.4155 36 24C36 23.5875 35.664 23.25 35.25 23.25ZM24 31.5C19.8645 31.5 16.5 28.1355 16.5 24C16.5 19.8645 19.8645 16.5 24 16.5C28.1355 16.5 31.5 19.8645 31.5 24C31.5 28.1355 28.1355 31.5 24 31.5Z" fill="white"/>
</g>
<defs>
<linearGradient id="paint0_linear_215_1137" x1="20.5" y1="51.5" x2="0.298077" y2="23.5436" gradientUnits="userSpaceOnUse">
<stop stop-color="#20B4C5"/>
<stop offset="1" stop-color="#0B89CB"/>
</linearGradient>
<clipPath id="clip0_215_1137">
<rect width="24" height="24" fill="white" transform="translate(12 12)"/>
</clipPath>
</defs>
</svg>
