<svg width="48" height="48" viewBox="0 0 48 48" fill="none" xmlns="http://www.w3.org/2000/svg">
<circle cx="24" cy="24" r="24" fill="url(#paint0_linear_215_1128)"/>
<circle cx="24" cy="24" r="23.5" stroke="white" stroke-opacity="0.5"/>
<g clip-path="url(#clip0_215_1128)">
<path d="M21.614 35.9432C21.9312 36.079 22.3011 35.9647 22.4857 35.6713L30.9231 22.2652C31.0595 22.0485 31.0673 21.7748 30.9436 21.5507C30.8198 21.3266 30.5841 21.1875 30.328 21.1875H24.6956L26.7911 12.8751C26.8756 12.5398 26.7038 12.1928 26.3859 12.0568C26.068 11.9207 25.6984 12.0361 25.5142 12.3287L17.0768 25.7349C16.9404 25.9515 16.9326 26.2252 17.0564 26.4493C17.1801 26.6734 17.4158 26.8125 17.6719 26.8125H23.3043L21.2088 35.125C21.1243 35.4603 21.2961 35.8072 21.614 35.9432ZM18.9452 25.4063L24.3446 16.8273L23.1114 21.7188C23.0585 21.929 23.1054 22.1519 23.2386 22.3229C23.3718 22.4938 23.5765 22.5938 23.7932 22.5938H29.0548L23.6554 31.1728L24.8885 26.2812C24.9415 26.0711 24.8946 25.8482 24.7613 25.6772C24.6281 25.5063 24.4235 25.4063 24.2067 25.4063H18.9452Z" fill="white"/>
</g>
<defs>
<linearGradient id="paint0_linear_215_1128" x1="20.5" y1="51.5" x2="0.298077" y2="23.5436" gradientUnits="userSpaceOnUse">
<stop stop-color="#20B4C5"/>
<stop offset="1" stop-color="#0B89CB"/>
</linearGradient>
<clipPath id="clip0_215_1128">
<rect width="24" height="24" fill="white" transform="translate(12 12)"/>
</clipPath>
</defs>
</svg>
