<svg width="48" height="48" viewBox="0 0 48 48" fill="none" xmlns="http://www.w3.org/2000/svg">
<circle cx="24" cy="24" r="24" fill="url(#paint0_linear_215_1151)"/>
<circle cx="24" cy="24" r="23.5" stroke="white" stroke-opacity="0.5"/>
<path d="M28.2591 22.2276C28.5992 21.8875 28.5992 21.3361 28.2591 20.996C27.919 20.6559 27.3677 20.6559 27.0276 20.996L22.9988 25.0248L21.2923 23.3183C20.9522 22.9782 20.4008 22.9782 20.0607 23.3183C19.7206 23.6584 19.7206 24.2098 20.0607 24.5499L22.383 26.8721C22.5463 27.0355 22.7678 27.1272 22.9988 27.1272C23.2297 27.1272 23.4513 27.0355 23.6145 26.8721L28.2591 22.2276Z" fill="white"/>
<path fill-rule="evenodd" clip-rule="evenodd" d="M26.6266 12.5823C25.0738 11.8059 23.2462 11.8059 21.6934 12.5823L15.7651 15.5464C14.6833 16.0873 14 17.193 14 18.4024V27.1655C14 29.0672 14.9796 30.8347 16.5922 31.8426L22.4676 35.5147C23.503 36.1618 24.817 36.1618 25.8523 35.5147L31.7277 31.8426C33.3403 30.8347 34.32 29.0672 34.32 27.1655V18.4024C34.32 17.193 33.6366 16.0873 32.5548 15.5464L26.6266 12.5823ZM22.4724 14.1401C23.5347 13.6089 24.7853 13.6089 25.8476 14.1401L31.7759 17.1043C32.2676 17.3501 32.5782 17.8527 32.5782 18.4024V27.1655C32.5782 28.4667 31.9079 29.676 30.8046 30.3656L24.9292 34.0377C24.4586 34.3318 23.8613 34.3318 23.3907 34.0377L17.5154 30.3656C16.412 29.676 15.7417 28.4667 15.7417 27.1655V18.4024C15.7417 17.8527 16.0523 17.3501 16.544 17.1043L22.4724 14.1401Z" fill="white"/>
<defs>
<linearGradient id="paint0_linear_215_1151" x1="20.5" y1="51.5" x2="0.298077" y2="23.5436" gradientUnits="userSpaceOnUse">
<stop stop-color="#20B4C5"/>
<stop offset="1" stop-color="#0B89CB"/>
</linearGradient>
</defs>
</svg>
