<svg width="48" height="48" viewBox="0 0 48 48" fill="none" xmlns="http://www.w3.org/2000/svg">
<circle cx="24" cy="24" r="24" fill="url(#paint0_linear_215_1144)"/>
<circle cx="24" cy="24" r="23.5" stroke="white" stroke-opacity="0.5"/>
<path d="M35.1736 13.68C35.1596 13.3529 34.9043 13.0872 34.578 13.0601L34.5577 13.0584C32.3464 12.8761 30.1533 13.1213 28.0394 13.7871C25.8789 14.4677 23.905 15.5527 22.1725 17.012C21.872 17.2652 21.5821 17.5282 21.3015 17.7993C20.6131 17.3852 19.8094 17.1885 18.9987 17.2428C18.0445 17.3069 17.1461 17.7149 16.4692 18.3918L13.1904 21.6706C12.9365 21.9245 12.9365 22.3361 13.1904 22.59L13.5758 22.9754C14.6336 24.0331 16.0227 24.6248 17.4872 24.6638L17.2419 26.2663C17.2106 26.4709 17.2785 26.6781 17.4248 26.8244L20.9525 30.352C21.0753 30.4748 21.241 30.5424 21.4121 30.5424C21.4448 30.5424 21.4777 30.54 21.5105 30.5349L23.1135 30.2895C23.1526 31.7541 23.744 33.1435 24.8014 34.201L25.1869 34.5865C25.3138 34.7134 25.4802 34.7769 25.6465 34.7769C25.8129 34.7769 25.9793 34.7134 26.1062 34.5864L29.3849 31.3077C30.6467 30.0459 30.8981 28.1317 30.053 26.6056C30.3835 26.2825 30.7024 25.9458 31.0079 25.5943C32.4373 23.9496 33.5254 22.0723 34.2421 20.0146C34.953 17.9737 35.2664 15.8424 35.1736 13.68ZM33.889 14.3178C33.8983 15.7638 33.7098 17.1916 33.3274 18.5806L29.4823 14.7356C30.925 14.3881 32.4011 14.2477 33.889 14.3178ZM14.5702 22.1294L17.3885 19.3112C18.1806 18.5191 19.382 18.3258 20.3684 18.7749C19.4149 19.8558 18.6032 21.0543 17.9442 22.3583L17.8416 22.5614C17.8106 22.6226 17.7896 22.6884 17.7792 22.7562L17.686 23.365C16.527 23.3754 15.419 22.9403 14.5702 22.1294ZM18.5769 26.1378L18.85 24.3541C18.8717 24.3243 18.8913 24.293 18.9078 24.2599L23.521 28.8731C23.4902 28.8881 23.461 28.9058 23.433 28.9253L21.6391 29.1999L18.5769 26.1378ZM28.4656 30.3884L25.6474 33.2066C24.8368 32.3581 24.4015 31.2497 24.4119 30.0908L25.0206 29.9976C25.0885 29.9873 25.1542 29.9662 25.2154 29.9352L25.8317 29.6239C26.9893 29.0389 28.0645 28.3319 29.0489 27.5122C29.4464 28.482 29.2372 29.6168 28.4656 30.3884ZM25.2453 28.4634L25.0491 28.5626L19.2166 22.73C21.0774 19.187 24.2727 16.4485 28.0579 15.1497L32.8761 19.9679C31.4817 23.6678 28.7851 26.6747 25.2453 28.4634Z" fill="white"/>
<path d="M24.5341 19.8366C23.5238 20.847 23.5238 22.491 24.5341 23.5014C25.0393 24.0066 25.7029 24.2591 26.3665 24.2591C27.0301 24.2591 27.6937 24.0066 28.1989 23.5014C29.2092 22.491 29.2092 20.847 28.1989 19.8366C27.1885 18.8263 25.5445 18.8263 24.5341 19.8366ZM27.2795 22.582C26.7761 23.0854 25.9569 23.0854 25.4535 22.582C24.9501 22.0785 24.9501 21.2594 25.4535 20.7559C25.7052 20.5042 26.0358 20.3784 26.3665 20.3784C26.6972 20.3784 27.0278 20.5042 27.2795 20.7559C27.783 21.2594 27.783 22.0786 27.2795 22.582Z" fill="white"/>
<path d="M18.3358 29.6206C18.082 29.3667 17.6703 29.3667 17.4164 29.6206L15.3247 31.7124C15.0708 31.9662 15.0708 32.3778 15.3247 32.6317C15.4516 32.7587 15.618 32.8221 15.7843 32.8221C15.9507 32.8221 16.1171 32.7587 16.244 32.6317L18.3357 30.5399C18.5897 30.2861 18.5897 29.8744 18.3358 29.6206Z" fill="white"/>
<path d="M16.4738 27.7585C16.2199 27.5046 15.8083 27.5046 15.5544 27.7585L13.4626 29.8503C13.2087 30.1042 13.2087 30.5158 13.4626 30.7697C13.5896 30.8966 13.7559 30.9601 13.9223 30.9601C14.0886 30.9601 14.255 30.8966 14.3819 30.7697L16.4737 28.6779C16.7276 28.424 16.7276 28.0124 16.4738 27.7585Z" fill="white"/>
<path d="M19.2783 31.4829L17.1865 33.5747C16.9326 33.8286 16.9326 34.2402 17.1865 34.4941C17.3134 34.621 17.4798 34.6845 17.6462 34.6845C17.8125 34.6845 17.9789 34.621 18.1058 34.4941L20.1976 32.4023C20.4515 32.1484 20.4515 31.7368 20.1976 31.4829C19.9438 31.229 19.5322 31.229 19.2783 31.4829Z" fill="white"/>
<defs>
<linearGradient id="paint0_linear_215_1144" x1="20.5" y1="51.5" x2="0.298077" y2="23.5436" gradientUnits="userSpaceOnUse">
<stop stop-color="#20B4C5"/>
<stop offset="1" stop-color="#0B89CB"/>
</linearGradient>
</defs>
</svg>
