<svg width="48" height="48" viewBox="0 0 48 48" fill="none" xmlns="http://www.w3.org/2000/svg">
<circle cx="24" cy="24" r="24" fill="url(#paint0_linear_311_613)"/>
<circle cx="24" cy="24" r="23.5" stroke="white" stroke-opacity="0.5"/>
<path d="M31.0854 21.0791L26.5854 18.8291C26.3745 18.7236 26.1255 18.7236 25.9146 18.8291L21.4146 21.0791C21.1604 21.2065 21 21.4658 21 21.75V27C21 27.2842 21.1604 27.5435 21.4146 27.6709L25.9146 29.9209C26.02 29.9736 26.135 30 26.25 30C26.365 30 26.48 29.9736 26.5854 29.9209L31.0854 27.6709C31.3396 27.5435 31.5 27.2842 31.5 27V21.75C31.5 21.4658 31.3396 21.2065 31.0854 21.0791ZM26.25 20.3386L29.0728 21.75L26.25 23.1614L23.4272 21.75L26.25 20.3386ZM22.5 22.9636L25.5 24.4636V28.0364L22.5 26.5364V22.9636ZM27 28.0364V24.4636L30 22.9636V26.5364L27 28.0364Z" fill="white"/>
<path d="M34.5 24C34.5 19.7015 31.1944 16.1647 26.9924 15.7876C26.9931 15.7744 27 15.7634 27 15.75C27 14.5093 25.9907 13.5 24.75 13.5H15.75C14.5093 13.5 13.5 14.5093 13.5 15.75V32.25C13.5 33.4907 14.5093 34.5 15.75 34.5H24.75C25.9907 34.5 27 33.4907 27 32.25C27 32.2367 26.9931 32.2256 26.9924 32.2124C31.1944 31.8353 34.5 28.2985 34.5 24ZM24.75 33H15.75C15.3365 33 15 32.6638 15 32.25V15.75C15 15.3362 15.3365 15 15.75 15H18.75C18.75 15.8269 19.4227 16.5 20.25 16.5C21.0773 16.5 21.75 15.8269 21.75 15H24.75C25.1638 15 25.5 15.3362 25.5 15.75C25.5 15.7633 25.5069 15.7744 25.5076 15.7876C21.3056 16.1647 18 19.7015 18 24C18 28.2985 21.3056 31.8353 25.5076 32.2124C25.5069 32.2256 25.5 32.2367 25.5 32.25C25.5 32.6638 25.1638 33 24.75 33ZM26.25 30.75C22.5282 30.75 19.5 27.7222 19.5 24C19.5 20.2778 22.5282 17.25 26.25 17.25C29.9722 17.25 33 20.2778 33 24C33 27.7222 29.9722 30.75 26.25 30.75Z" fill="white"/>
<defs>
<linearGradient id="paint0_linear_311_613" x1="20.5" y1="51.5" x2="0.298077" y2="23.5436" gradientUnits="userSpaceOnUse">
<stop stop-color="#20B4C5"/>
<stop offset="1" stop-color="#0B89CB"/>
</linearGradient>
</defs>
</svg>
