<svg width="395" height="108" viewBox="0 0 395 108" fill="none" xmlns="http://www.w3.org/2000/svg">
<g opacity="0.5">
<path d="M1.05859 10.8349C2.98348 10.0722 5.01056 9.59954 7.14647 9.43837C5.4301 7.5492 3.70791 5.64259 1.97493 3.70108C-0.962672 2.72326 -3.68926 2.34277 -6.22477 2.50145C-3.78313 5.32357 -1.3523 8.11329 1.05776 10.8341M14.9092 17.6655C16.8133 17.0333 18.7972 16.6254 20.8641 16.4551C18.9284 14.4446 16.9811 12.3976 15.0238 10.3182C12.3537 9.6552 9.83401 9.41594 7.45053 9.56382C9.95281 12.3162 12.4401 15.0203 14.9092 17.6655ZM9.45933 20.191C11.1566 19.1675 12.9211 18.3367 14.7588 17.7137C12.2806 15.0577 9.78416 12.3419 7.27275 9.57794C5.12853 9.72914 3.09564 10.196 1.16493 10.9554C3.9505 14.099 6.71447 17.1762 9.46016 20.1902L9.45933 20.191ZM4.56112 23.8315C6.09139 22.4682 7.67982 21.2727 9.33471 20.2641C6.58487 17.2443 3.81508 14.1605 1.0237 11.0102C-0.789871 11.7388 -2.51206 12.7257 -4.15116 13.9511C-1.22353 17.3199 1.67751 20.6047 4.56112 23.8315ZM28.9201 24.4936C30.7677 23.9594 32.6719 23.5855 34.64 23.3953C32.4617 21.2793 30.2751 19.1343 28.0719 16.9344C25.6743 16.5282 23.3822 16.4218 21.1815 16.578C23.7785 19.273 26.3572 21.9074 28.9201 24.4927V24.4936ZM23.4204 26.6486C25.1459 25.7871 26.9263 25.0784 28.7639 24.5376C26.1919 21.9415 23.6048 19.2979 20.9979 16.593C18.9226 16.755 16.9321 17.1571 15.0213 17.7859C17.8418 20.8066 20.6415 23.76 23.4204 26.6494V26.6486ZM18.2987 29.754C19.9104 28.5951 21.5728 27.5807 23.2875 26.7159C20.5027 23.8207 17.6981 20.8615 14.8718 17.8341C13.03 18.4522 11.2621 19.2805 9.56152 20.3032C12.4966 23.5241 15.4093 26.6777 18.2987 29.754ZM13.5276 33.7226C15.033 32.2945 16.584 30.9985 18.1841 29.8387C15.2913 26.7574 12.3745 23.6013 9.4369 20.3763C7.78035 21.3832 6.19025 22.5778 4.65831 23.9403C7.63745 27.2733 10.595 30.5383 13.5276 33.7226ZM9.07635 38.4738C10.4837 36.8031 11.93 35.2437 13.4238 33.819C10.4903 30.6338 7.53195 27.368 4.55198 24.0333C3.05078 25.3792 1.60856 26.892 0.218682 28.5536C3.19367 31.9323 6.14788 35.2437 9.07635 38.4738ZM4.90588 43.9211C6.22681 42.0328 7.58512 40.25 8.9833 38.5826C6.05484 35.3526 3.10062 32.0411 0.125637 28.6632C-1.24264 30.3073 -2.55858 32.0993 -3.82883 34.0242C-0.895379 37.3938 2.0173 40.6961 4.90588 43.9211ZM0.987975 49.994C2.23164 47.9105 3.50936 45.9258 4.82281 44.0408C1.93505 40.8165 -0.976794 37.5159 -3.91024 34.1471C-5.16304 36.0546 -6.37098 38.0916 -7.53738 40.2483C-4.67455 43.5647 -1.83166 46.8147 0.987975 49.994ZM43.1038 31.2893C44.8617 30.8282 46.662 30.4867 48.5063 30.2741C46.0597 28.0817 43.5998 25.8486 41.1208 23.5498C39.004 23.3479 36.9578 23.3455 34.9714 23.5174C37.7013 26.1676 40.4146 28.7662 43.1038 31.2893ZM37.6415 33.1552C39.3645 32.4233 41.1308 31.8152 42.941 31.3316C40.2427 28.7995 37.5202 26.1917 34.782 23.5324C32.8056 23.7151 30.894 24.0815 29.0389 24.6132C31.9275 27.5259 34.7995 30.3854 37.6415 33.1552ZM32.3911 35.8278C34.0534 34.84 35.7548 33.966 37.5011 33.2175C34.6532 30.4427 31.7763 27.5757 28.8827 24.6572C27.0401 25.1956 25.2564 25.9001 23.5268 26.7599C26.5042 29.8537 29.4618 32.886 32.3911 35.8286V35.8278ZM27.3599 39.2547C28.955 38.026 30.5891 36.9053 32.264 35.9025C29.333 32.9575 26.373 29.9227 23.3938 26.8264C21.6766 27.6895 20.0126 28.7014 18.3984 29.8603C21.4091 33.0655 24.3982 36.2041 27.3599 39.2547ZM22.5556 43.382C24.0825 41.9314 25.646 40.5831 27.2469 39.3428C24.2844 36.2913 21.2945 33.151 18.2838 29.9459C16.6829 31.104 15.131 32.4008 13.6248 33.8298C16.6247 37.0872 19.6047 40.279 22.5556 43.3828V43.382ZM17.9739 48.1556C19.4327 46.5023 20.924 44.938 22.4517 43.4792C19.5008 40.3762 16.5209 37.1828 13.521 33.9261C12.0272 35.3517 10.58 36.9103 9.17189 38.5809C12.1269 41.84 15.0654 45.046 17.9731 48.1556H17.9739ZM13.5982 53.504C14.9931 51.668 16.4204 49.9218 17.8792 48.2627C14.9723 45.154 12.0339 41.948 9.07967 38.6898C7.68065 40.3579 6.32318 42.14 5.00225 44.03C7.88752 47.2517 10.7578 50.4244 13.5982 53.504ZM9.42278 59.3809C10.7578 57.3837 12.1195 55.4572 13.5127 53.6195C10.6731 50.5407 7.80444 47.3696 4.92001 44.1496C3.60656 46.0354 2.32884 48.021 1.08684 50.1045C3.8857 53.2598 6.66629 56.3586 9.42278 59.3809ZM5.41265 65.7288C6.69619 63.5838 8.00465 61.506 9.34053 59.5022C6.5857 56.4815 3.80595 53.3844 1.00958 50.2317C-0.226609 52.3102 -1.4279 54.4877 -2.60095 56.7432C0.0899143 59.798 2.76167 62.7954 5.41265 65.728V65.7288ZM1.55373 72.5046C2.79241 70.2274 4.05185 68.0085 5.33705 65.8559C2.68773 62.9258 0.0176363 59.9309 -2.67073 56.8778C-3.84046 59.1317 -4.98027 61.467 -6.0935 63.8762C-3.52643 66.8072 -0.976794 69.6841 1.55373 72.5038V72.5046ZM57.5277 38.0119C59.1493 37.6114 60.7992 37.2924 62.4782 37.0606C59.7284 34.825 56.9594 32.5313 54.1689 30.1669C52.3511 30.1195 50.5758 30.1952 48.8386 30.3812C51.7571 32.994 54.6557 35.5428 57.5285 38.0127L57.5277 38.0119ZM52.1983 39.6535C53.8856 39.0271 55.6053 38.4937 57.3573 38.0534C54.4787 35.5777 51.5752 33.0223 48.6509 30.4037C46.7999 30.6105 44.9938 30.9495 43.2301 31.4081C46.2441 34.2344 49.2332 36.98 52.1991 39.6526L52.1983 39.6535ZM46.8739 41.9755C48.5653 41.1256 50.2883 40.3663 52.0454 39.7075C49.0762 37.0307 46.0838 34.28 43.0656 31.4504C41.252 31.9298 39.4808 32.5346 37.7537 33.264C40.8192 36.249 43.859 39.1508 46.873 41.9755H46.8739ZM41.6458 44.9563C43.3115 43.8937 45.0088 42.9209 46.7401 42.0452C43.7236 39.2181 40.6821 36.3146 37.6149 33.3271C35.867 34.074 34.1631 34.948 32.4982 35.9349C35.5729 39.0221 38.6227 42.0311 41.6458 44.9563ZM36.5482 48.5535C38.1749 47.2916 39.8323 46.1177 41.522 45.0344C38.498 42.1076 35.4475 39.0977 32.3711 36.0089C30.6946 37.0108 29.0588 38.129 27.4621 39.3585C30.5168 42.5038 33.545 45.5685 36.5491 48.5535H36.5482ZM31.606 52.7348C33.1861 51.2884 34.7953 49.9209 36.4361 48.6424C33.432 45.6566 30.4039 42.5919 27.3491 39.4466C25.7466 40.6861 24.1831 42.0344 22.6561 43.4858C25.6652 46.6485 28.6468 49.7257 31.6068 52.7348H31.606ZM26.8141 57.4469C28.3485 55.831 29.9104 54.2908 31.5013 52.8303C28.5421 49.8221 25.5605 46.7457 22.5514 43.583C21.0228 45.0418 19.5316 46.6053 18.0719 48.2594C21.0112 51.4014 23.9214 54.452 26.8141 57.4469ZM22.1709 62.6541C23.6605 60.8829 25.175 59.1799 26.7169 57.5507C23.8258 54.5566 20.9165 51.5077 17.978 48.3666C16.5192 50.0256 15.0911 51.7736 13.6954 53.6096C16.5441 56.6975 19.3671 59.7057 22.1709 62.6541ZM17.6665 68.3067C19.1137 66.3968 20.5833 64.5458 22.0787 62.7638C19.2765 59.8171 16.4552 56.8113 13.609 53.7259C12.2158 55.5644 10.855 57.4909 9.51998 59.4889C12.254 62.4863 14.974 65.438 17.6665 68.3067ZM13.3008 74.3422C14.7056 72.3127 16.1312 70.3371 17.5801 68.4213C14.8892 65.5544 12.171 62.6051 9.43856 59.6102C8.10352 61.614 6.79505 63.6926 5.51152 65.8385C8.12595 68.7296 10.7238 71.5683 13.3008 74.3431V74.3422ZM9.04312 80.7458C10.4155 78.6033 11.8054 76.5047 13.2177 74.4619C10.6432 71.6896 8.04786 68.8542 5.43591 65.9656C4.15155 68.1181 2.89127 70.3379 1.65342 72.6151C4.13327 75.3774 6.59733 78.089 9.04312 80.7458ZM4.87432 87.4751C6.22016 85.2311 7.58345 83.0279 8.96419 80.8688C6.52007 78.2145 4.05933 75.5045 1.58114 72.7463C0.339975 75.0326 -0.877102 77.3787 -2.07673 79.773C0.254406 82.3833 2.57308 84.957 4.87432 87.4751ZM72.2464 44.6223C73.6928 44.2734 75.1549 43.971 76.6378 43.7292C73.5225 41.4903 70.3846 39.1824 67.2178 36.7823C65.7315 36.8405 64.2702 36.9734 62.828 37.1628C65.994 39.7324 69.1335 42.2205 72.2456 44.6231L72.2464 44.6223ZM67.1397 46.0894C68.7588 45.5478 70.4013 45.0726 72.0669 44.6655C68.9499 42.2579 65.8054 39.7631 62.6344 37.1877C60.9488 37.4162 59.293 37.7311 57.6656 38.1298C60.8507 40.8664 64.0101 43.5232 67.1405 46.0894H67.1397ZM61.8153 48.134C63.5109 47.3962 65.2322 46.7316 66.9793 46.1426C63.8456 43.5714 60.6829 40.9112 57.4944 38.1705C55.7373 38.6075 54.0135 39.1392 52.3212 39.764C55.5139 42.6392 58.6783 45.4315 61.8153 48.134ZM56.4352 50.7484C58.1532 49.8221 59.8987 48.9722 61.669 48.1971C58.5312 45.4913 55.3635 42.6974 52.1692 39.8196C50.408 40.4768 48.6808 41.2327 46.986 42.081C50.1637 45.0576 53.3132 47.9445 56.4344 50.7484H56.4352ZM51.0933 53.9178C52.8039 52.8129 54.5385 51.7769 56.3023 50.8207C53.1802 48.016 50.03 45.1266 46.8523 42.1499C45.1193 43.0239 43.4204 43.9976 41.753 45.0601C44.8941 48.0991 48.007 51.0483 51.0942 53.9178H51.0933ZM45.8196 57.6014C47.5102 56.3287 49.2274 55.1282 50.9696 53.9984C47.8824 51.128 44.7704 48.178 41.6284 45.139C39.9369 46.2215 38.2779 47.3946 36.6504 48.6565C39.7334 51.7204 42.7898 54.702 45.8196 57.6014ZM40.6414 61.7727C42.3046 60.3454 43.9911 58.9797 45.7033 57.687C42.6752 54.7884 39.6196 51.8076 36.5383 48.7446C34.8967 50.0223 33.2883 51.3906 31.7073 52.8369C34.7089 55.8867 37.6914 58.8783 40.6423 61.7727H40.6414ZM35.5746 66.3777C37.2045 64.8117 38.8569 63.308 40.5334 61.8657C37.5842 58.973 34.6026 55.9814 31.6027 52.9325C30.0117 54.393 28.4491 55.9332 26.9146 57.5491C29.824 60.5614 32.7142 63.5115 35.5754 66.3777H35.5746ZM30.6157 71.3922C32.2133 69.6991 33.83 68.0558 35.4716 66.4757C32.612 63.612 29.7243 60.6636 26.8166 57.6529C25.2747 59.2821 23.7602 60.986 22.2706 62.7572C25.0753 65.7056 27.8559 68.5784 30.6165 71.3913L30.6157 71.3922ZM25.7432 76.783C27.3142 74.9703 28.906 73.2074 30.5177 71.496C27.7587 68.6847 24.9806 65.8136 22.1776 62.8668C20.6814 64.6497 19.2117 66.5006 17.7637 68.4114C20.4446 71.2659 23.1022 74.0515 25.7432 76.7822V76.783ZM20.9746 82.4996C22.5157 80.5871 24.0726 78.7146 25.651 76.891C23.0125 74.1628 20.3565 71.3797 17.6781 68.5269C16.2293 70.4434 14.8037 72.419 13.3988 74.4486C15.9418 77.186 18.4682 79.8735 20.9746 82.4996ZM16.2824 88.5135C17.7994 86.5089 19.333 84.5391 20.8841 82.6109C18.3801 79.9873 15.8554 77.3023 13.3149 74.5674C11.9035 76.6111 10.5136 78.7096 9.14198 80.8522C11.5379 83.4541 13.9189 86.0096 16.2824 88.5127V88.5135ZM11.6509 94.7983C13.1504 92.7106 14.6658 90.6527 16.196 88.6282C13.835 86.1275 11.4565 83.5746 9.06306 80.9759C7.68232 83.1359 6.31902 85.34 4.97235 87.5839C7.21376 90.0363 9.4369 92.4314 11.6509 94.7983ZM87.4013 51.0524C88.6184 50.7584 89.8454 50.4925 91.0824 50.2574C87.511 48.0741 83.9062 45.787 80.2675 43.3969C79.1725 43.5074 78.0884 43.652 77.0125 43.8206C80.5067 46.327 83.971 48.7421 87.4013 51.0524ZM82.5845 52.3775C84.1106 51.904 85.6542 51.4803 87.211 51.0998C83.7766 48.7853 80.3065 46.3636 76.8073 43.8505C75.3177 44.0898 73.8481 44.3888 72.3951 44.7361C75.8237 47.3813 79.2199 49.9251 82.5853 52.3775H82.5845ZM77.3099 54.216C78.9931 53.5655 80.6945 52.9699 82.4158 52.4324C79.0471 49.9758 75.6484 47.4286 72.2157 44.7793C70.545 45.1839 68.8976 45.6574 67.2726 46.1983C70.6488 48.9656 73.996 51.6398 77.3099 54.216ZM71.8277 56.558C73.5831 55.7388 75.3585 54.9762 77.1554 54.2775C73.8398 51.698 70.491 49.0212 67.1131 46.2514C65.3618 46.8388 63.6371 47.5034 61.9374 48.2395C65.2646 51.1056 68.5619 53.8796 71.8277 56.558ZM66.2657 59.3809C68.0502 58.4023 69.8563 57.4826 71.6848 56.6261C68.4182 53.9468 65.1201 51.1704 61.7912 48.3026C60.0175 49.0769 58.2704 49.9259 56.5498 50.8522C59.8181 53.7857 63.0581 56.6302 66.2657 59.3809ZM60.6937 62.6616C62.4849 61.5334 64.2968 60.4634 66.1311 59.454C62.9227 56.7033 59.6843 53.858 56.4161 50.9237C54.6507 51.8782 52.9144 52.915 51.2022 54.0191C54.394 56.985 57.5592 59.8702 60.6937 62.6608V62.6616ZM55.1583 66.3743C56.9411 65.1074 58.7439 63.8945 60.5691 62.7414C57.4354 59.9508 54.271 57.0656 51.0792 54.0997C49.3354 55.2287 47.6174 56.43 45.926 57.7019C49.0297 60.6711 52.1102 63.573 55.1583 66.3735V66.3743ZM49.6902 70.4717C51.4531 69.0818 53.2359 67.7418 55.0395 66.4574C51.9922 63.6569 48.9117 60.7558 45.8097 57.7875C44.0966 59.0793 42.4093 60.4451 40.7453 61.8724C43.7543 64.8216 46.7335 67.6786 49.691 70.4717H49.6902ZM44.2777 74.9437C46.0248 73.435 47.791 71.9729 49.5772 70.5622C46.6213 67.77 43.6438 64.9155 40.6364 61.9671C38.96 63.4093 37.3059 64.9138 35.6751 66.4798C38.5662 69.3734 41.434 72.1955 44.2777 74.9437ZM38.9384 79.7447C40.6639 78.133 42.406 76.5604 44.168 75.0368C41.3268 72.2902 38.4607 69.4689 35.5712 66.5779C33.9296 68.158 32.3121 69.8004 30.7146 71.4935C33.476 74.3074 36.2201 77.0638 38.9384 79.7447ZM33.6638 84.8457C35.371 83.1393 37.094 81.4702 38.8345 79.8419C36.1179 77.1635 33.3772 74.4087 30.6174 71.5974C29.0057 73.3088 27.4139 75.0708 25.8429 76.8844C28.4707 79.601 31.0751 82.2487 33.6638 84.8457ZM28.4449 90.2232C30.1355 88.4313 31.8411 86.67 33.5633 84.947C30.9771 82.3525 28.3751 79.7074 25.7499 76.9932C24.1714 78.8168 22.6137 80.6902 21.0727 82.6034C23.5467 85.1954 26.0058 87.7384 28.4449 90.2241V90.2232ZM23.2817 95.8343C24.9557 93.9708 26.643 92.1323 28.346 90.3262C25.9094 87.8439 23.4536 85.3034 20.9821 82.7139C19.4311 84.6421 17.8983 86.6119 16.3805 88.6165C18.6958 91.0673 20.9971 93.4757 23.2817 95.8343ZM18.1533 101.661C19.8182 99.7331 21.4955 97.824 23.187 95.9406C20.9048 93.5854 18.6069 91.1803 16.2941 88.732C14.7638 90.7566 13.2485 92.8152 11.7481 94.903C13.8973 97.2 16.0299 99.4439 18.1533 101.661ZM103.224 57.2068C104.148 56.9775 105.075 56.7607 106.007 56.5571C101.821 54.506 97.5915 52.3277 93.3172 50.0123C92.7016 50.1104 92.0893 50.2159 91.4787 50.3288C95.434 52.7422 99.3486 55.0318 103.224 57.2076V57.2068ZM98.7513 58.4272C100.164 58.0077 101.586 57.6164 103.018 57.2575C99.1409 55.0784 95.2255 52.7863 91.2677 50.3704C90.024 50.6047 88.7895 50.8688 87.5649 51.1629C91.3317 53.6976 95.061 56.1193 98.7513 58.4272ZM93.5498 60.1211C95.2089 59.5338 96.882 58.9871 98.5693 58.482C94.8766 56.17 91.1456 53.7475 87.3764 51.2095C85.8129 51.5883 84.2651 52.0128 82.7332 52.4864C86.3745 55.1382 89.9817 57.687 93.5498 60.122V60.1211ZM87.9646 62.2695C89.7549 61.5268 91.5601 60.8298 93.382 60.1809C89.813 57.7443 86.2041 55.1913 82.5612 52.5379C80.8357 53.0745 79.1301 53.6702 77.4437 54.3199C80.9853 57.0714 84.4944 59.729 87.9654 62.2695H87.9646ZM82.1973 64.8391C84.0516 63.9551 85.9217 63.1202 87.8092 62.3343C84.3391 59.793 80.8291 57.1345 77.2883 54.3813C75.4881 55.0792 73.7102 55.8418 71.9515 56.6601C75.4 59.4864 78.8161 62.2155 82.1965 64.8391H82.1973ZM76.3454 67.8124C78.2304 66.7972 80.1321 65.826 82.052 64.908C78.6716 62.2836 75.2563 59.5545 71.8086 56.7274C69.9784 57.5831 68.1706 58.5036 66.3837 59.4814C69.7366 62.3542 73.0581 65.1323 76.3454 67.8116V67.8124ZM70.4553 71.1621C72.3552 70.0231 74.2735 68.9306 76.2083 67.8863C72.921 65.2071 69.6004 62.4282 66.2482 59.5554C64.4131 60.5639 62.5987 61.6323 60.8059 62.7613C64.0508 65.6491 67.2701 68.4571 70.4544 71.1629L70.4553 71.1621ZM64.5933 74.8507C66.4875 73.6045 68.3974 72.3982 70.3248 71.2401C67.1422 68.5352 63.9246 65.728 60.6813 62.8411C58.8552 63.9942 57.0508 65.2079 55.2663 66.4749C58.4058 69.3576 61.5112 72.139 64.5933 74.8515V74.8507ZM58.7431 78.8641C60.6356 77.5133 62.5438 76.2007 64.4696 74.9321C61.3891 72.2213 58.2853 69.4407 55.1475 66.5588C53.3431 67.8431 51.5594 69.1815 49.7957 70.5722C52.8031 73.4109 55.7889 76.1849 58.7431 78.865V78.8641ZM52.9401 83.1584C54.8193 81.7187 56.7143 80.3146 58.6243 78.9489C55.6717 76.2705 52.6876 73.4974 49.6827 70.6611C47.8965 72.0717 46.1295 73.5339 44.3816 75.0426C47.2593 77.8223 50.1105 80.5232 52.9401 83.1584ZM47.1613 87.7293C49.0347 86.2031 50.9222 84.7078 52.8255 83.2473C49.9976 80.6137 47.1489 77.9146 44.2727 75.1365C42.5098 76.6609 40.7669 78.2327 39.0397 79.8453C41.7671 82.5336 44.4771 85.1722 47.1613 87.7293ZM41.4356 92.5228C43.2924 90.9277 45.1633 89.3584 47.0492 87.8198C44.3683 85.2644 41.66 82.6283 38.9359 79.9425C37.1954 81.5708 35.4716 83.239 33.7643 84.9462C36.3414 87.5307 38.8976 90.0546 41.4356 92.5228ZM35.7249 97.5398C37.5792 95.8758 39.4468 94.2317 41.3276 92.615C38.7921 90.1493 36.2384 87.6279 33.6646 85.0467C31.9416 86.7706 30.2352 88.5318 28.5438 90.3246C30.9538 92.7795 33.3489 95.1871 35.7249 97.5398ZM30.0475 102.733C31.8926 101.016 33.7485 99.3152 35.6186 97.6354C33.2451 95.2851 30.8533 92.88 28.4466 90.4284C26.7435 92.2354 25.0554 94.0739 23.3814 95.9364C25.6178 98.2443 27.8409 100.512 30.0483 102.733H30.0475ZM24.3816 108.086C26.2243 106.322 28.0777 104.567 29.9436 102.83C27.7388 100.613 25.5189 98.3473 23.2858 96.0428C21.5944 97.927 19.9171 99.8361 18.2514 101.764C20.3083 103.911 22.3496 106.013 24.3816 108.086V108.086ZM122.08 63.7541C125.976 64.7111 129.843 65.5834 133.678 66.3777C124.988 63.7159 116.118 60.5864 107.06 56.9061C112.13 59.3693 117.137 61.6506 122.08 63.7541ZM116.002 64.0465C117.131 63.7142 118.264 63.396 119.402 63.0936L119.417 63.0895L119.434 63.0936C120.021 63.2432 120.606 63.3894 121.192 63.5348C116.264 61.4204 111.273 59.1325 106.218 56.6601C105.278 56.8629 104.342 57.0822 103.41 57.3123C107.655 59.6916 111.853 61.938 116.002 64.0473V64.0465ZM110.834 65.6748C112.48 65.1224 114.135 64.599 115.799 64.1063C111.649 61.9937 107.449 59.744 103.205 57.3613C101.765 57.7202 100.336 58.109 98.9149 58.5294C102.933 61.04 106.905 63.4176 110.834 65.674V65.6748ZM105.113 67.726C106.947 67.0273 108.792 66.3627 110.649 65.7363C106.721 63.4783 102.748 61.0973 98.7313 58.585C97.0399 59.0893 95.3626 59.6351 93.6985 60.2217C97.545 62.8436 101.35 65.3442 105.113 67.7252V67.726ZM99.106 70.1518C101.04 69.3261 102.987 68.5385 104.945 67.79C101.182 65.4073 97.3772 62.9059 93.5307 60.2823C91.7055 60.9303 89.8961 61.6273 88.1025 62.3692C91.811 65.0817 95.4764 67.6678 99.106 70.1518ZM92.9326 72.9308C94.9247 71.9887 96.9294 71.0823 98.9482 70.2183C95.3194 67.7343 91.6548 65.1473 87.9463 62.434C86.0555 63.2199 84.1812 64.0557 82.3245 64.9388C85.8968 67.7094 89.4342 70.377 92.9317 72.9299L92.9326 72.9308ZM86.6951 76.0196C88.7114 74.977 90.7402 73.9692 92.7839 73.0014C89.2871 70.4476 85.7506 67.7792 82.1799 65.0077C80.2583 65.9257 78.3542 66.8952 76.4667 67.9113C79.9111 70.7159 83.3205 73.4193 86.6951 76.0204V76.0196ZM80.4087 79.4074C82.4441 78.2668 84.4919 77.161 86.5547 76.0927C83.1818 73.4924 79.7732 70.789 76.3305 67.9844C74.3939 69.0295 72.4749 70.1211 70.5724 71.2601C73.8838 74.0714 77.1621 76.7872 80.4087 79.4074ZM74.1297 83.0529C76.1643 81.8308 78.213 80.6403 80.2749 79.4839C77.03 76.8636 73.7518 74.1495 70.442 71.3382C68.5129 72.4963 66.6013 73.7034 64.7055 74.9495C67.8765 77.7384 71.0177 80.4401 74.1297 83.0529ZM67.8483 86.9442C69.8853 85.644 71.9365 84.373 73.9993 83.1318C70.8897 80.5207 67.7503 77.819 64.5809 75.0318C62.6552 76.3004 60.7452 77.613 58.8527 78.9638C61.8792 81.7078 64.8758 84.363 67.8483 86.945V86.9442ZM61.5702 91.059C63.6081 89.6891 65.6592 88.3424 67.7229 87.0248C64.752 84.4436 61.7579 81.7901 58.7339 79.0477C56.8223 80.4135 54.9265 81.8175 53.0465 83.2581C55.9101 85.924 58.7564 88.5393 61.5702 91.059ZM55.3228 95.3582C57.3524 93.931 59.3936 92.5245 61.4472 91.1421C58.6359 88.624 55.7913 86.0096 52.931 83.3469C51.0277 84.8066 49.1394 86.3028 47.266 87.829C49.9751 90.4093 52.6569 92.9075 55.322 95.3591L55.3228 95.3582ZM49.0754 99.8369C51.1066 98.3548 53.1487 96.8877 55.2032 95.4421C52.5397 92.993 49.8605 90.4966 47.1547 87.9187C45.268 89.4573 43.3971 91.0274 41.5395 92.6225C44.07 95.0824 46.5831 97.49 49.0762 99.8369H49.0754ZM42.8247 104.473C44.8584 102.943 46.9021 101.424 48.9583 99.9225C46.4684 97.5772 43.9579 95.173 41.4307 92.7155C39.549 94.3322 37.6814 95.9763 35.8263 97.6412C38.1749 99.9657 40.5085 102.245 42.8247 104.473V104.473ZM36.5856 109.228C38.6168 107.663 40.6572 106.105 42.7092 104.56C40.3955 102.335 38.0652 100.058 35.72 97.7367C33.8499 99.4157 31.994 101.117 30.1488 102.833C32.3072 105.004 34.4539 107.139 36.5856 109.228ZM30.3341 114.09C32.3695 112.494 34.4148 110.901 36.471 109.316C34.3434 107.231 32.1992 105.098 30.0441 102.931C28.1782 104.669 26.324 106.423 24.4813 108.188C26.4436 110.189 28.3942 112.156 30.3341 114.09ZM149.271 70.5705C152.524 70.6711 155.76 70.7342 158.978 70.7641C151.684 69.817 144.274 68.6307 136.746 67.1478C140.963 68.3939 145.139 69.5321 149.272 70.5714L149.271 70.5705ZM138.107 70.0754C141.619 70.2798 145.111 70.4368 148.582 70.549C144.162 69.4282 139.693 68.1929 135.176 66.8329C131.125 66.0146 127.038 65.1074 122.918 64.108C128.048 66.2755 133.111 68.2602 138.107 70.0754ZM129.665 70.6096C130.59 70.303 131.515 70.0015 132.443 69.7082L132.456 69.7049H132.468C134.184 69.8312 135.894 69.9442 137.6 70.0455C132.481 68.1771 127.293 66.1318 122.035 63.8928C121.165 63.6801 120.293 63.4617 119.419 63.239C118.34 63.5265 117.265 63.8289 116.194 64.1421C120.74 66.4499 125.23 68.6025 129.665 70.6079V70.6096ZM123.668 72.6965C125.591 71.9961 127.522 71.3224 129.461 70.6769C125.026 68.6681 120.536 66.5131 115.989 64.2019C114.318 64.6945 112.657 65.2187 111.004 65.772C115.277 68.2228 119.497 70.5274 123.667 72.6965H123.668ZM117.302 75.1198C119.353 74.3049 121.413 73.519 123.482 72.7638C119.312 70.5922 115.092 68.2859 110.819 65.8335C108.956 66.4599 107.105 67.1245 105.265 67.824C109.325 70.3903 113.337 72.8203 117.302 75.1207V75.1198ZM110.749 77.829C112.867 76.9193 114.994 76.0378 117.131 75.1871C113.168 72.8851 109.157 70.4542 105.098 67.8872C103.135 68.6357 101.185 69.4233 99.2481 70.249C103.125 72.9 106.96 75.4272 110.749 77.829ZM104.086 80.7948C106.244 79.8012 108.411 78.835 110.588 77.8979C106.8 75.4962 102.967 72.9665 99.0902 70.3155C97.069 71.1795 95.061 72.085 93.0655 73.0271C96.7807 75.7371 100.452 78.3191 104.086 80.7948H104.086ZM97.3572 83.9941C99.5397 82.9258 101.731 81.8815 103.933 80.8654C100.301 78.3889 96.6311 75.8077 92.9176 73.0977C90.8722 74.0664 88.8402 75.0733 86.8214 76.1168C90.3713 78.85 93.8838 81.4769 97.3572 83.9933V83.9941ZM90.5914 87.4019C92.7888 86.2663 94.9945 85.153 97.2118 84.0656C93.7392 81.55 90.2292 78.9231 86.681 76.1899C84.6166 77.2591 82.5662 78.3648 80.5292 79.5055C83.9187 82.2395 87.2717 84.8681 90.5914 87.4019ZM83.8124 90.9909C86.0147 89.7971 88.2279 88.6248 90.4502 87.4742C87.1321 84.942 83.7808 82.3135 80.3938 79.5811C78.3309 80.7375 76.2814 81.9288 74.2461 83.1501C77.4645 85.8517 80.6554 88.4711 83.8124 90.9909ZM77.0283 94.7443C79.234 93.5006 81.4497 92.2727 83.6753 91.0656C80.5217 88.5484 77.3332 85.929 74.1173 83.229C72.052 84.4702 70 85.7429 67.9613 87.043C71.0119 89.6924 74.0342 92.2595 77.0291 94.7443H77.0283ZM70.2318 98.6431C72.4433 97.3537 74.6639 96.0785 76.8946 94.8191C73.903 92.3359 70.8831 89.7705 67.8358 87.1228C65.7714 88.4404 63.7202 89.7871 61.6815 91.157C64.5585 93.7324 67.4047 96.2139 70.2318 98.6431ZM63.4236 102.673C65.6393 101.344 67.8649 100.025 70.1005 98.7204C67.2751 96.2928 64.433 93.8138 61.5585 91.2409C59.5032 92.6233 57.4612 94.0307 55.4308 95.4579C58.1167 97.927 60.7818 100.333 63.4236 102.674V102.673ZM56.5997 106.813C58.822 105.451 61.0534 104.095 63.2949 102.75C60.6555 100.412 57.9937 98.0084 55.3112 95.5418C53.2558 96.9874 51.213 98.4545 49.1809 99.9374C51.6716 102.281 54.1464 104.58 56.5997 106.813ZM49.7558 111.044C51.9856 109.655 54.2253 108.269 56.4734 106.89C54.0235 104.659 51.5519 102.363 49.0646 100.023C47.0076 101.525 44.9623 103.044 42.9285 104.575C45.2198 106.777 47.4961 108.935 49.7558 111.045V111.044ZM42.8978 115.34C45.1326 113.933 47.3765 112.526 49.6304 111.122C47.374 109.015 45.101 106.86 42.8131 104.661C40.7611 106.206 38.7199 107.764 36.6895 109.329C38.7705 111.368 40.8425 113.378 42.8978 115.34ZM36.0057 119.687C38.2521 118.268 40.5077 116.844 42.7732 115.419C40.7212 113.46 38.6534 111.453 36.5756 109.417C34.5195 111.003 32.4733 112.597 30.4371 114.193C32.303 116.052 34.1606 117.89 36.0057 119.688V119.687ZM172.133 72.0909C174.901 71.619 177.661 71.1405 180.41 70.6603C174.153 70.8513 167.822 70.9519 161.421 70.9261C165.02 71.3689 168.591 71.7561 172.133 72.0909ZM162.764 73.6569C165.714 73.175 168.654 72.6832 171.584 72.1847C167.816 71.8233 164.016 71.4046 160.184 70.9195C156.79 70.897 153.374 70.8381 149.939 70.7375C154.26 71.8134 158.534 72.7837 162.764 73.6569ZM153.3 75.1581C156.331 74.692 159.352 74.2126 162.362 73.7225C158.039 72.8253 153.67 71.8267 149.253 70.7168C145.719 70.6079 142.164 70.4534 138.587 70.2499C143.556 72.046 148.46 73.6768 153.3 75.1581H153.3ZM144.251 76.7747C144.662 76.6235 145.074 76.4732 145.485 76.3236L145.491 76.3211H145.499C147.995 75.9606 150.486 75.5892 152.97 75.2087C148.072 73.705 143.109 72.046 138.08 70.22C136.216 70.1111 134.346 69.989 132.471 69.8519C131.599 70.1277 130.73 70.4102 129.862 70.6977C134.724 72.8925 139.519 74.913 144.25 76.7747H144.251ZM137.304 79.4C139.546 78.5285 141.793 77.6778 144.045 76.8495C139.314 74.9853 134.518 72.9623 129.658 70.7649C127.711 71.4113 125.773 72.0859 123.842 72.787C128.389 75.1481 132.876 77.3496 137.304 79.4ZM130.19 82.2379C132.494 81.2966 134.803 80.3736 137.116 79.4739C132.689 77.4219 128.203 75.2187 123.658 72.8552C121.583 73.6112 119.517 74.3979 117.461 75.2137C121.759 77.7044 126.001 80.0397 130.19 82.2379ZM122.977 85.2552C125.317 84.255 127.662 83.2722 130.013 82.3102C125.826 80.1103 121.586 77.7733 117.29 75.281C115.15 76.1317 113.02 77.0132 110.899 77.9229C114.975 80.5032 119.001 82.9482 122.977 85.2552ZM115.706 88.4263C118.067 87.3762 120.435 86.3419 122.81 85.3259C118.836 83.018 114.811 80.5722 110.738 77.9918C108.558 78.9289 106.387 79.8959 104.226 80.8904C108.097 83.5256 111.926 86.0436 115.706 88.4263ZM108.396 91.7327C110.773 90.6395 113.157 89.5611 115.546 88.4977C111.769 86.1151 107.942 83.5962 104.073 80.9602C101.868 81.9762 99.6743 83.0205 97.4893 84.0897C101.165 86.7506 104.803 89.3044 108.396 91.7327ZM101.062 95.1547C103.449 94.0257 105.843 92.9075 108.243 91.8025C104.653 89.3759 101.017 86.8212 97.3439 84.1611C95.125 85.2486 92.9168 86.3627 90.7177 87.4983C94.2028 90.156 97.6513 92.7089 101.062 95.1538V95.1547ZM93.7035 98.6771C96.1003 97.5166 98.5037 96.3651 100.913 95.2253C97.5051 92.7803 94.0591 90.2291 90.5765 87.5723C88.3533 88.722 86.1394 89.8951 83.9362 91.0889C87.2243 93.7116 90.4818 96.2455 93.7035 98.678V98.6771ZM86.3238 102.286C88.7289 101.1 91.1398 99.9191 93.5581 98.7478C90.3389 96.3161 87.0839 93.7848 83.7982 91.1628C81.5718 92.3699 79.3545 93.5978 77.1471 94.8423C80.2334 97.4019 83.2965 99.8951 86.3238 102.286ZM78.9216 105.964C81.335 104.757 83.7551 103.553 86.1826 102.356C83.1577 99.9665 80.098 97.4767 77.0142 94.9179C74.7827 96.1774 72.5604 97.4526 70.3481 98.7428C73.2292 101.216 76.092 103.638 78.9216 105.964ZM71.4904 109.698C73.9129 108.476 76.3429 107.253 78.7804 106.034C75.9533 103.711 73.0938 101.292 70.216 98.8192C67.9796 100.124 65.7531 101.444 63.5358 102.773C66.2067 105.138 68.8627 107.461 71.4896 109.698H71.4904ZM64.0284 113.473C66.4626 112.24 68.9034 111.004 71.3517 109.768C68.7281 107.533 66.0754 105.213 63.407 102.85C61.1648 104.195 58.9325 105.551 56.7093 106.913C59.1659 109.149 61.6084 111.346 64.0276 113.473H64.0284ZM56.5291 117.273C58.2205 116.417 59.9153 115.558 61.615 114.696L63.8913 113.542C61.4755 111.417 59.0355 109.224 56.5831 106.991C54.3333 108.371 52.0936 109.756 49.863 111.145C52.0994 113.233 54.3217 115.274 56.5291 117.272V117.273ZM48.9832 121.083C51.4448 119.845 53.9138 118.597 56.392 117.343C54.1888 115.348 51.9706 113.308 49.7384 111.224C47.4845 112.628 45.2406 114.036 43.0058 115.441C45.0088 117.354 47.0051 119.243 48.984 121.083H48.9832ZM41.3816 124.885C43.8615 123.653 46.3497 122.407 48.8469 121.152C46.8722 119.315 44.88 117.429 42.8812 115.521C40.6157 116.947 38.3601 118.371 36.1121 119.79C37.875 121.508 39.6379 123.224 41.3816 124.886V124.885ZM191.806 70.0688C194.202 69.2031 196.595 68.3516 198.984 67.5208C197.442 67.7941 195.896 68.0691 194.348 68.3441C190.41 69.0436 186.451 69.7481 182.474 70.4468C185.602 70.3413 188.714 70.2133 191.807 70.0688H191.806ZM183.767 73.0246C186.294 72.0767 188.818 71.1504 191.34 70.2366C188.061 70.3878 184.763 70.5199 181.444 70.627C178.538 71.1363 175.622 71.6431 172.696 72.1432C176.417 72.4896 180.107 72.7812 183.767 73.0246ZM175.771 76.0777C178.329 75.0874 180.886 74.1088 183.439 73.1493C179.705 72.8975 175.938 72.5976 172.139 72.2379C169.157 72.7463 166.165 73.2481 163.162 73.7391C167.41 74.6106 171.613 75.3873 175.771 76.0769V76.0777ZM167.777 79.2106C170.355 78.1854 172.931 77.1785 175.504 76.1807C171.302 75.4796 167.054 74.6912 162.76 73.8047C159.723 74.3007 156.677 74.7859 153.619 75.2561C158.401 76.7133 163.119 78.0259 167.777 79.2097V79.2106ZM159.811 82.419C162.392 81.3697 164.971 80.3279 167.548 79.3028C162.857 78.1073 158.104 76.7806 153.29 75.3076C150.708 75.7039 148.12 76.0902 145.524 76.464C145.168 76.5936 144.811 76.7241 144.454 76.8553C149.649 78.8949 154.768 80.7433 159.811 82.4198V82.419ZM151.838 85.6897C154.427 84.6172 157.015 83.5571 159.603 82.5046C154.56 80.8247 149.442 78.9729 144.248 76.9301C141.99 77.7592 139.736 78.6116 137.488 79.4847C142.34 81.727 147.124 83.7906 151.838 85.6897ZM143.87 89.017C146.462 87.9278 149.054 86.8428 151.646 85.7686C146.933 83.8679 142.151 81.8017 137.3 79.557C134.981 80.4584 132.667 81.3822 130.359 82.3251C134.925 84.7186 139.43 86.9467 143.871 89.017H143.87ZM135.899 92.3857C138.495 91.2825 141.092 90.185 143.689 89.0934C139.249 87.0215 134.747 84.7925 130.182 82.3982C127.827 83.3611 125.478 84.3439 123.134 85.3458C127.447 87.8456 131.7 90.1875 135.899 92.3857ZM127.92 95.7919C130.521 94.6778 133.123 93.5663 135.726 92.4597C131.53 90.2598 127.278 87.917 122.968 85.4164C120.591 86.4333 118.22 87.4676 115.856 88.5185C119.929 91.0839 123.95 93.5031 127.92 95.7911L127.92 95.7919ZM119.932 99.2205C122.537 98.0998 125.144 96.9799 127.753 95.8633C123.784 93.5746 119.766 91.1562 115.695 88.59C113.303 89.6533 110.918 90.7333 108.539 91.8266C112.384 94.4228 116.179 96.8769 119.933 99.2205H119.932ZM111.918 102.671L113.458 102.008C115.561 101.102 117.665 100.196 119.771 99.2903C116.02 96.9467 112.228 94.4934 108.385 91.8981C105.983 93.003 103.587 94.1212 101.198 95.2519C104.814 97.8422 108.385 100.308 111.919 102.671L111.918 102.671ZM103.88 106.129C106.504 105.002 109.13 103.872 111.759 102.74C108.227 100.377 104.659 97.9128 101.046 95.3233C98.635 96.464 96.2299 97.6163 93.8323 98.7768C97.2185 101.331 100.566 103.777 103.88 106.129ZM95.8261 109.58C98.4555 108.457 101.089 107.328 103.725 106.196C100.414 103.845 97.0698 101.4 93.6869 98.8475C91.2669 100.019 88.8543 101.2 86.4484 102.387C89.6078 104.879 92.729 107.265 95.8253 109.581L95.8261 109.58ZM87.7336 113.02C90.3763 111.902 93.0231 110.776 95.6741 109.645C92.5811 107.33 89.4624 104.947 86.3072 102.455C83.8788 103.653 81.458 104.857 79.0438 106.064C81.9697 108.467 84.8608 110.77 87.7344 113.02L87.7336 113.02ZM79.5946 116.442C82.2522 115.333 84.914 114.213 87.5807 113.085C84.7113 110.836 81.8243 108.536 78.9017 106.136C76.4642 107.355 74.0334 108.577 71.61 109.8C74.2967 112.086 76.9527 114.285 79.5946 116.442ZM71.4048 119.832C74.0791 118.735 76.7591 117.625 79.4442 116.505C76.8065 114.35 74.1538 112.154 71.4713 109.871C69.0222 111.107 66.5806 112.343 64.1472 113.576C66.5864 115.72 69.0022 117.795 71.4048 119.832ZM63.1553 123.178C65.8486 122.098 68.5486 121.002 71.2545 119.893C68.856 117.859 66.4443 115.786 64.0085 113.646L61.6749 114.829C59.9942 115.681 58.3177 116.53 56.6445 117.377C58.8295 119.354 60.9994 121.287 63.1553 123.178ZM54.8551 126.463C57.5642 125.406 60.2817 124.33 63.0057 123.239C60.8549 121.351 58.6891 119.42 56.5083 117.447C54.0301 118.701 51.5594 119.95 49.0978 121.189C51.0294 122.983 52.9468 124.735 54.8559 126.464L54.8551 126.463ZM46.4834 129.676C49.2158 128.645 51.9582 127.593 54.7072 126.521C52.8022 124.796 50.889 123.048 48.9616 121.257C46.4643 122.513 43.9753 123.759 41.4946 124.992C43.1686 126.585 44.8269 128.132 46.4834 129.677V129.676ZM37.8733 132.857C36.4801 131.522 35.0927 130.204 33.6879 128.837C20.4371 135.299 7.44305 141.267 -5.27436 146.205C8.75816 142.754 23.1787 138.169 37.8733 132.857ZM33.825 128.77C35.234 130.141 36.6255 131.465 38.0237 132.803C40.7852 131.803 43.5558 130.781 46.3347 129.732C44.6815 128.191 43.0274 126.648 41.3576 125.058C38.8378 126.31 36.3264 127.549 33.825 128.769V128.77ZM29.171 124.17C30.688 125.677 32.21 127.197 33.7136 128.663C36.2151 127.443 38.7257 126.205 41.2446 124.953C39.5041 123.295 37.7462 121.581 35.9866 119.868L35.2971 120.303C33.2468 121.598 31.2056 122.887 29.1702 124.169L29.171 124.17ZM24.1556 119.144C25.8006 120.81 27.4372 122.449 29.0672 124.067C31.1142 122.778 33.167 121.481 35.2281 120.179L35.882 119.766C34.041 117.972 32.1859 116.137 30.3241 114.281C28.258 115.901 26.2027 117.524 24.1556 119.144ZM18.8022 113.688C20.5651 115.509 22.3088 117.273 24.0543 119.041C26.1005 117.42 28.1558 115.798 30.2211 114.178C28.2846 112.248 26.3372 110.285 24.3783 108.287C22.5091 110.078 20.6506 111.881 18.8022 113.688ZM13.1504 107.771C15.0089 109.731 16.8656 111.685 18.7041 113.586C20.5518 111.778 22.4094 109.976 24.2786 108.185C22.249 106.114 20.2111 104.017 18.1583 101.873C16.4768 103.821 14.8087 105.789 13.1504 107.771ZM7.18302 101.401C9.14945 103.519 11.1084 105.617 13.0516 107.668C14.7098 105.686 16.378 103.718 18.0595 101.77C15.9393 99.5553 13.8101 97.3147 11.6634 95.0209C10.1563 97.1211 8.66345 99.2504 7.18219 101.401H7.18302ZM0.904068 94.564C2.97684 96.8445 5.03715 99.0884 7.08582 101.296C8.56709 99.1449 10.0591 97.0156 11.567 94.9154C9.35632 92.5527 7.1365 90.1601 4.89758 87.711C3.5509 89.9591 2.22084 92.247 0.904899 94.564H0.904068ZM-5.68809 87.2366C-3.50981 89.6857 -1.34732 92.0867 0.805206 94.4552C2.12198 92.1382 3.45204 89.8511 4.79872 87.603C2.50081 85.0883 0.183791 82.517 -2.14403 79.9101C-3.34283 82.306 -4.52335 84.7501 -5.68726 87.2366H-5.68809ZM-8.38477 0C-7.70437 0.789231 -7.02563 1.57348 -6.34689 2.35939C-3.75904 2.1816 -0.973471 2.56459 2.03391 3.56732L2.05136 3.57314L2.06382 3.58643C3.82671 5.56283 5.57881 7.50268 7.32592 9.42508C9.76173 9.26142 12.3396 9.49902 15.0745 10.1802L15.0936 10.1852L15.1077 10.2002C17.0991 12.3162 19.0796 14.3981 21.0486 16.4418C23.3024 16.2715 25.6527 16.3753 28.1143 16.794L28.135 16.7973L28.15 16.8123C30.3914 19.0495 32.6154 21.2303 34.8302 23.3812C36.8706 23.1967 38.9757 23.1976 41.154 23.4069L41.1764 23.4094L41.1931 23.4252C43.7111 25.7597 46.2093 28.0277 48.6941 30.2525C50.486 30.0547 52.3171 29.9717 54.1946 30.0215H54.2187L54.237 30.0373C57.0707 32.4382 59.8821 34.7685 62.6743 37.0365C64.1721 36.8355 65.6908 36.6959 67.2369 36.6361H67.2601L67.2792 36.6494C70.4951 39.0869 73.6803 41.4296 76.8422 43.6993C77.977 43.5182 79.121 43.3662 80.2774 43.2499L80.3007 43.2474L80.3198 43.2598C84.0117 45.6857 87.6696 48.0035 91.2926 50.2167C91.9647 50.0904 92.6401 49.9716 93.318 49.8636L93.3396 49.8603L93.3596 49.8711C97.697 52.2205 101.989 54.4295 106.235 56.5065C106.276 56.4973 106.318 56.4873 106.359 56.4782L106.379 56.474L106.398 56.4815C116.218 60.4991 125.819 63.8654 135.21 66.6909C143.684 68.4031 152.01 69.7381 160.19 70.7733C167.36 70.8206 174.441 70.7068 181.432 70.4817C185.754 69.724 190.051 68.9597 194.325 68.2004C196.168 67.8722 198.005 67.5465 199.839 67.2209C277.651 40.2824 351.871 32.8038 407 100.211V100.435C352.118 33.2158 278.256 40.3704 200.766 67.0572C281.021 52.8394 352.292 42.1707 407 109.083V109.305C352.114 42.061 280.511 53.0646 199.878 67.3638C197.356 68.2369 194.83 69.1358 192.301 70.0472C204.557 69.4656 216.527 68.6182 228.206 67.79C298.634 62.8012 358.507 58.5643 406.999 117.934V118.162C358.526 58.7113 298.653 62.9466 228.215 67.9362C216.385 68.7744 204.257 69.6326 191.834 70.215C189.264 71.1438 186.693 72.085 184.118 73.0496C206.234 74.5051 227.231 74.2318 247.178 73.9709C310.172 73.1484 362.702 72.4755 407 126.802V127.027C362.716 72.6217 310.185 73.2955 247.18 74.1171C227.133 74.3788 206.026 74.6538 183.788 73.1733C181.213 74.1395 178.634 75.1273 176.054 76.1251C205.943 81.0632 233.534 81.6347 259.155 82.1639C317.281 83.3661 365.275 84.3638 406.999 135.646V135.873C365.285 84.5117 317.29 83.5123 259.152 82.3102C233.455 81.7793 205.777 81.2069 175.784 76.2289C173.197 77.2308 170.608 78.2427 168.018 79.2729C204.531 88.5193 237.33 89.8527 267.211 91.0665C321.972 93.2913 366.935 95.1223 406.999 144.493V144.718C366.942 95.2668 321.977 93.4375 267.206 91.2127C237.263 89.9956 204.389 88.6589 167.786 79.3642C165.2 80.3927 162.612 81.4378 160.023 82.4904C202.43 96.552 239.55 98.4861 272.824 100.215C325.177 102.935 368.022 105.17 406.999 153.345V153.57C368.027 105.315 325.182 103.081 272.817 100.36C239.489 98.629 202.305 96.6916 159.814 82.5743C157.221 83.6294 154.626 84.692 152.031 85.767C199.853 104.989 240.692 107.346 276.801 109.424C327.397 112.336 368.721 114.725 406.999 162.19V162.416C368.725 114.871 327.401 112.482 276.794 109.569C240.636 107.488 199.74 105.127 151.838 85.8459C149.241 86.9218 146.644 88.0076 144.046 89.0992C196.943 113.717 241.065 116.335 279.626 118.618C328.928 121.537 369.145 123.929 406.999 171.033V171.26C369.147 124.075 328.93 121.684 279.619 118.764C241.014 116.478 196.837 113.857 143.866 89.1756C141.266 90.2681 138.666 91.3672 136.066 92.4721C193.783 122.657 240.87 125.401 281.606 127.767C329.954 130.574 369.365 132.874 406.999 179.876V180.103C369.365 133.02 329.955 130.721 281.599 127.913C240.821 125.545 193.682 122.799 135.892 92.5461C133.286 93.6535 130.679 94.7667 128.074 95.8824C190.426 131.769 240.234 134.511 282.946 136.856C330.599 139.473 369.428 141.616 406.999 188.717V188.944C369.428 141.763 330.601 139.619 282.939 137.002C240.187 134.654 190.329 131.91 127.908 95.9539C125.298 97.0721 122.688 98.1928 120.081 99.3144C186.918 141 239.257 143.647 283.791 145.886C330.951 148.257 369.369 150.201 406.999 197.558V197.786C369.369 150.347 330.952 148.405 283.784 146.033C239.213 143.791 186.825 141.141 119.919 99.385C117.782 100.305 115.644 101.224 113.509 102.144L112.062 102.767C183.28 150.345 238 152.797 284.242 154.858C331.069 156.946 369.212 158.657 406.999 206.399V206.628C369.212 158.803 331.07 157.093 284.237 155.005C237.957 152.941 183.189 150.489 111.903 102.837C109.272 103.97 106.644 105.101 104.018 106.23C179.533 159.781 236.514 161.954 284.378 163.777C331 165.552 368.976 167.009 406.999 215.241V215.47C368.974 167.155 331.001 165.699 284.373 163.923C236.474 162.099 179.445 159.923 103.862 106.296C101.224 107.429 98.5901 108.558 95.959 109.682C175.696 169.263 234.845 171.114 284.253 172.645C330.775 174.087 368.672 175.272 406.998 224.081V224.31C368.671 175.417 330.777 174.234 284.25 172.792C234.806 171.259 175.611 169.406 95.8062 109.748C93.1544 110.88 90.5067 112.007 87.8632 113.125C171.778 178.808 233.015 180.272 283.915 181.468C329.178 182.533 366.278 183.414 403.89 229.05H403.706C366.155 183.557 329.107 182.677 283.913 181.615C232.978 180.417 171.694 178.953 87.712 113.19C85.0436 114.319 82.381 115.439 79.7225 116.549C167.783 188.41 231.048 189.429 283.397 190.251C325.651 190.915 360.803 191.477 396.151 229.05H395.952C360.67 191.621 325.573 191.06 283.396 190.397C231.011 189.574 167.7 188.555 79.5721 116.612C76.8854 117.733 74.2054 118.843 71.5303 119.94C163.72 198.059 228.961 198.582 282.727 198.998C321.606 199.298 354.492 199.562 387.232 229.05H387.013C354.345 199.706 321.522 199.443 282.727 199.143C228.926 198.728 163.639 198.205 71.3807 120.001C68.6741 121.111 65.9733 122.207 63.2799 123.288C159.592 207.752 226.77 207.731 281.926 207.71C316.819 207.697 346.905 207.692 376.514 229.05H376.259C346.733 207.839 316.722 207.843 281.926 207.856C226.734 207.878 159.51 207.899 63.1295 123.349C60.4038 124.441 57.6855 125.518 54.9747 126.575C155.402 217.458 224.487 216.878 281.012 216.393C310.753 216.138 337.019 215.921 362.546 229.049H362.22C336.797 216.068 310.629 216.285 281.014 216.539C224.454 217.024 155.323 217.603 54.8268 126.633C52.077 127.705 49.3346 128.758 46.6014 129.789C151.153 227.185 222.123 226.021 280.001 225.05C301.389 224.691 320.991 224.368 339.842 229.049H339.227C320.567 224.518 301.16 224.84 280.004 225.196C222.091 226.167 151.073 227.332 46.4535 129.846C43.6737 130.894 40.9023 131.918 38.1408 132.917C103.949 195.895 156.612 220.087 201.07 229.049H200.338C155.996 219.968 103.504 195.683 37.9913 132.971C22.8854 138.434 8.06779 143.133 -6.33692 146.621C-7.01981 146.883 -7.7027 147.143 -8.38393 147.399V147.241C-8.07073 147.123 -7.75753 147.005 -7.4435 146.886C-7.75753 146.961 -8.07073 147.035 -8.38393 147.109V146.957C-7.71683 146.801 -7.04806 146.642 -6.37846 146.48C6.65465 141.473 19.9819 135.361 33.5782 128.732C32.0795 127.271 30.5617 125.754 29.0489 124.25C16.3082 132.276 3.85247 139.988 -8.3831 146.608V146.443C3.81841 139.838 16.2392 132.15 28.9442 124.147C27.3184 122.532 25.6859 120.896 24.0443 119.235C22.2407 120.663 20.4438 122.09 18.6543 123.511C9.49256 130.787 0.505299 137.924 -8.38393 144.457V144.277C0.477883 137.762 9.43773 130.648 18.572 123.393C20.3557 121.977 22.146 120.555 23.9438 119.132C22.2025 117.368 20.4612 115.606 18.7025 113.79C14.6899 117.717 10.7229 121.668 6.79173 125.586C1.68499 130.675 -3.3636 135.705 -8.3831 140.55V140.352C-3.39516 135.536 1.62268 130.536 6.69785 125.479C10.6282 121.563 14.5935 117.613 18.6044 113.687C16.7693 111.79 14.9158 109.839 13.0607 107.882C7.81524 114.156 2.67859 120.562 -2.40073 126.897C-4.40289 129.393 -6.3959 131.879 -8.3831 134.341V134.117C-6.4308 131.698 -4.47267 129.255 -2.50624 126.803C2.57475 120.465 7.71389 114.057 12.9619 107.78C11.0212 105.732 9.06472 103.638 7.10161 101.523C1.81542 109.205 -3.31624 117.16 -8.38393 125.066V124.807C-3.34864 116.952 1.75145 109.05 7.00358 101.418C4.95822 99.2138 2.90041 96.9732 0.83096 94.6961C-2.30852 100.228 -5.3699 105.932 -8.38393 111.704V111.401C-5.40147 105.696 -2.37332 100.057 0.732099 94.5864C-1.4171 92.2204 -3.57627 89.8236 -5.75206 87.3778C-6.63849 89.2737 -7.51495 91.1936 -8.38393 93.1334V92.7928C-7.54818 90.9311 -6.70495 89.0867 -5.85341 87.264C-6.69581 86.317 -7.53904 85.3657 -8.38393 84.4087V84.1943C-7.51661 85.1763 -6.65178 86.1525 -5.78778 87.1236C-4.62387 84.638 -3.44335 82.1947 -2.24455 79.7996C-4.2791 77.5216 -6.32612 75.2004 -8.38393 72.8485V72.6333C-6.30286 75.0127 -4.23258 77.3596 -2.17642 79.6633C-0.976794 77.2699 0.241114 74.9238 1.48228 72.6375C-1.04658 69.8212 -3.59372 66.9467 -6.15747 64.0191C-6.91098 65.6524 -7.65286 67.3189 -8.38393 69.0162V68.6639C-7.68609 67.0489 -6.97744 65.4613 -6.25883 63.9045C-6.96581 63.0969 -7.67446 62.2853 -8.38393 61.4686V61.2535C-7.65286 62.095 -6.92261 62.9316 -6.19403 63.7632C-5.07996 61.3548 -3.93932 59.0204 -2.7696 56.7665C-4.63135 54.6513 -6.50307 52.5071 -8.38393 50.333V50.117C-6.47981 52.3194 -4.58483 54.4918 -2.69898 56.6327C-1.5251 54.3772 -0.32381 52.2014 0.913206 50.1228C-1.90476 46.946 -4.746 43.6976 -7.60717 40.3837C-7.86803 40.8672 -8.1264 41.3574 -8.3831 41.8525V41.5493C-8.1588 41.1181 -7.93283 40.6919 -7.7052 40.2707L-8.3831 39.4848V39.268L-7.63292 40.1378C-6.46652 37.9828 -5.25775 35.9466 -4.00412 34.0391C-5.4588 32.3684 -6.91763 30.682 -8.38227 28.9781V28.7612C-6.89021 30.4976 -5.40396 32.2148 -3.9227 33.9162C-2.65246 31.9929 -1.33569 30.201 0.0325909 28.5569C-2.75298 25.3933 -5.55516 22.1766 -8.38227 18.8817V18.6641C-5.52443 21.9971 -2.6915 25.2487 0.124806 28.4472C1.51468 26.7865 2.9569 25.2737 4.45727 23.927C1.57118 20.697 -1.33236 17.4096 -4.26332 14.0375C-5.69972 15.1242 -7.07049 16.3961 -8.38227 17.8366V17.6215C-7.09957 16.2241 -5.75953 14.9879 -4.35886 13.9262C-5.6939 12.3893 -7.0356 10.8307 -8.38227 9.2556V9.03794C-6.99821 10.6571 -5.6183 12.2597 -4.24587 13.8398C-2.60926 12.6136 -0.889564 11.6241 0.920683 10.8914C-1.50101 8.1565 -3.9443 5.35265 -6.39757 2.51557C-7.07298 2.56459 -7.73427 2.65265 -8.38144 2.77809V2.62191C-7.77332 2.5056 -7.15273 2.42169 -6.52052 2.37185C-7.14027 1.65489 -7.76086 0.937109 -8.38144 0.217662V0.00249221L-8.38477 0Z" fill="url(#paint0_linear_312_626)"/>
<path d="M1.05859 10.8349C2.98348 10.0722 5.01056 9.59954 7.14647 9.43837C5.4301 7.5492 3.70791 5.64259 1.97493 3.70108C-0.962672 2.72326 -3.68926 2.34277 -6.22477 2.50145C-3.78313 5.32357 -1.3523 8.11329 1.05776 10.8341M14.9092 17.6655C16.8133 17.0333 18.7972 16.6254 20.8641 16.4551C18.9284 14.4446 16.9811 12.3976 15.0238 10.3182C12.3537 9.6552 9.83401 9.41594 7.45053 9.56382C9.95281 12.3162 12.4401 15.0203 14.9092 17.6655ZM9.45933 20.191C11.1566 19.1675 12.9211 18.3367 14.7588 17.7137C12.2806 15.0577 9.78416 12.3419 7.27275 9.57794C5.12853 9.72914 3.09564 10.196 1.16493 10.9554C3.9505 14.099 6.71447 17.1762 9.46016 20.1902L9.45933 20.191ZM4.56112 23.8315C6.09139 22.4682 7.67982 21.2727 9.33471 20.2641C6.58487 17.2443 3.81508 14.1605 1.0237 11.0102C-0.789871 11.7388 -2.51206 12.7257 -4.15116 13.9511C-1.22353 17.3199 1.67751 20.6047 4.56112 23.8315ZM28.9201 24.4936C30.7677 23.9594 32.6719 23.5855 34.64 23.3953C32.4617 21.2793 30.2751 19.1343 28.0719 16.9344C25.6743 16.5282 23.3822 16.4218 21.1815 16.578C23.7785 19.273 26.3572 21.9074 28.9201 24.4927V24.4936ZM23.4204 26.6486C25.1459 25.7871 26.9263 25.0784 28.7639 24.5376C26.1919 21.9415 23.6048 19.2979 20.9979 16.593C18.9226 16.755 16.9321 17.1571 15.0213 17.7859C17.8418 20.8066 20.6415 23.76 23.4204 26.6494V26.6486ZM18.2987 29.754C19.9104 28.5951 21.5728 27.5807 23.2875 26.7159C20.5027 23.8207 17.6981 20.8615 14.8718 17.8341C13.03 18.4522 11.2621 19.2805 9.56152 20.3032C12.4966 23.5241 15.4093 26.6777 18.2987 29.754ZM13.5276 33.7226C15.033 32.2945 16.584 30.9985 18.1841 29.8387C15.2913 26.7574 12.3745 23.6013 9.4369 20.3763C7.78035 21.3832 6.19025 22.5778 4.65831 23.9403C7.63745 27.2733 10.595 30.5383 13.5276 33.7226ZM9.07635 38.4738C10.4837 36.8031 11.93 35.2437 13.4238 33.819C10.4903 30.6338 7.53195 27.368 4.55198 24.0333C3.05078 25.3792 1.60856 26.892 0.218682 28.5536C3.19367 31.9323 6.14788 35.2437 9.07635 38.4738ZM4.90588 43.9211C6.22681 42.0328 7.58512 40.25 8.9833 38.5826C6.05484 35.3526 3.10062 32.0411 0.125637 28.6632C-1.24264 30.3073 -2.55858 32.0993 -3.82883 34.0242C-0.895379 37.3938 2.0173 40.6961 4.90588 43.9211ZM0.987975 49.994C2.23164 47.9105 3.50936 45.9258 4.82281 44.0408C1.93505 40.8165 -0.976794 37.5159 -3.91024 34.1471C-5.16304 36.0546 -6.37098 38.0916 -7.53738 40.2483C-4.67455 43.5647 -1.83166 46.8147 0.987975 49.994ZM43.1038 31.2893C44.8617 30.8282 46.662 30.4867 48.5063 30.2741C46.0597 28.0817 43.5998 25.8486 41.1208 23.5498C39.004 23.3479 36.9578 23.3455 34.9714 23.5174C37.7013 26.1676 40.4146 28.7662 43.1038 31.2893ZM37.6415 33.1552C39.3645 32.4233 41.1308 31.8152 42.941 31.3316C40.2427 28.7995 37.5202 26.1917 34.782 23.5324C32.8056 23.7151 30.894 24.0815 29.0389 24.6132C31.9275 27.5259 34.7995 30.3854 37.6415 33.1552ZM32.3911 35.8278C34.0534 34.84 35.7548 33.966 37.5011 33.2175C34.6532 30.4427 31.7763 27.5757 28.8827 24.6572C27.0401 25.1956 25.2564 25.9001 23.5268 26.7599C26.5042 29.8537 29.4618 32.886 32.3911 35.8286V35.8278ZM27.3599 39.2547C28.955 38.026 30.5891 36.9053 32.264 35.9025C29.333 32.9575 26.373 29.9227 23.3938 26.8264C21.6766 27.6895 20.0126 28.7014 18.3984 29.8603C21.4091 33.0655 24.3982 36.2041 27.3599 39.2547ZM22.5556 43.382C24.0825 41.9314 25.646 40.5831 27.2469 39.3428C24.2844 36.2913 21.2945 33.151 18.2838 29.9459C16.6829 31.104 15.131 32.4008 13.6248 33.8298C16.6247 37.0872 19.6047 40.279 22.5556 43.3828V43.382ZM17.9739 48.1556C19.4327 46.5023 20.924 44.938 22.4517 43.4792C19.5008 40.3762 16.5209 37.1828 13.521 33.9261C12.0272 35.3517 10.58 36.9103 9.17189 38.5809C12.1269 41.84 15.0654 45.046 17.9731 48.1556H17.9739ZM13.5982 53.504C14.9931 51.668 16.4204 49.9218 17.8792 48.2627C14.9723 45.154 12.0339 41.948 9.07967 38.6898C7.68065 40.3579 6.32318 42.14 5.00225 44.03C7.88752 47.2517 10.7578 50.4244 13.5982 53.504ZM9.42278 59.3809C10.7578 57.3837 12.1195 55.4572 13.5127 53.6195C10.6731 50.5407 7.80444 47.3696 4.92001 44.1496C3.60656 46.0354 2.32884 48.021 1.08684 50.1045C3.8857 53.2598 6.66629 56.3586 9.42278 59.3809ZM5.41265 65.7288C6.69619 63.5838 8.00465 61.506 9.34053 59.5022C6.5857 56.4815 3.80595 53.3844 1.00958 50.2317C-0.226609 52.3102 -1.4279 54.4877 -2.60095 56.7432C0.0899143 59.798 2.76167 62.7954 5.41265 65.728V65.7288ZM1.55373 72.5046C2.79241 70.2274 4.05185 68.0085 5.33705 65.8559C2.68773 62.9258 0.0176363 59.9309 -2.67073 56.8778C-3.84046 59.1317 -4.98027 61.467 -6.0935 63.8762C-3.52643 66.8072 -0.976794 69.6841 1.55373 72.5038V72.5046ZM57.5277 38.0119C59.1493 37.6114 60.7992 37.2924 62.4782 37.0606C59.7284 34.825 56.9594 32.5313 54.1689 30.1669C52.3511 30.1195 50.5758 30.1952 48.8386 30.3812C51.7571 32.994 54.6557 35.5428 57.5285 38.0127L57.5277 38.0119ZM52.1983 39.6535C53.8856 39.0271 55.6053 38.4937 57.3573 38.0534C54.4787 35.5777 51.5752 33.0223 48.6509 30.4037C46.7999 30.6105 44.9938 30.9495 43.2301 31.4081C46.2441 34.2344 49.2332 36.98 52.1991 39.6526L52.1983 39.6535ZM46.8739 41.9755C48.5653 41.1256 50.2883 40.3663 52.0454 39.7075C49.0762 37.0307 46.0838 34.28 43.0656 31.4504C41.252 31.9298 39.4808 32.5346 37.7537 33.264C40.8192 36.249 43.859 39.1508 46.873 41.9755H46.8739ZM41.6458 44.9563C43.3115 43.8937 45.0088 42.9209 46.7401 42.0452C43.7236 39.2181 40.6821 36.3146 37.6149 33.3271C35.867 34.074 34.1631 34.948 32.4982 35.9349C35.5729 39.0221 38.6227 42.0311 41.6458 44.9563ZM36.5482 48.5535C38.1749 47.2916 39.8323 46.1177 41.522 45.0344C38.498 42.1076 35.4475 39.0977 32.3711 36.0089C30.6946 37.0108 29.0588 38.129 27.4621 39.3585C30.5168 42.5038 33.545 45.5685 36.5491 48.5535H36.5482ZM31.606 52.7348C33.1861 51.2884 34.7953 49.9209 36.4361 48.6424C33.432 45.6566 30.4039 42.5919 27.3491 39.4466C25.7466 40.6861 24.1831 42.0344 22.6561 43.4858C25.6652 46.6485 28.6468 49.7257 31.6068 52.7348H31.606ZM26.8141 57.4469C28.3485 55.831 29.9104 54.2908 31.5013 52.8303C28.5421 49.8221 25.5605 46.7457 22.5514 43.583C21.0228 45.0418 19.5316 46.6053 18.0719 48.2594C21.0112 51.4014 23.9214 54.452 26.8141 57.4469ZM22.1709 62.6541C23.6605 60.8829 25.175 59.1799 26.7169 57.5507C23.8258 54.5566 20.9165 51.5077 17.978 48.3666C16.5192 50.0256 15.0911 51.7736 13.6954 53.6096C16.5441 56.6975 19.3671 59.7057 22.1709 62.6541ZM17.6665 68.3067C19.1137 66.3968 20.5833 64.5458 22.0787 62.7638C19.2765 59.8171 16.4552 56.8113 13.609 53.7259C12.2158 55.5644 10.855 57.4909 9.51998 59.4889C12.254 62.4863 14.974 65.438 17.6665 68.3067ZM13.3008 74.3422C14.7056 72.3127 16.1312 70.3371 17.5801 68.4213C14.8892 65.5544 12.171 62.6051 9.43856 59.6102C8.10352 61.614 6.79505 63.6926 5.51152 65.8385C8.12595 68.7296 10.7238 71.5683 13.3008 74.3431V74.3422ZM9.04312 80.7458C10.4155 78.6033 11.8054 76.5047 13.2177 74.4619C10.6432 71.6896 8.04786 68.8542 5.43591 65.9656C4.15155 68.1181 2.89127 70.3379 1.65342 72.6151C4.13327 75.3774 6.59733 78.089 9.04312 80.7458ZM4.87432 87.4751C6.22016 85.2311 7.58345 83.0279 8.96419 80.8688C6.52007 78.2145 4.05933 75.5045 1.58114 72.7463C0.339975 75.0326 -0.877102 77.3787 -2.07673 79.773C0.254406 82.3833 2.57308 84.957 4.87432 87.4751ZM72.2464 44.6223C73.6928 44.2734 75.1549 43.971 76.6378 43.7292C73.5225 41.4903 70.3846 39.1824 67.2178 36.7823C65.7315 36.8405 64.2702 36.9734 62.828 37.1628C65.994 39.7324 69.1335 42.2205 72.2456 44.6231L72.2464 44.6223ZM67.1397 46.0894C68.7588 45.5478 70.4013 45.0726 72.0669 44.6655C68.9499 42.2579 65.8054 39.7631 62.6344 37.1877C60.9488 37.4162 59.293 37.7311 57.6656 38.1298C60.8507 40.8664 64.0101 43.5232 67.1405 46.0894H67.1397ZM61.8153 48.134C63.5109 47.3962 65.2322 46.7316 66.9793 46.1426C63.8456 43.5714 60.6829 40.9112 57.4944 38.1705C55.7373 38.6075 54.0135 39.1392 52.3212 39.764C55.5139 42.6392 58.6783 45.4315 61.8153 48.134ZM56.4352 50.7484C58.1532 49.8221 59.8987 48.9722 61.669 48.1971C58.5312 45.4913 55.3635 42.6974 52.1692 39.8196C50.408 40.4768 48.6808 41.2327 46.986 42.081C50.1637 45.0576 53.3132 47.9445 56.4344 50.7484H56.4352ZM51.0933 53.9178C52.8039 52.8129 54.5385 51.7769 56.3023 50.8207C53.1802 48.016 50.03 45.1266 46.8523 42.1499C45.1193 43.0239 43.4204 43.9976 41.753 45.0601C44.8941 48.0991 48.007 51.0483 51.0942 53.9178H51.0933ZM45.8196 57.6014C47.5102 56.3287 49.2274 55.1282 50.9696 53.9984C47.8824 51.128 44.7704 48.178 41.6284 45.139C39.9369 46.2215 38.2779 47.3946 36.6504 48.6565C39.7334 51.7204 42.7898 54.702 45.8196 57.6014ZM40.6414 61.7727C42.3046 60.3454 43.9911 58.9797 45.7033 57.687C42.6752 54.7884 39.6196 51.8076 36.5383 48.7446C34.8967 50.0223 33.2883 51.3906 31.7073 52.8369C34.7089 55.8867 37.6914 58.8783 40.6423 61.7727H40.6414ZM35.5746 66.3777C37.2045 64.8117 38.8569 63.308 40.5334 61.8657C37.5842 58.973 34.6026 55.9814 31.6027 52.9325C30.0117 54.393 28.4491 55.9332 26.9146 57.5491C29.824 60.5614 32.7142 63.5115 35.5754 66.3777H35.5746ZM30.6157 71.3922C32.2133 69.6991 33.83 68.0558 35.4716 66.4757C32.612 63.612 29.7243 60.6636 26.8166 57.6529C25.2747 59.2821 23.7602 60.986 22.2706 62.7572C25.0753 65.7056 27.8559 68.5784 30.6165 71.3913L30.6157 71.3922ZM25.7432 76.783C27.3142 74.9703 28.906 73.2074 30.5177 71.496C27.7587 68.6847 24.9806 65.8136 22.1776 62.8668C20.6814 64.6497 19.2117 66.5006 17.7637 68.4114C20.4446 71.2659 23.1022 74.0515 25.7432 76.7822V76.783ZM20.9746 82.4996C22.5157 80.5871 24.0726 78.7146 25.651 76.891C23.0125 74.1628 20.3565 71.3797 17.6781 68.5269C16.2293 70.4434 14.8037 72.419 13.3988 74.4486C15.9418 77.186 18.4682 79.8735 20.9746 82.4996ZM16.2824 88.5135C17.7994 86.5089 19.333 84.5391 20.8841 82.6109C18.3801 79.9873 15.8554 77.3023 13.3149 74.5674C11.9035 76.6111 10.5136 78.7096 9.14198 80.8522C11.5379 83.4541 13.9189 86.0096 16.2824 88.5127V88.5135ZM11.6509 94.7983C13.1504 92.7106 14.6658 90.6527 16.196 88.6282C13.835 86.1275 11.4565 83.5746 9.06306 80.9759C7.68232 83.1359 6.31902 85.34 4.97235 87.5839C7.21376 90.0363 9.4369 92.4314 11.6509 94.7983ZM87.4013 51.0524C88.6184 50.7584 89.8454 50.4925 91.0824 50.2574C87.511 48.0741 83.9062 45.787 80.2675 43.3969C79.1725 43.5074 78.0884 43.652 77.0125 43.8206C80.5067 46.327 83.971 48.7421 87.4013 51.0524ZM82.5845 52.3775C84.1106 51.904 85.6542 51.4803 87.211 51.0998C83.7766 48.7853 80.3065 46.3636 76.8073 43.8505C75.3177 44.0898 73.8481 44.3888 72.3951 44.7361C75.8237 47.3813 79.2199 49.9251 82.5853 52.3775H82.5845ZM77.3099 54.216C78.9931 53.5655 80.6945 52.9699 82.4158 52.4324C79.0471 49.9758 75.6484 47.4286 72.2157 44.7793C70.545 45.1839 68.8976 45.6574 67.2726 46.1983C70.6488 48.9656 73.996 51.6398 77.3099 54.216ZM71.8277 56.558C73.5831 55.7388 75.3585 54.9762 77.1554 54.2775C73.8398 51.698 70.491 49.0212 67.1131 46.2514C65.3618 46.8388 63.6371 47.5034 61.9374 48.2395C65.2646 51.1056 68.5619 53.8796 71.8277 56.558ZM66.2657 59.3809C68.0502 58.4023 69.8563 57.4826 71.6848 56.6261C68.4182 53.9468 65.1201 51.1704 61.7912 48.3026C60.0175 49.0769 58.2704 49.9259 56.5498 50.8522C59.8181 53.7857 63.0581 56.6302 66.2657 59.3809ZM60.6937 62.6616C62.4849 61.5334 64.2968 60.4634 66.1311 59.454C62.9227 56.7033 59.6843 53.858 56.4161 50.9237C54.6507 51.8782 52.9144 52.915 51.2022 54.0191C54.394 56.985 57.5592 59.8702 60.6937 62.6608V62.6616ZM55.1583 66.3743C56.9411 65.1074 58.7439 63.8945 60.5691 62.7414C57.4354 59.9508 54.271 57.0656 51.0792 54.0997C49.3354 55.2287 47.6174 56.43 45.926 57.7019C49.0297 60.6711 52.1102 63.573 55.1583 66.3735V66.3743ZM49.6902 70.4717C51.4531 69.0818 53.2359 67.7418 55.0395 66.4574C51.9922 63.6569 48.9117 60.7558 45.8097 57.7875C44.0966 59.0793 42.4093 60.4451 40.7453 61.8724C43.7543 64.8216 46.7335 67.6786 49.691 70.4717H49.6902ZM44.2777 74.9437C46.0248 73.435 47.791 71.9729 49.5772 70.5622C46.6213 67.77 43.6438 64.9155 40.6364 61.9671C38.96 63.4093 37.3059 64.9138 35.6751 66.4798C38.5662 69.3734 41.434 72.1955 44.2777 74.9437ZM38.9384 79.7447C40.6639 78.133 42.406 76.5604 44.168 75.0368C41.3268 72.2902 38.4607 69.4689 35.5712 66.5779C33.9296 68.158 32.3121 69.8004 30.7146 71.4935C33.476 74.3074 36.2201 77.0638 38.9384 79.7447ZM33.6638 84.8457C35.371 83.1393 37.094 81.4702 38.8345 79.8419C36.1179 77.1635 33.3772 74.4087 30.6174 71.5974C29.0057 73.3088 27.4139 75.0708 25.8429 76.8844C28.4707 79.601 31.0751 82.2487 33.6638 84.8457ZM28.4449 90.2232C30.1355 88.4313 31.8411 86.67 33.5633 84.947C30.9771 82.3525 28.3751 79.7074 25.7499 76.9932C24.1714 78.8168 22.6137 80.6902 21.0727 82.6034C23.5467 85.1954 26.0058 87.7384 28.4449 90.2241V90.2232ZM23.2817 95.8343C24.9557 93.9708 26.643 92.1323 28.346 90.3262C25.9094 87.8439 23.4536 85.3034 20.9821 82.7139C19.4311 84.6421 17.8983 86.6119 16.3805 88.6165C18.6958 91.0673 20.9971 93.4757 23.2817 95.8343ZM18.1533 101.661C19.8182 99.7331 21.4955 97.824 23.187 95.9406C20.9048 93.5854 18.6069 91.1803 16.2941 88.732C14.7638 90.7566 13.2485 92.8152 11.7481 94.903C13.8973 97.2 16.0299 99.4439 18.1533 101.661ZM103.224 57.2068C104.148 56.9775 105.075 56.7607 106.007 56.5571C101.821 54.506 97.5915 52.3277 93.3172 50.0123C92.7016 50.1104 92.0893 50.2159 91.4787 50.3288C95.434 52.7422 99.3486 55.0318 103.224 57.2076V57.2068ZM98.7513 58.4272C100.164 58.0077 101.586 57.6164 103.018 57.2575C99.1409 55.0784 95.2255 52.7863 91.2677 50.3704C90.024 50.6047 88.7895 50.8688 87.5649 51.1629C91.3317 53.6976 95.061 56.1193 98.7513 58.4272ZM93.5498 60.1211C95.2089 59.5338 96.882 58.9871 98.5693 58.482C94.8766 56.17 91.1456 53.7475 87.3764 51.2095C85.8129 51.5883 84.2651 52.0128 82.7332 52.4864C86.3745 55.1382 89.9817 57.687 93.5498 60.122V60.1211ZM87.9646 62.2695C89.7549 61.5268 91.5601 60.8298 93.382 60.1809C89.813 57.7443 86.2041 55.1913 82.5612 52.5379C80.8357 53.0745 79.1301 53.6702 77.4437 54.3199C80.9853 57.0714 84.4944 59.729 87.9654 62.2695H87.9646ZM82.1973 64.8391C84.0516 63.9551 85.9217 63.1202 87.8092 62.3343C84.3391 59.793 80.8291 57.1345 77.2883 54.3813C75.4881 55.0792 73.7102 55.8418 71.9515 56.6601C75.4 59.4864 78.8161 62.2155 82.1965 64.8391H82.1973ZM76.3454 67.8124C78.2304 66.7972 80.1321 65.826 82.052 64.908C78.6716 62.2836 75.2563 59.5545 71.8086 56.7274C69.9784 57.5831 68.1706 58.5036 66.3837 59.4814C69.7366 62.3542 73.0581 65.1323 76.3454 67.8116V67.8124ZM70.4553 71.1621C72.3552 70.0231 74.2735 68.9306 76.2083 67.8863C72.921 65.2071 69.6004 62.4282 66.2482 59.5554C64.4131 60.5639 62.5987 61.6323 60.8059 62.7613C64.0508 65.6491 67.2701 68.4571 70.4544 71.1629L70.4553 71.1621ZM64.5933 74.8507C66.4875 73.6045 68.3974 72.3982 70.3248 71.2401C67.1422 68.5352 63.9246 65.728 60.6813 62.8411C58.8552 63.9942 57.0508 65.2079 55.2663 66.4749C58.4058 69.3576 61.5112 72.139 64.5933 74.8515V74.8507ZM58.7431 78.8641C60.6356 77.5133 62.5438 76.2007 64.4696 74.9321C61.3891 72.2213 58.2853 69.4407 55.1475 66.5588C53.3431 67.8431 51.5594 69.1815 49.7957 70.5722C52.8031 73.4109 55.7889 76.1849 58.7431 78.865V78.8641ZM52.9401 83.1584C54.8193 81.7187 56.7143 80.3146 58.6243 78.9489C55.6717 76.2705 52.6876 73.4974 49.6827 70.6611C47.8965 72.0717 46.1295 73.5339 44.3816 75.0426C47.2593 77.8223 50.1105 80.5232 52.9401 83.1584ZM47.1613 87.7293C49.0347 86.2031 50.9222 84.7078 52.8255 83.2473C49.9976 80.6137 47.1489 77.9146 44.2727 75.1365C42.5098 76.6609 40.7669 78.2327 39.0397 79.8453C41.7671 82.5336 44.4771 85.1722 47.1613 87.7293ZM41.4356 92.5228C43.2924 90.9277 45.1633 89.3584 47.0492 87.8198C44.3683 85.2644 41.66 82.6283 38.9359 79.9425C37.1954 81.5708 35.4716 83.239 33.7643 84.9462C36.3414 87.5307 38.8976 90.0546 41.4356 92.5228ZM35.7249 97.5398C37.5792 95.8758 39.4468 94.2317 41.3276 92.615C38.7921 90.1493 36.2384 87.6279 33.6646 85.0467C31.9416 86.7706 30.2352 88.5318 28.5438 90.3246C30.9538 92.7795 33.3489 95.1871 35.7249 97.5398ZM30.0475 102.733C31.8926 101.016 33.7485 99.3152 35.6186 97.6354C33.2451 95.2851 30.8533 92.88 28.4466 90.4284C26.7435 92.2354 25.0554 94.0739 23.3814 95.9364C25.6178 98.2443 27.8409 100.512 30.0483 102.733H30.0475ZM24.3816 108.086C26.2243 106.322 28.0777 104.567 29.9436 102.83C27.7388 100.613 25.5189 98.3473 23.2858 96.0428C21.5944 97.927 19.9171 99.8361 18.2514 101.764C20.3083 103.911 22.3496 106.013 24.3816 108.086V108.086ZM122.08 63.7541C125.976 64.7111 129.843 65.5834 133.678 66.3777C124.988 63.7159 116.118 60.5864 107.06 56.9061C112.13 59.3693 117.137 61.6506 122.08 63.7541ZM116.002 64.0465C117.131 63.7142 118.264 63.396 119.402 63.0936L119.417 63.0895L119.434 63.0936C120.021 63.2432 120.606 63.3894 121.192 63.5348C116.264 61.4204 111.273 59.1325 106.218 56.6601C105.278 56.8629 104.342 57.0822 103.41 57.3123C107.655 59.6916 111.853 61.938 116.002 64.0473V64.0465ZM110.834 65.6748C112.48 65.1224 114.135 64.599 115.799 64.1063C111.649 61.9937 107.449 59.744 103.205 57.3613C101.765 57.7202 100.336 58.109 98.9149 58.5294C102.933 61.04 106.905 63.4176 110.834 65.674V65.6748ZM105.113 67.726C106.947 67.0273 108.792 66.3627 110.649 65.7363C106.721 63.4783 102.748 61.0973 98.7313 58.585C97.0399 59.0893 95.3626 59.6351 93.6985 60.2217C97.545 62.8436 101.35 65.3442 105.113 67.7252V67.726ZM99.106 70.1518C101.04 69.3261 102.987 68.5385 104.945 67.79C101.182 65.4073 97.3772 62.9059 93.5307 60.2823C91.7055 60.9303 89.8961 61.6273 88.1025 62.3692C91.811 65.0817 95.4764 67.6678 99.106 70.1518ZM92.9326 72.9308C94.9247 71.9887 96.9294 71.0823 98.9482 70.2183C95.3194 67.7343 91.6548 65.1473 87.9463 62.434C86.0555 63.2199 84.1812 64.0557 82.3245 64.9388C85.8968 67.7094 89.4342 70.377 92.9317 72.9299L92.9326 72.9308ZM86.6951 76.0196C88.7114 74.977 90.7402 73.9692 92.7839 73.0014C89.2871 70.4476 85.7506 67.7792 82.1799 65.0077C80.2583 65.9257 78.3542 66.8952 76.4667 67.9113C79.9111 70.7159 83.3205 73.4193 86.6951 76.0204V76.0196ZM80.4087 79.4074C82.4441 78.2668 84.4919 77.161 86.5547 76.0927C83.1818 73.4924 79.7732 70.789 76.3305 67.9844C74.3939 69.0295 72.4749 70.1211 70.5724 71.2601C73.8838 74.0714 77.1621 76.7872 80.4087 79.4074ZM74.1297 83.0529C76.1643 81.8308 78.213 80.6403 80.2749 79.4839C77.03 76.8636 73.7518 74.1495 70.442 71.3382C68.5129 72.4963 66.6013 73.7034 64.7055 74.9495C67.8765 77.7384 71.0177 80.4401 74.1297 83.0529ZM67.8483 86.9442C69.8853 85.644 71.9365 84.373 73.9993 83.1318C70.8897 80.5207 67.7503 77.819 64.5809 75.0318C62.6552 76.3004 60.7452 77.613 58.8527 78.9638C61.8792 81.7078 64.8758 84.363 67.8483 86.945V86.9442ZM61.5702 91.059C63.6081 89.6891 65.6592 88.3424 67.7229 87.0248C64.752 84.4436 61.7579 81.7901 58.7339 79.0477C56.8223 80.4135 54.9265 81.8175 53.0465 83.2581C55.9101 85.924 58.7564 88.5393 61.5702 91.059ZM55.3228 95.3582C57.3524 93.931 59.3936 92.5245 61.4472 91.1421C58.6359 88.624 55.7913 86.0096 52.931 83.3469C51.0277 84.8066 49.1394 86.3028 47.266 87.829C49.9751 90.4093 52.6569 92.9075 55.322 95.3591L55.3228 95.3582ZM49.0754 99.8369C51.1066 98.3548 53.1487 96.8877 55.2032 95.4421C52.5397 92.993 49.8605 90.4966 47.1547 87.9187C45.268 89.4573 43.3971 91.0274 41.5395 92.6225C44.07 95.0824 46.5831 97.49 49.0762 99.8369H49.0754ZM42.8247 104.473C44.8584 102.943 46.9021 101.424 48.9583 99.9225C46.4684 97.5772 43.9579 95.173 41.4307 92.7155C39.549 94.3322 37.6814 95.9763 35.8263 97.6412C38.1749 99.9657 40.5085 102.245 42.8247 104.473V104.473ZM36.5856 109.228C38.6168 107.663 40.6572 106.105 42.7092 104.56C40.3955 102.335 38.0652 100.058 35.72 97.7367C33.8499 99.4157 31.994 101.117 30.1488 102.833C32.3072 105.004 34.4539 107.139 36.5856 109.228ZM30.3341 114.09C32.3695 112.494 34.4148 110.901 36.471 109.316C34.3434 107.231 32.1992 105.098 30.0441 102.931C28.1782 104.669 26.324 106.423 24.4813 108.188C26.4436 110.189 28.3942 112.156 30.3341 114.09ZM149.271 70.5705C152.524 70.6711 155.76 70.7342 158.978 70.7641C151.684 69.817 144.274 68.6307 136.746 67.1478C140.963 68.3939 145.139 69.5321 149.272 70.5714L149.271 70.5705ZM138.107 70.0754C141.619 70.2798 145.111 70.4368 148.582 70.549C144.162 69.4282 139.693 68.1929 135.176 66.8329C131.125 66.0146 127.038 65.1074 122.918 64.108C128.048 66.2755 133.111 68.2602 138.107 70.0754ZM129.665 70.6096C130.59 70.303 131.515 70.0015 132.443 69.7082L132.456 69.7049H132.468C134.184 69.8312 135.894 69.9442 137.6 70.0455C132.481 68.1771 127.293 66.1318 122.035 63.8928C121.165 63.6801 120.293 63.4617 119.419 63.239C118.34 63.5265 117.265 63.8289 116.194 64.1421C120.74 66.4499 125.23 68.6025 129.665 70.6079V70.6096ZM123.668 72.6965C125.591 71.9961 127.522 71.3224 129.461 70.6769C125.026 68.6681 120.536 66.5131 115.989 64.2019C114.318 64.6945 112.657 65.2187 111.004 65.772C115.277 68.2228 119.497 70.5274 123.667 72.6965H123.668ZM117.302 75.1198C119.353 74.3049 121.413 73.519 123.482 72.7638C119.312 70.5922 115.092 68.2859 110.819 65.8335C108.956 66.4599 107.105 67.1245 105.265 67.824C109.325 70.3903 113.337 72.8203 117.302 75.1207V75.1198ZM110.749 77.829C112.867 76.9193 114.994 76.0378 117.131 75.1871C113.168 72.8851 109.157 70.4542 105.098 67.8872C103.135 68.6357 101.185 69.4233 99.2481 70.249C103.125 72.9 106.96 75.4272 110.749 77.829ZM104.086 80.7948C106.244 79.8012 108.411 78.835 110.588 77.8979C106.8 75.4962 102.967 72.9665 99.0902 70.3155C97.069 71.1795 95.061 72.085 93.0655 73.0271C96.7807 75.7371 100.452 78.3191 104.086 80.7948H104.086ZM97.3572 83.9941C99.5397 82.9258 101.731 81.8815 103.933 80.8654C100.301 78.3889 96.6311 75.8077 92.9176 73.0977C90.8722 74.0664 88.8402 75.0733 86.8214 76.1168C90.3713 78.85 93.8838 81.4769 97.3572 83.9933V83.9941ZM90.5914 87.4019C92.7888 86.2663 94.9945 85.153 97.2118 84.0656C93.7392 81.55 90.2292 78.9231 86.681 76.1899C84.6166 77.2591 82.5662 78.3648 80.5292 79.5055C83.9187 82.2395 87.2717 84.8681 90.5914 87.4019ZM83.8124 90.9909C86.0147 89.7971 88.2279 88.6248 90.4502 87.4742C87.1321 84.942 83.7808 82.3135 80.3938 79.5811C78.3309 80.7375 76.2814 81.9288 74.2461 83.1501C77.4645 85.8517 80.6554 88.4711 83.8124 90.9909ZM77.0283 94.7443C79.234 93.5006 81.4497 92.2727 83.6753 91.0656C80.5217 88.5484 77.3332 85.929 74.1173 83.229C72.052 84.4702 70 85.7429 67.9613 87.043C71.0119 89.6924 74.0342 92.2595 77.0291 94.7443H77.0283ZM70.2318 98.6431C72.4433 97.3537 74.6639 96.0785 76.8946 94.8191C73.903 92.3359 70.8831 89.7705 67.8358 87.1228C65.7714 88.4404 63.7202 89.7871 61.6815 91.157C64.5585 93.7324 67.4047 96.2139 70.2318 98.6431ZM63.4236 102.673C65.6393 101.344 67.8649 100.025 70.1005 98.7204C67.2751 96.2928 64.433 93.8138 61.5585 91.2409C59.5032 92.6233 57.4612 94.0307 55.4308 95.4579C58.1167 97.927 60.7818 100.333 63.4236 102.674V102.673ZM56.5997 106.813C58.822 105.451 61.0534 104.095 63.2949 102.75C60.6555 100.412 57.9937 98.0084 55.3112 95.5418C53.2558 96.9874 51.213 98.4545 49.1809 99.9374C51.6716 102.281 54.1464 104.58 56.5997 106.813ZM49.7558 111.044C51.9856 109.655 54.2253 108.269 56.4734 106.89C54.0235 104.659 51.5519 102.363 49.0646 100.023C47.0076 101.525 44.9623 103.044 42.9285 104.575C45.2198 106.777 47.4961 108.935 49.7558 111.045V111.044ZM42.8978 115.34C45.1326 113.933 47.3765 112.526 49.6304 111.122C47.374 109.015 45.101 106.86 42.8131 104.661C40.7611 106.206 38.7199 107.764 36.6895 109.329C38.7705 111.368 40.8425 113.378 42.8978 115.34ZM36.0057 119.687C38.2521 118.268 40.5077 116.844 42.7732 115.419C40.7212 113.46 38.6534 111.453 36.5756 109.417C34.5195 111.003 32.4733 112.597 30.4371 114.193C32.303 116.052 34.1606 117.89 36.0057 119.688V119.687ZM172.133 72.0909C174.901 71.619 177.661 71.1405 180.41 70.6603C174.153 70.8513 167.822 70.9519 161.421 70.9261C165.02 71.3689 168.591 71.7561 172.133 72.0909ZM162.764 73.6569C165.714 73.175 168.654 72.6832 171.584 72.1847C167.816 71.8233 164.016 71.4046 160.184 70.9195C156.79 70.897 153.374 70.8381 149.939 70.7375C154.26 71.8134 158.534 72.7837 162.764 73.6569ZM153.3 75.1581C156.331 74.692 159.352 74.2126 162.362 73.7225C158.039 72.8253 153.67 71.8267 149.253 70.7168C145.719 70.6079 142.164 70.4534 138.587 70.2499C143.556 72.046 148.46 73.6768 153.3 75.1581H153.3ZM144.251 76.7747C144.662 76.6235 145.074 76.4732 145.485 76.3236L145.491 76.3211H145.499C147.995 75.9606 150.486 75.5892 152.97 75.2087C148.072 73.705 143.109 72.046 138.08 70.22C136.216 70.1111 134.346 69.989 132.471 69.8519C131.599 70.1277 130.73 70.4102 129.862 70.6977C134.724 72.8925 139.519 74.913 144.25 76.7747H144.251ZM137.304 79.4C139.546 78.5285 141.793 77.6778 144.045 76.8495C139.314 74.9853 134.518 72.9623 129.658 70.7649C127.711 71.4113 125.773 72.0859 123.842 72.787C128.389 75.1481 132.876 77.3496 137.304 79.4ZM130.19 82.2379C132.494 81.2966 134.803 80.3736 137.116 79.4739C132.689 77.4219 128.203 75.2187 123.658 72.8552C121.583 73.6112 119.517 74.3979 117.461 75.2137C121.759 77.7044 126.001 80.0397 130.19 82.2379ZM122.977 85.2552C125.317 84.255 127.662 83.2722 130.013 82.3102C125.826 80.1103 121.586 77.7733 117.29 75.281C115.15 76.1317 113.02 77.0132 110.899 77.9229C114.975 80.5032 119.001 82.9482 122.977 85.2552ZM115.706 88.4263C118.067 87.3762 120.435 86.3419 122.81 85.3259C118.836 83.018 114.811 80.5722 110.738 77.9918C108.558 78.9289 106.387 79.8959 104.226 80.8904C108.097 83.5256 111.926 86.0436 115.706 88.4263ZM108.396 91.7327C110.773 90.6395 113.157 89.5611 115.546 88.4977C111.769 86.1151 107.942 83.5962 104.073 80.9602C101.868 81.9762 99.6743 83.0205 97.4893 84.0897C101.165 86.7506 104.803 89.3044 108.396 91.7327ZM101.062 95.1547C103.449 94.0257 105.843 92.9075 108.243 91.8025C104.653 89.3759 101.017 86.8212 97.3439 84.1611C95.125 85.2486 92.9168 86.3627 90.7177 87.4983C94.2028 90.156 97.6513 92.7089 101.062 95.1538V95.1547ZM93.7035 98.6771C96.1003 97.5166 98.5037 96.3651 100.913 95.2253C97.5051 92.7803 94.0591 90.2291 90.5765 87.5723C88.3533 88.722 86.1394 89.8951 83.9362 91.0889C87.2243 93.7116 90.4818 96.2455 93.7035 98.678V98.6771ZM86.3238 102.286C88.7289 101.1 91.1398 99.9191 93.5581 98.7478C90.3389 96.3161 87.0839 93.7848 83.7982 91.1628C81.5718 92.3699 79.3545 93.5978 77.1471 94.8423C80.2334 97.4019 83.2965 99.8951 86.3238 102.286ZM78.9216 105.964C81.335 104.757 83.7551 103.553 86.1826 102.356C83.1577 99.9665 80.098 97.4767 77.0142 94.9179C74.7827 96.1774 72.5604 97.4526 70.3481 98.7428C73.2292 101.216 76.092 103.638 78.9216 105.964ZM71.4904 109.698C73.9129 108.476 76.3429 107.253 78.7804 106.034C75.9533 103.711 73.0938 101.292 70.216 98.8192C67.9796 100.124 65.7531 101.444 63.5358 102.773C66.2067 105.138 68.8627 107.461 71.4896 109.698H71.4904ZM64.0284 113.473C66.4626 112.24 68.9034 111.004 71.3517 109.768C68.7281 107.533 66.0754 105.213 63.407 102.85C61.1648 104.195 58.9325 105.551 56.7093 106.913C59.1659 109.149 61.6084 111.346 64.0276 113.473H64.0284ZM56.5291 117.273C58.2205 116.417 59.9153 115.558 61.615 114.696L63.8913 113.542C61.4755 111.417 59.0355 109.224 56.5831 106.991C54.3333 108.371 52.0936 109.756 49.863 111.145C52.0994 113.233 54.3217 115.274 56.5291 117.272V117.273ZM48.9832 121.083C51.4448 119.845 53.9138 118.597 56.392 117.343C54.1888 115.348 51.9706 113.308 49.7384 111.224C47.4845 112.628 45.2406 114.036 43.0058 115.441C45.0088 117.354 47.0051 119.243 48.984 121.083H48.9832ZM41.3816 124.885C43.8615 123.653 46.3497 122.407 48.8469 121.152C46.8722 119.315 44.88 117.429 42.8812 115.521C40.6157 116.947 38.3601 118.371 36.1121 119.79C37.875 121.508 39.6379 123.224 41.3816 124.886V124.885ZM191.806 70.0688C194.202 69.2031 196.595 68.3516 198.984 67.5208C197.442 67.7941 195.896 68.0691 194.348 68.3441C190.41 69.0436 186.451 69.7481 182.474 70.4468C185.602 70.3413 188.714 70.2133 191.807 70.0688H191.806ZM183.767 73.0246C186.294 72.0767 188.818 71.1504 191.34 70.2366C188.061 70.3878 184.763 70.5199 181.444 70.627C178.538 71.1363 175.622 71.6431 172.696 72.1432C176.417 72.4896 180.107 72.7812 183.767 73.0246ZM175.771 76.0777C178.329 75.0874 180.886 74.1088 183.439 73.1493C179.705 72.8975 175.938 72.5976 172.139 72.2379C169.157 72.7463 166.165 73.2481 163.162 73.7391C167.41 74.6106 171.613 75.3873 175.771 76.0769V76.0777ZM167.777 79.2106C170.355 78.1854 172.931 77.1785 175.504 76.1807C171.302 75.4796 167.054 74.6912 162.76 73.8047C159.723 74.3007 156.677 74.7859 153.619 75.2561C158.401 76.7133 163.119 78.0259 167.777 79.2097V79.2106ZM159.811 82.419C162.392 81.3697 164.971 80.3279 167.548 79.3028C162.857 78.1073 158.104 76.7806 153.29 75.3076C150.708 75.7039 148.12 76.0902 145.524 76.464C145.168 76.5936 144.811 76.7241 144.454 76.8553C149.649 78.8949 154.768 80.7433 159.811 82.4198V82.419ZM151.838 85.6897C154.427 84.6172 157.015 83.5571 159.603 82.5046C154.56 80.8247 149.442 78.9729 144.248 76.9301C141.99 77.7592 139.736 78.6116 137.488 79.4847C142.34 81.727 147.124 83.7906 151.838 85.6897ZM143.87 89.017C146.462 87.9278 149.054 86.8428 151.646 85.7686C146.933 83.8679 142.151 81.8017 137.3 79.557C134.981 80.4584 132.667 81.3822 130.359 82.3251C134.925 84.7186 139.43 86.9467 143.871 89.017H143.87ZM135.899 92.3857C138.495 91.2825 141.092 90.185 143.689 89.0934C139.249 87.0215 134.747 84.7925 130.182 82.3982C127.827 83.3611 125.478 84.3439 123.134 85.3458C127.447 87.8456 131.7 90.1875 135.899 92.3857ZM127.92 95.7919C130.521 94.6778 133.123 93.5663 135.726 92.4597C131.53 90.2598 127.278 87.917 122.968 85.4164C120.591 86.4333 118.22 87.4676 115.856 88.5185C119.929 91.0839 123.95 93.5031 127.92 95.7911L127.92 95.7919ZM119.932 99.2205C122.537 98.0998 125.144 96.9799 127.753 95.8633C123.784 93.5746 119.766 91.1562 115.695 88.59C113.303 89.6533 110.918 90.7333 108.539 91.8266C112.384 94.4228 116.179 96.8769 119.933 99.2205H119.932ZM111.918 102.671L113.458 102.008C115.561 101.102 117.665 100.196 119.771 99.2903C116.02 96.9467 112.228 94.4934 108.385 91.8981C105.983 93.003 103.587 94.1212 101.198 95.2519C104.814 97.8422 108.385 100.308 111.919 102.671L111.918 102.671ZM103.88 106.129C106.504 105.002 109.13 103.872 111.759 102.74C108.227 100.377 104.659 97.9128 101.046 95.3233C98.635 96.464 96.2299 97.6163 93.8323 98.7768C97.2185 101.331 100.566 103.777 103.88 106.129ZM95.8261 109.58C98.4555 108.457 101.089 107.328 103.725 106.196C100.414 103.845 97.0698 101.4 93.6869 98.8475C91.2669 100.019 88.8543 101.2 86.4484 102.387C89.6078 104.879 92.729 107.265 95.8253 109.581L95.8261 109.58ZM87.7336 113.02C90.3763 111.902 93.0231 110.776 95.6741 109.645C92.5811 107.33 89.4624 104.947 86.3072 102.455C83.8788 103.653 81.458 104.857 79.0438 106.064C81.9697 108.467 84.8608 110.77 87.7344 113.02L87.7336 113.02ZM79.5946 116.442C82.2522 115.333 84.914 114.213 87.5807 113.085C84.7113 110.836 81.8243 108.536 78.9017 106.136C76.4642 107.355 74.0334 108.577 71.61 109.8C74.2967 112.086 76.9527 114.285 79.5946 116.442ZM71.4048 119.832C74.0791 118.735 76.7591 117.625 79.4442 116.505C76.8065 114.35 74.1538 112.154 71.4713 109.871C69.0222 111.107 66.5806 112.343 64.1472 113.576C66.5864 115.72 69.0022 117.795 71.4048 119.832ZM63.1553 123.178C65.8486 122.098 68.5486 121.002 71.2545 119.893C68.856 117.859 66.4443 115.786 64.0085 113.646L61.6749 114.829C59.9942 115.681 58.3177 116.53 56.6445 117.377C58.8295 119.354 60.9994 121.287 63.1553 123.178ZM54.8551 126.463C57.5642 125.406 60.2817 124.33 63.0057 123.239C60.8549 121.351 58.6891 119.42 56.5083 117.447C54.0301 118.701 51.5594 119.95 49.0978 121.189C51.0294 122.983 52.9468 124.735 54.8559 126.464L54.8551 126.463ZM46.4834 129.676C49.2158 128.645 51.9582 127.593 54.7072 126.521C52.8022 124.796 50.889 123.048 48.9616 121.257C46.4643 122.513 43.9753 123.759 41.4946 124.992C43.1686 126.585 44.8269 128.132 46.4834 129.677V129.676ZM37.8733 132.857C36.4801 131.522 35.0927 130.204 33.6879 128.837C20.4371 135.299 7.44305 141.267 -5.27436 146.205C8.75816 142.754 23.1787 138.169 37.8733 132.857ZM33.825 128.77C35.234 130.141 36.6255 131.465 38.0237 132.803C40.7852 131.803 43.5558 130.781 46.3347 129.732C44.6815 128.191 43.0274 126.648 41.3576 125.058C38.8378 126.31 36.3264 127.549 33.825 128.769V128.77ZM29.171 124.17C30.688 125.677 32.21 127.197 33.7136 128.663C36.2151 127.443 38.7257 126.205 41.2446 124.953C39.5041 123.295 37.7462 121.581 35.9866 119.868L35.2971 120.303C33.2468 121.598 31.2056 122.887 29.1702 124.169L29.171 124.17ZM24.1556 119.144C25.8006 120.81 27.4372 122.449 29.0672 124.067C31.1142 122.778 33.167 121.481 35.2281 120.179L35.882 119.766C34.041 117.972 32.1859 116.137 30.3241 114.281C28.258 115.901 26.2027 117.524 24.1556 119.144ZM18.8022 113.688C20.5651 115.509 22.3088 117.273 24.0543 119.041C26.1005 117.42 28.1558 115.798 30.2211 114.178C28.2846 112.248 26.3372 110.285 24.3783 108.287C22.5091 110.078 20.6506 111.881 18.8022 113.688ZM13.1504 107.771C15.0089 109.731 16.8656 111.685 18.7041 113.586C20.5518 111.778 22.4094 109.976 24.2786 108.185C22.249 106.114 20.2111 104.017 18.1583 101.873C16.4768 103.821 14.8087 105.789 13.1504 107.771ZM7.18302 101.401C9.14945 103.519 11.1084 105.617 13.0516 107.668C14.7098 105.686 16.378 103.718 18.0595 101.77C15.9393 99.5553 13.8101 97.3147 11.6634 95.0209C10.1563 97.1211 8.66345 99.2504 7.18219 101.401H7.18302ZM0.904068 94.564C2.97684 96.8445 5.03715 99.0884 7.08582 101.296C8.56709 99.1449 10.0591 97.0156 11.567 94.9154C9.35632 92.5527 7.1365 90.1601 4.89758 87.711C3.5509 89.9591 2.22084 92.247 0.904899 94.564H0.904068ZM-5.68809 87.2366C-3.50981 89.6857 -1.34732 92.0867 0.805206 94.4552C2.12198 92.1382 3.45204 89.8511 4.79872 87.603C2.50081 85.0883 0.183791 82.517 -2.14403 79.9101C-3.34283 82.306 -4.52335 84.7501 -5.68726 87.2366H-5.68809ZM-8.38477 0C-7.70437 0.789231 -7.02563 1.57348 -6.34689 2.35939C-3.75904 2.1816 -0.973471 2.56459 2.03391 3.56732L2.05136 3.57314L2.06382 3.58643C3.82671 5.56283 5.57881 7.50268 7.32592 9.42508C9.76173 9.26142 12.3396 9.49902 15.0745 10.1802L15.0936 10.1852L15.1077 10.2002C17.0991 12.3162 19.0796 14.3981 21.0486 16.4418C23.3024 16.2715 25.6527 16.3753 28.1143 16.794L28.135 16.7973L28.15 16.8123C30.3914 19.0495 32.6154 21.2303 34.8302 23.3812C36.8706 23.1967 38.9757 23.1976 41.154 23.4069L41.1764 23.4094L41.1931 23.4252C43.7111 25.7597 46.2093 28.0277 48.6941 30.2525C50.486 30.0547 52.3171 29.9717 54.1946 30.0215H54.2187L54.237 30.0373C57.0707 32.4382 59.8821 34.7685 62.6743 37.0365C64.1721 36.8355 65.6908 36.6959 67.2369 36.6361H67.2601L67.2792 36.6494C70.4951 39.0869 73.6803 41.4296 76.8422 43.6993C77.977 43.5182 79.121 43.3662 80.2774 43.2499L80.3007 43.2474L80.3198 43.2598C84.0117 45.6857 87.6696 48.0035 91.2926 50.2167C91.9647 50.0904 92.6401 49.9716 93.318 49.8636L93.3396 49.8603L93.3596 49.8711C97.697 52.2205 101.989 54.4295 106.235 56.5065C106.276 56.4973 106.318 56.4873 106.359 56.4782L106.379 56.474L106.398 56.4815C116.218 60.4991 125.819 63.8654 135.21 66.6909C143.684 68.4031 152.01 69.7381 160.19 70.7733C167.36 70.8206 174.441 70.7068 181.432 70.4817C185.754 69.724 190.051 68.9597 194.325 68.2004C196.168 67.8722 198.005 67.5465 199.839 67.2209C277.651 40.2824 351.871 32.8038 407 100.211V100.435C352.118 33.2158 278.256 40.3704 200.766 67.0572C281.021 52.8394 352.292 42.1707 407 109.083V109.305C352.114 42.061 280.511 53.0646 199.878 67.3638C197.356 68.2369 194.83 69.1358 192.301 70.0472C204.557 69.4656 216.527 68.6182 228.206 67.79C298.634 62.8012 358.507 58.5643 406.999 117.934V118.162C358.526 58.7113 298.653 62.9466 228.215 67.9362C216.385 68.7744 204.257 69.6326 191.834 70.215C189.264 71.1438 186.693 72.085 184.118 73.0496C206.234 74.5051 227.231 74.2318 247.178 73.9709C310.172 73.1484 362.702 72.4755 407 126.802V127.027C362.716 72.6217 310.185 73.2955 247.18 74.1171C227.133 74.3788 206.026 74.6538 183.788 73.1733C181.213 74.1395 178.634 75.1273 176.054 76.1251C205.943 81.0632 233.534 81.6347 259.155 82.1639C317.281 83.3661 365.275 84.3638 406.999 135.646V135.873C365.285 84.5117 317.29 83.5123 259.152 82.3102C233.455 81.7793 205.777 81.2069 175.784 76.2289C173.197 77.2308 170.608 78.2427 168.018 79.2729C204.531 88.5193 237.33 89.8527 267.211 91.0665C321.972 93.2913 366.935 95.1223 406.999 144.493V144.718C366.942 95.2668 321.977 93.4375 267.206 91.2127C237.263 89.9956 204.389 88.6589 167.786 79.3642C165.2 80.3927 162.612 81.4378 160.023 82.4904C202.43 96.552 239.55 98.4861 272.824 100.215C325.177 102.935 368.022 105.17 406.999 153.345V153.57C368.027 105.315 325.182 103.081 272.817 100.36C239.489 98.629 202.305 96.6916 159.814 82.5743C157.221 83.6294 154.626 84.692 152.031 85.767C199.853 104.989 240.692 107.346 276.801 109.424C327.397 112.336 368.721 114.725 406.999 162.19V162.416C368.725 114.871 327.401 112.482 276.794 109.569C240.636 107.488 199.74 105.127 151.838 85.8459C149.241 86.9218 146.644 88.0076 144.046 89.0992C196.943 113.717 241.065 116.335 279.626 118.618C328.928 121.537 369.145 123.929 406.999 171.033V171.26C369.147 124.075 328.93 121.684 279.619 118.764C241.014 116.478 196.837 113.857 143.866 89.1756C141.266 90.2681 138.666 91.3672 136.066 92.4721C193.783 122.657 240.87 125.401 281.606 127.767C329.954 130.574 369.365 132.874 406.999 179.876V180.103C369.365 133.02 329.955 130.721 281.599 127.913C240.821 125.545 193.682 122.799 135.892 92.5461C133.286 93.6535 130.679 94.7667 128.074 95.8824C190.426 131.769 240.234 134.511 282.946 136.856C330.599 139.473 369.428 141.616 406.999 188.717V188.944C369.428 141.763 330.601 139.619 282.939 137.002C240.187 134.654 190.329 131.91 127.908 95.9539C125.298 97.0721 122.688 98.1928 120.081 99.3144C186.918 141 239.257 143.647 283.791 145.886C330.951 148.257 369.369 150.201 406.999 197.558V197.786C369.369 150.347 330.952 148.405 283.784 146.033C239.213 143.791 186.825 141.141 119.919 99.385C117.782 100.305 115.644 101.224 113.509 102.144L112.062 102.767C183.28 150.345 238 152.797 284.242 154.858C331.069 156.946 369.212 158.657 406.999 206.399V206.628C369.212 158.803 331.07 157.093 284.237 155.005C237.957 152.941 183.189 150.489 111.903 102.837C109.272 103.97 106.644 105.101 104.018 106.23C179.533 159.781 236.514 161.954 284.378 163.777C331 165.552 368.976 167.009 406.999 215.241V215.47C368.974 167.155 331.001 165.699 284.373 163.923C236.474 162.099 179.445 159.923 103.862 106.296C101.224 107.429 98.5901 108.558 95.959 109.682C175.696 169.263 234.845 171.114 284.253 172.645C330.775 174.087 368.672 175.272 406.998 224.081V224.31C368.671 175.417 330.777 174.234 284.25 172.792C234.806 171.259 175.611 169.406 95.8062 109.748C93.1544 110.88 90.5067 112.007 87.8632 113.125C171.778 178.808 233.015 180.272 283.915 181.468C329.178 182.533 366.278 183.414 403.89 229.05H403.706C366.155 183.557 329.107 182.677 283.913 181.615C232.978 180.417 171.694 178.953 87.712 113.19C85.0436 114.319 82.381 115.439 79.7225 116.549C167.783 188.41 231.048 189.429 283.397 190.251C325.651 190.915 360.803 191.477 396.151 229.05H395.952C360.67 191.621 325.573 191.06 283.396 190.397C231.011 189.574 167.7 188.555 79.5721 116.612C76.8854 117.733 74.2054 118.843 71.5303 119.94C163.72 198.059 228.961 198.582 282.727 198.998C321.606 199.298 354.492 199.562 387.232 229.05H387.013C354.345 199.706 321.522 199.443 282.727 199.143C228.926 198.728 163.639 198.205 71.3807 120.001C68.6741 121.111 65.9733 122.207 63.2799 123.288C159.592 207.752 226.77 207.731 281.926 207.71C316.819 207.697 346.905 207.692 376.514 229.05H376.259C346.733 207.839 316.722 207.843 281.926 207.856C226.734 207.878 159.51 207.899 63.1295 123.349C60.4038 124.441 57.6855 125.518 54.9747 126.575C155.402 217.458 224.487 216.878 281.012 216.393C310.753 216.138 337.019 215.921 362.546 229.049H362.22C336.797 216.068 310.629 216.285 281.014 216.539C224.454 217.024 155.323 217.603 54.8268 126.633C52.077 127.705 49.3346 128.758 46.6014 129.789C151.153 227.185 222.123 226.021 280.001 225.05C301.389 224.691 320.991 224.368 339.842 229.049H339.227C320.567 224.518 301.16 224.84 280.004 225.196C222.091 226.167 151.073 227.332 46.4535 129.846C43.6737 130.894 40.9023 131.918 38.1408 132.917C103.949 195.895 156.612 220.087 201.07 229.049H200.338C155.996 219.968 103.504 195.683 37.9913 132.971C22.8854 138.434 8.06779 143.133 -6.33692 146.621C-7.01981 146.883 -7.7027 147.143 -8.38393 147.399V147.241C-8.07073 147.123 -7.75753 147.005 -7.4435 146.886C-7.75753 146.961 -8.07073 147.035 -8.38393 147.109V146.957C-7.71683 146.801 -7.04806 146.642 -6.37846 146.48C6.65465 141.473 19.9819 135.361 33.5782 128.732C32.0795 127.271 30.5617 125.754 29.0489 124.25C16.3082 132.276 3.85247 139.988 -8.3831 146.608V146.443C3.81841 139.838 16.2392 132.15 28.9442 124.147C27.3184 122.532 25.6859 120.896 24.0443 119.235C22.2407 120.663 20.4438 122.09 18.6543 123.511C9.49256 130.787 0.505299 137.924 -8.38393 144.457V144.277C0.477883 137.762 9.43773 130.648 18.572 123.393C20.3557 121.977 22.146 120.555 23.9438 119.132C22.2025 117.368 20.4612 115.606 18.7025 113.79C14.6899 117.717 10.7229 121.668 6.79173 125.586C1.68499 130.675 -3.3636 135.705 -8.3831 140.55V140.352C-3.39516 135.536 1.62268 130.536 6.69785 125.479C10.6282 121.563 14.5935 117.613 18.6044 113.687C16.7693 111.79 14.9158 109.839 13.0607 107.882C7.81524 114.156 2.67859 120.562 -2.40073 126.897C-4.40289 129.393 -6.3959 131.879 -8.3831 134.341V134.117C-6.4308 131.698 -4.47267 129.255 -2.50624 126.803C2.57475 120.465 7.71389 114.057 12.9619 107.78C11.0212 105.732 9.06472 103.638 7.10161 101.523C1.81542 109.205 -3.31624 117.16 -8.38393 125.066V124.807C-3.34864 116.952 1.75145 109.05 7.00358 101.418C4.95822 99.2138 2.90041 96.9732 0.83096 94.6961C-2.30852 100.228 -5.3699 105.932 -8.38393 111.704V111.401C-5.40147 105.696 -2.37332 100.057 0.732099 94.5864C-1.4171 92.2204 -3.57627 89.8236 -5.75206 87.3778C-6.63849 89.2737 -7.51495 91.1936 -8.38393 93.1334V92.7928C-7.54818 90.9311 -6.70495 89.0867 -5.85341 87.264C-6.69581 86.317 -7.53904 85.3657 -8.38393 84.4087V84.1943C-7.51661 85.1763 -6.65178 86.1525 -5.78778 87.1236C-4.62387 84.638 -3.44335 82.1947 -2.24455 79.7996C-4.2791 77.5216 -6.32612 75.2004 -8.38393 72.8485V72.6333C-6.30286 75.0127 -4.23258 77.3596 -2.17642 79.6633C-0.976794 77.2699 0.241114 74.9238 1.48228 72.6375C-1.04658 69.8212 -3.59372 66.9467 -6.15747 64.0191C-6.91098 65.6524 -7.65286 67.3189 -8.38393 69.0162V68.6639C-7.68609 67.0489 -6.97744 65.4613 -6.25883 63.9045C-6.96581 63.0969 -7.67446 62.2853 -8.38393 61.4686V61.2535C-7.65286 62.095 -6.92261 62.9316 -6.19403 63.7632C-5.07996 61.3548 -3.93932 59.0204 -2.7696 56.7665C-4.63135 54.6513 -6.50307 52.5071 -8.38393 50.333V50.117C-6.47981 52.3194 -4.58483 54.4918 -2.69898 56.6327C-1.5251 54.3772 -0.32381 52.2014 0.913206 50.1228C-1.90476 46.946 -4.746 43.6976 -7.60717 40.3837C-7.86803 40.8672 -8.1264 41.3574 -8.3831 41.8525V41.5493C-8.1588 41.1181 -7.93283 40.6919 -7.7052 40.2707L-8.3831 39.4848V39.268L-7.63292 40.1378C-6.46652 37.9828 -5.25775 35.9466 -4.00412 34.0391C-5.4588 32.3684 -6.91763 30.682 -8.38227 28.9781V28.7612C-6.89021 30.4976 -5.40396 32.2148 -3.9227 33.9162C-2.65246 31.9929 -1.33569 30.201 0.0325909 28.5569C-2.75298 25.3933 -5.55516 22.1766 -8.38227 18.8817V18.6641C-5.52443 21.9971 -2.6915 25.2487 0.124806 28.4472C1.51468 26.7865 2.9569 25.2737 4.45727 23.927C1.57118 20.697 -1.33236 17.4096 -4.26332 14.0375C-5.69972 15.1242 -7.07049 16.3961 -8.38227 17.8366V17.6215C-7.09957 16.2241 -5.75953 14.9879 -4.35886 13.9262C-5.6939 12.3893 -7.0356 10.8307 -8.38227 9.2556V9.03794C-6.99821 10.6571 -5.6183 12.2597 -4.24587 13.8398C-2.60926 12.6136 -0.889564 11.6241 0.920683 10.8914C-1.50101 8.1565 -3.9443 5.35265 -6.39757 2.51557C-7.07298 2.56459 -7.73427 2.65265 -8.38144 2.77809V2.62191C-7.77332 2.5056 -7.15273 2.42169 -6.52052 2.37185C-7.14027 1.65489 -7.76086 0.937109 -8.38144 0.217662V0.00249221L-8.38477 0Z" fill="url(#paint1_linear_312_626)" fill-opacity="0.2"/>
</g>
<defs>
<linearGradient id="paint0_linear_312_626" x1="83.3176" y1="13.5289" x2="279.066" y2="50.6207" gradientUnits="userSpaceOnUse">
<stop stop-color="#18A7B7"/>
<stop offset="1" stop-color="#1F88BF"/>
</linearGradient>
<linearGradient id="paint1_linear_312_626" x1="38.24" y1="-9.51985e-07" x2="272.133" y2="81.2957" gradientUnits="userSpaceOnUse">
<stop stop-color="white" stop-opacity="0.08"/>
<stop offset="1" stop-color="white" stop-opacity="0.08"/>
</linearGradient>
</defs>
</svg>
