<svg width="24" height="24" viewBox="0 0 24 24" fill="none" xmlns="http://www.w3.org/2000/svg">
<path d="M16.4998 9.50005C14.7998 9.50005 13.0998 8.90005 11.3998 7.80005C8.69982 6.00005 6.19982 6.00005 3.49982 7.80005C3.09982 8.10005 2.49982 8.00005 2.19982 7.60005C1.89982 7.10005 1.99982 6.50005 2.39982 6.20005C5.79982 4.00005 9.19982 4.00005 12.4998 6.20005C15.1998 8.00005 17.6998 8.00005 20.3998 6.20005C20.8998 5.90005 21.4998 6.00005 21.7998 6.50005C22.0998 7.00005 21.9998 7.60005 21.4998 7.90005C19.8998 9.00005 18.1998 9.50005 16.4998 9.50005Z" fill="url(#paint0_linear_319_1064)"/>
<path d="M16.4998 9.50005C14.7998 9.50005 13.0998 8.90005 11.3998 7.80005C8.69982 6.00005 6.19982 6.00005 3.49982 7.80005C3.09982 8.10005 2.49982 8.00005 2.19982 7.60005C1.89982 7.10005 1.99982 6.50005 2.39982 6.20005C5.79982 4.00005 9.19982 4.00005 12.4998 6.20005C15.1998 8.00005 17.6998 8.00005 20.3998 6.20005C20.8998 5.90005 21.4998 6.00005 21.7998 6.50005C22.0998 7.00005 21.9998 7.60005 21.4998 7.90005C19.8998 9.00005 18.1998 9.50005 16.4998 9.50005Z" fill="url(#paint1_linear_319_1064)" fill-opacity="0.2"/>
<path d="M16.5004 19.5C14.8004 19.5 13.1004 18.9 11.4004 17.8C8.70039 16 6.20039 16 3.50039 17.8C3.00039 18.1 2.40039 18 2.10039 17.5C1.80039 17 1.90039 16.4 2.40039 16.1C5.80039 13.9 9.20039 13.9 12.5004 16.1C15.2004 17.9 17.7004 17.9 20.4004 16.1C20.9004 15.8 21.5004 15.9 21.8004 16.4C22.1004 16.9 22.0004 17.5 21.5004 17.8C19.9004 19 18.2004 19.5 16.5004 19.5Z" fill="url(#paint2_linear_319_1064)"/>
<path d="M16.5004 19.5C14.8004 19.5 13.1004 18.9 11.4004 17.8C8.70039 16 6.20039 16 3.50039 17.8C3.00039 18.1 2.40039 18 2.10039 17.5C1.80039 17 1.90039 16.4 2.40039 16.1C5.80039 13.9 9.20039 13.9 12.5004 16.1C15.2004 17.9 17.7004 17.9 20.4004 16.1C20.9004 15.8 21.5004 15.9 21.8004 16.4C22.1004 16.9 22.0004 17.5 21.5004 17.8C19.9004 19 18.2004 19.5 16.5004 19.5Z" fill="url(#paint3_linear_319_1064)" fill-opacity="0.2"/>
<path d="M16.5004 14.5C14.8004 14.5 13.1004 13.9 11.4004 12.8C8.70039 11 6.20039 11 3.50039 12.8C3.00039 13.1 2.40039 13 2.10039 12.5C1.80039 12 1.90039 11.4 2.40039 11.1C5.80039 8.89995 9.20039 8.89995 12.5004 11.1C15.2004 12.9 17.7004 12.9 20.4004 11.1C20.9004 10.8 21.5004 10.9 21.8004 11.4C22.1004 11.9 22.0004 12.5 21.5004 12.8C19.9004 14 18.2004 14.5 16.5004 14.5Z" fill="url(#paint4_linear_319_1064)"/>
<path d="M16.5004 14.5C14.8004 14.5 13.1004 13.9 11.4004 12.8C8.70039 11 6.20039 11 3.50039 12.8C3.00039 13.1 2.40039 13 2.10039 12.5C1.80039 12 1.90039 11.4 2.40039 11.1C5.80039 8.89995 9.20039 8.89995 12.5004 11.1C15.2004 12.9 17.7004 12.9 20.4004 11.1C20.9004 10.8 21.5004 10.9 21.8004 11.4C22.1004 11.9 22.0004 12.5 21.5004 12.8C19.9004 14 18.2004 14.5 16.5004 14.5Z" fill="url(#paint5_linear_319_1064)" fill-opacity="0.2"/>
<defs>
<linearGradient id="paint0_linear_319_1064" x1="6.42815" y1="4.84242" x2="14.6982" y2="8.32383" gradientUnits="userSpaceOnUse">
<stop stop-color="#18A7B7"/>
<stop offset="1" stop-color="#1F88BF"/>
</linearGradient>
<linearGradient id="paint1_linear_319_1064" x1="4.26391" y1="4.55005" x2="12.1487" y2="10.6385" gradientUnits="userSpaceOnUse">
<stop stop-color="white" stop-opacity="0.08"/>
<stop offset="1" stop-color="white" stop-opacity="0.08"/>
</linearGradient>
<linearGradient id="paint2_linear_319_1064" x1="6.35522" y1="14.7482" x2="14.7022" y2="18.2087" gradientUnits="userSpaceOnUse">
<stop stop-color="#18A7B7"/>
<stop offset="1" stop-color="#1F88BF"/>
</linearGradient>
<linearGradient id="paint3_linear_319_1064" x1="4.18075" y1="14.45" x2="12.1929" y2="20.5429" gradientUnits="userSpaceOnUse">
<stop stop-color="white" stop-opacity="0.08"/>
<stop offset="1" stop-color="white" stop-opacity="0.08"/>
</linearGradient>
<linearGradient id="paint4_linear_319_1064" x1="6.35522" y1="9.74823" x2="14.7022" y2="13.2087" gradientUnits="userSpaceOnUse">
<stop stop-color="#18A7B7"/>
<stop offset="1" stop-color="#1F88BF"/>
</linearGradient>
<linearGradient id="paint5_linear_319_1064" x1="4.18075" y1="9.44995" x2="12.1929" y2="15.5429" gradientUnits="userSpaceOnUse">
<stop stop-color="white" stop-opacity="0.08"/>
<stop offset="1" stop-color="white" stop-opacity="0.08"/>
</linearGradient>
</defs>
</svg>
