<svg width="48" height="48" viewBox="0 0 48 48" fill="none" xmlns="http://www.w3.org/2000/svg">
<circle cx="24" cy="24" r="24" fill="url(#paint0_linear_317_832)"/>
<circle cx="24" cy="24" r="23.5" stroke="white" stroke-opacity="0.5"/>
<g clip-path="url(#clip0_317_832)">
<path d="M28.421 15.4026C24.8306 11.8122 18.9884 11.8125 15.398 15.4029C11.8117 18.9968 11.8121 24.8383 15.3987 28.4249C18.2995 31.3263 22.7249 31.9135 26.2587 30.0169C27.4709 31.8877 28.9111 33.7401 29.4619 34.2908C30.7936 35.6226 32.9606 35.6227 34.2924 34.2908C35.6242 32.959 35.6242 30.7921 34.2924 29.4603C33.7409 28.9088 31.8845 27.4655 30.0108 26.252C31.8544 22.7801 31.3929 18.3662 28.421 15.4026ZM16.3968 27.4267C13.3603 24.3898 13.3603 19.4435 16.3968 16.4008C19.4361 13.3616 24.3828 13.3607 27.4235 16.4015C30.5477 19.5176 30.3506 24.4845 27.4159 27.4198C24.4419 30.3938 19.4873 30.5169 16.3968 27.4267ZM33.2942 30.4584C34.0756 31.2398 34.0756 32.5113 33.2942 33.2927C32.5125 34.0733 31.2417 34.0733 30.46 33.2927C30.0352 32.8675 28.6617 31.1315 27.4434 29.2493C27.7798 28.9951 28.1077 28.7245 28.4141 28.418C28.7181 28.114 28.9902 27.7822 29.2467 27.439C31.1307 28.6582 32.8691 30.0333 33.2942 30.4584Z" fill="white"/>
<path d="M32.4086 32.4057C32.6855 32.143 32.6774 31.6645 32.4086 31.4103C32.1473 31.149 31.6745 31.149 31.406 31.4103C31.1425 31.6737 31.126 32.125 31.406 32.4057C31.6854 32.6844 32.1223 32.6913 32.4086 32.4057Z" fill="white"/>
<path d="M26.2614 26.2652C28.5733 23.954 28.7431 20.0233 26.2683 17.5551C23.8592 15.1454 19.9578 15.1478 17.5526 17.5537C15.151 19.9606 15.1503 23.8715 17.5516 26.2718C19.9587 28.6804 23.8674 28.6592 26.2614 26.2652ZM18.5497 25.2736C16.6985 23.4228 16.6995 20.4072 18.5515 18.5515C20.4037 16.6986 23.4107 16.6939 25.2708 18.554C27.1569 20.4349 27.061 23.47 25.2632 25.2671C23.4214 27.1081 20.4068 27.1314 18.5497 25.2736Z" fill="white"/>
<path d="M21.9051 18.7427C21.5153 18.7427 21.1992 19.0587 21.1992 19.4486V22.158C21.1992 22.5478 21.5153 22.8639 21.9051 22.8639C22.2949 22.8639 22.611 22.5478 22.611 22.158V19.4486C22.611 19.0587 22.2949 18.7427 21.9051 18.7427Z" fill="white"/>
<path d="M21.4039 23.8712C21.1391 24.1367 21.1243 24.5863 21.4039 24.8666C21.6761 25.1388 22.1329 25.1399 22.4062 24.8666C22.685 24.5878 22.6716 24.1367 22.4062 23.8712C22.138 23.61 21.6724 23.61 21.4039 23.8712Z" fill="white"/>
</g>
<defs>
<linearGradient id="paint0_linear_317_832" x1="20.5" y1="51.5" x2="0.298077" y2="23.5436" gradientUnits="userSpaceOnUse">
<stop stop-color="#20B4C5"/>
<stop offset="1" stop-color="#0B89CB"/>
</linearGradient>
<clipPath id="clip0_317_832">
<rect width="24" height="24" fill="white" transform="translate(12 12)"/>
</clipPath>
</defs>
</svg>
