<svg width="48" height="48" viewBox="0 0 48 48" fill="none" xmlns="http://www.w3.org/2000/svg">
<circle cx="24" cy="24" r="24" fill="url(#paint0_linear_317_825)"/>
<circle cx="24" cy="24" r="23.5" stroke="white" stroke-opacity="0.5"/>
<path d="M30.3706 20.0941C30.2069 18.6659 29.5701 17.3384 28.5333 16.2943C27.3153 15.0851 25.7054 14.4189 24 14.4189C20.7136 14.4189 17.9963 16.9044 17.6298 20.0941C14.907 20.2845 12.75 22.5609 12.75 25.3313C12.75 27.9058 14.6627 30.1334 17.1991 30.5128C17.6078 30.5747 17.9901 30.292 18.0516 29.8822C18.1132 29.4728 17.8308 29.0908 17.421 29.0297C15.6134 28.759 14.25 27.1689 14.25 25.3313C14.25 23.2637 15.9324 21.5813 18 21.5813H18.3377C18.7518 21.5813 19.0877 21.2455 19.0877 20.8313C19.0877 18.1228 21.2915 15.9189 24 15.9189C25.3066 15.9189 26.5415 16.4302 27.4728 17.3549C28.4011 18.2898 28.9123 19.5247 28.9123 20.8313C28.9123 21.2455 29.2482 21.5813 29.6623 21.5813H30C32.0676 21.5813 33.75 23.2637 33.75 25.3313C33.75 27.1689 32.3866 28.759 30.579 29.0297C30.1692 29.0908 29.8868 29.4728 29.9484 29.8822C30.004 30.2543 30.3237 30.5212 30.6888 30.5212C30.7258 30.5212 30.7632 30.5187 30.8009 30.5128C33.3373 30.1334 35.25 27.9058 35.25 25.3313C35.25 22.5609 33.093 20.2849 30.3706 20.0941Z" fill="white"/>
<path d="M23.9999 22.3584C22.2424 22.3584 20.8124 23.7885 20.8124 25.5459V26.2959H19.8291C19.4149 26.2959 19.0791 26.6317 19.0791 27.0459V32.8313C19.0791 33.2455 19.4149 33.5813 19.8291 33.5813H28.1707C28.5848 33.5813 28.9207 33.2455 28.9207 32.8313V27.0459C28.9207 26.6317 28.5848 26.2959 28.1707 26.2959H27.1874V25.5459C27.1874 23.7884 25.7573 22.3584 23.9999 22.3584ZM22.3124 25.5459C22.3124 24.6154 23.0693 23.8584 23.9999 23.8584C24.9304 23.8584 25.6874 24.6154 25.6874 25.5459V26.2959H22.3124V25.5459ZM27.4207 32.0813H20.5791V27.7959H21.5624H26.4374H27.4207V32.0813Z" fill="white"/>
<defs>
<linearGradient id="paint0_linear_317_825" x1="20.5" y1="51.5" x2="0.298077" y2="23.5436" gradientUnits="userSpaceOnUse">
<stop stop-color="#20B4C5"/>
<stop offset="1" stop-color="#0B89CB"/>
</linearGradient>
</defs>
</svg>
