<svg width="24" height="24" viewBox="0 0 24 24" fill="none" xmlns="http://www.w3.org/2000/svg">
<path d="M19.3818 17.1033C21.1237 17.1033 22.5418 18.5081 22.542 20.2361V20.239C22.3694 24.3902 16.3948 24.3915 16.2217 20.239V20.2361C16.2218 18.5082 17.6401 17.1034 19.3818 17.1033ZM20.9805 20.239C20.8928 18.1523 17.8711 18.1519 17.7832 20.239C17.7847 21.1029 18.5004 21.8072 19.3818 21.8074C20.2635 21.8074 20.979 21.103 20.9805 20.239Z" fill="url(#paint0_linear_319_1054)"/>
<path d="M19.3818 17.1033C21.1237 17.1033 22.5418 18.5081 22.542 20.2361V20.239C22.3694 24.3902 16.3948 24.3915 16.2217 20.239V20.2361C16.2218 18.5082 17.6401 17.1034 19.3818 17.1033ZM20.9805 20.239C20.8928 18.1523 17.8711 18.1519 17.7832 20.239C17.7847 21.1029 18.5004 21.8072 19.3818 21.8074C20.2635 21.8074 20.979 21.103 20.9805 20.239Z" fill="url(#paint1_linear_319_1054)" fill-opacity="0.2"/>
<path d="M19.3818 17.1033C21.1237 17.1033 22.5418 18.5081 22.542 20.2361V20.239C22.3694 24.3902 16.3948 24.3915 16.2217 20.239V20.2361C16.2218 18.5082 17.6401 17.1034 19.3818 17.1033ZM20.9805 20.239C20.8928 18.1523 17.8711 18.1519 17.7832 20.239C17.7847 21.1029 18.5004 21.8072 19.3818 21.8074C20.2635 21.8074 20.979 21.103 20.9805 20.239Z" stroke="url(#paint2_linear_319_1054)" stroke-width="0.15"/>
<path d="M19.3818 17.1033C21.1237 17.1033 22.5418 18.5081 22.542 20.2361V20.239C22.3694 24.3902 16.3948 24.3915 16.2217 20.239V20.2361C16.2218 18.5082 17.6401 17.1034 19.3818 17.1033ZM20.9805 20.239C20.8928 18.1523 17.8711 18.1519 17.7832 20.239C17.7847 21.1029 18.5004 21.8072 19.3818 21.8074C20.2635 21.8074 20.979 21.103 20.9805 20.239Z" stroke="url(#paint3_linear_319_1054)" stroke-opacity="0.2" stroke-width="0.15"/>
<path d="M8.60059 11.2192C9.63202 11.2546 9.6296 12.7463 8.60059 12.7808H6.4043L6.19727 12.7944C1.91507 13.1605 1.98472 19.2747 6.4043 19.4556H14.8398C15.876 19.4893 15.8625 20.9863 14.8398 21.0181H6.40137C3.67601 21.0181 1.45707 18.8207 1.45703 16.1187C1.45703 13.4165 3.67584 11.2192 6.40137 11.2192H8.60059Z" fill="url(#paint4_linear_319_1054)"/>
<path d="M8.60059 11.2192C9.63202 11.2546 9.6296 12.7463 8.60059 12.7808H6.4043L6.19727 12.7944C1.91507 13.1605 1.98472 19.2747 6.4043 19.4556H14.8398C15.876 19.4893 15.8625 20.9863 14.8398 21.0181H6.40137C3.67601 21.0181 1.45707 18.8207 1.45703 16.1187C1.45703 13.4165 3.67584 11.2192 6.40137 11.2192H8.60059Z" fill="url(#paint5_linear_319_1054)" fill-opacity="0.2"/>
<path d="M8.60059 11.2192C9.63202 11.2546 9.6296 12.7463 8.60059 12.7808H6.4043L6.19727 12.7944C1.91507 13.1605 1.98472 19.2747 6.4043 19.4556H14.8398C15.876 19.4893 15.8625 20.9863 14.8398 21.0181H6.40137C3.67601 21.0181 1.45707 18.8207 1.45703 16.1187C1.45703 13.4165 3.67584 11.2192 6.40137 11.2192H8.60059Z" stroke="url(#paint6_linear_319_1054)" stroke-width="0.15"/>
<path d="M8.60059 11.2192C9.63202 11.2546 9.6296 12.7463 8.60059 12.7808H6.4043L6.19727 12.7944C1.91507 13.1605 1.98472 19.2747 6.4043 19.4556H14.8398C15.876 19.4893 15.8625 20.9863 14.8398 21.0181H6.40137C3.67601 21.0181 1.45707 18.8207 1.45703 16.1187C1.45703 13.4165 3.67584 11.2192 6.40137 11.2192H8.60059Z" stroke="url(#paint7_linear_319_1054)" stroke-opacity="0.2" stroke-width="0.15"/>
<path d="M17.6074 2.98291C24.1546 3.25209 24.1539 12.5127 17.6074 12.7817H12.9795L14.3115 14.1401C14.6132 14.4479 14.6083 14.9416 14.3008 15.2437C13.993 15.5453 13.4987 15.5419 13.1963 15.2339L10.6035 12.5903C10.306 12.2866 10.3058 11.8002 10.6035 11.4966L13.1963 8.854C13.4985 8.54648 13.9928 8.54158 14.3008 8.84326V8.84424C14.6081 9.14618 14.6131 9.63985 14.3115 9.94775L13.0645 11.2192H17.6016C22.0134 11.0382 22.0827 4.92432 17.8076 4.55811L17.6016 4.54443H9.49512C8.45985 4.51138 8.47102 3.0143 9.49512 2.98291H17.6074Z" fill="url(#paint8_linear_319_1054)"/>
<path d="M17.6074 2.98291C24.1546 3.25209 24.1539 12.5127 17.6074 12.7817H12.9795L14.3115 14.1401C14.6132 14.4479 14.6083 14.9416 14.3008 15.2437C13.993 15.5453 13.4987 15.5419 13.1963 15.2339L10.6035 12.5903C10.306 12.2866 10.3058 11.8002 10.6035 11.4966L13.1963 8.854C13.4985 8.54648 13.9928 8.54158 14.3008 8.84326V8.84424C14.6081 9.14618 14.6131 9.63985 14.3115 9.94775L13.0645 11.2192H17.6016C22.0134 11.0382 22.0827 4.92432 17.8076 4.55811L17.6016 4.54443H9.49512C8.45985 4.51138 8.47102 3.0143 9.49512 2.98291H17.6074Z" fill="url(#paint9_linear_319_1054)" fill-opacity="0.2"/>
<path d="M17.6074 2.98291C24.1546 3.25209 24.1539 12.5127 17.6074 12.7817H12.9795L14.3115 14.1401C14.6132 14.4479 14.6083 14.9416 14.3008 15.2437C13.993 15.5453 13.4987 15.5419 13.1963 15.2339L10.6035 12.5903C10.306 12.2866 10.3058 11.8002 10.6035 11.4966L13.1963 8.854C13.4985 8.54648 13.9928 8.54158 14.3008 8.84326V8.84424C14.6081 9.14618 14.6131 9.63985 14.3115 9.94775L13.0645 11.2192H17.6016C22.0134 11.0382 22.0827 4.92432 17.8076 4.55811L17.6016 4.54443H9.49512C8.45985 4.51138 8.47102 3.0143 9.49512 2.98291H17.6074Z" stroke="url(#paint10_linear_319_1054)" stroke-width="0.15"/>
<path d="M17.6074 2.98291C24.1546 3.25209 24.1539 12.5127 17.6074 12.7817H12.9795L14.3115 14.1401C14.6132 14.4479 14.6083 14.9416 14.3008 15.2437C13.993 15.5453 13.4987 15.5419 13.1963 15.2339L10.6035 12.5903C10.306 12.2866 10.3058 11.8002 10.6035 11.4966L13.1963 8.854C13.4985 8.54648 13.9928 8.54158 14.3008 8.84326V8.84424C14.6081 9.14618 14.6131 9.63985 14.3115 9.94775L13.0645 11.2192H17.6016C22.0134 11.0382 22.0827 4.92432 17.8076 4.55811L17.6016 4.54443H9.49512C8.45985 4.51138 8.47102 3.0143 9.49512 2.98291H17.6074Z" stroke="url(#paint11_linear_319_1054)" stroke-opacity="0.2" stroke-width="0.15"/>
<path d="M4.61719 2.19238C3.73466 2.19247 3.01856 2.89854 3.01855 3.76367C3.10857 5.84684 6.12551 5.84728 6.21582 3.76367C6.21582 2.8985 5.49967 2.19238 4.61719 2.19238ZM7.77734 3.76367C7.77734 5.49179 6.35915 6.89648 4.61719 6.89648C2.87529 6.89639 1.45703 5.49173 1.45703 3.76367V3.76074C1.62958 -0.390461 7.60422 -0.391736 7.77734 3.76074V3.76367Z" fill="url(#paint12_linear_319_1054)"/>
<path d="M4.61719 2.19238C3.73466 2.19247 3.01856 2.89854 3.01855 3.76367C3.10857 5.84684 6.12551 5.84728 6.21582 3.76367C6.21582 2.8985 5.49967 2.19238 4.61719 2.19238ZM7.77734 3.76367C7.77734 5.49179 6.35915 6.89648 4.61719 6.89648C2.87529 6.89639 1.45703 5.49173 1.45703 3.76367V3.76074C1.62958 -0.390461 7.60422 -0.391736 7.77734 3.76074V3.76367Z" fill="url(#paint13_linear_319_1054)" fill-opacity="0.2"/>
<path d="M4.61719 2.19238C3.73466 2.19247 3.01856 2.89854 3.01855 3.76367C3.10857 5.84684 6.12551 5.84728 6.21582 3.76367C6.21582 2.8985 5.49967 2.19238 4.61719 2.19238ZM7.77734 3.76367C7.77734 5.49179 6.35915 6.89648 4.61719 6.89648C2.87529 6.89639 1.45703 5.49173 1.45703 3.76367V3.76074C1.62958 -0.390461 7.60422 -0.391736 7.77734 3.76074V3.76367Z" stroke="url(#paint14_linear_319_1054)" stroke-width="0.15"/>
<path d="M4.61719 2.19238C3.73466 2.19247 3.01856 2.89854 3.01855 3.76367C3.10857 5.84684 6.12551 5.84728 6.21582 3.76367C6.21582 2.8985 5.49967 2.19238 4.61719 2.19238ZM7.77734 3.76367C7.77734 5.49179 6.35915 6.89648 4.61719 6.89648C2.87529 6.89639 1.45703 5.49173 1.45703 3.76367V3.76074C1.62958 -0.390461 7.60422 -0.391736 7.77734 3.76074V3.76367Z" stroke="url(#paint15_linear_319_1054)" stroke-opacity="0.2" stroke-width="0.15"/>
<defs>
<linearGradient id="paint0_linear_319_1054" x1="17.6591" y1="17.5388" x2="20.638" y2="17.8536" gradientUnits="userSpaceOnUse">
<stop stop-color="#18A7B7"/>
<stop offset="1" stop-color="#1F88BF"/>
</linearGradient>
<linearGradient id="paint1_linear_319_1054" x1="16.9895" y1="17.1785" x2="20.7425" y2="17.9061" gradientUnits="userSpaceOnUse">
<stop stop-color="white" stop-opacity="0.08"/>
<stop offset="1" stop-color="white" stop-opacity="0.08"/>
</linearGradient>
<linearGradient id="paint2_linear_319_1054" x1="17.6591" y1="17.5388" x2="20.638" y2="17.8536" gradientUnits="userSpaceOnUse">
<stop stop-color="#18A7B7"/>
<stop offset="1" stop-color="#1F88BF"/>
</linearGradient>
<linearGradient id="paint3_linear_319_1054" x1="16.9895" y1="17.1785" x2="20.7425" y2="17.9061" gradientUnits="userSpaceOnUse">
<stop stop-color="white" stop-opacity="0.08"/>
<stop offset="1" stop-color="white" stop-opacity="0.08"/>
</linearGradient>
<linearGradient id="paint4_linear_319_1054" x1="4.62397" y1="11.8643" x2="11.3069" y2="12.8779" gradientUnits="userSpaceOnUse">
<stop stop-color="#18A7B7"/>
<stop offset="1" stop-color="#1F88BF"/>
</linearGradient>
<linearGradient id="paint5_linear_319_1054" x1="3.10418" y1="11.2944" x2="11.3076" y2="13.5766" gradientUnits="userSpaceOnUse">
<stop stop-color="white" stop-opacity="0.08"/>
<stop offset="1" stop-color="white" stop-opacity="0.08"/>
</linearGradient>
<linearGradient id="paint6_linear_319_1054" x1="4.62397" y1="11.8643" x2="11.3069" y2="12.8779" gradientUnits="userSpaceOnUse">
<stop stop-color="#18A7B7"/>
<stop offset="1" stop-color="#1F88BF"/>
</linearGradient>
<linearGradient id="paint7_linear_319_1054" x1="3.10418" y1="11.2944" x2="11.3076" y2="13.5766" gradientUnits="userSpaceOnUse">
<stop stop-color="white" stop-opacity="0.08"/>
<stop offset="1" stop-color="white" stop-opacity="0.08"/>
</linearGradient>
<linearGradient id="paint8_linear_319_1054" x1="11.8101" y1="3.78664" x2="18.3832" y2="4.54639" gradientUnits="userSpaceOnUse">
<stop stop-color="#18A7B7"/>
<stop offset="1" stop-color="#1F88BF"/>
</linearGradient>
<linearGradient id="paint9_linear_319_1054" x1="10.3294" y1="3.05811" x2="18.5701" y2="4.80529" gradientUnits="userSpaceOnUse">
<stop stop-color="white" stop-opacity="0.08"/>
<stop offset="1" stop-color="white" stop-opacity="0.08"/>
</linearGradient>
<linearGradient id="paint10_linear_319_1054" x1="11.8101" y1="3.78664" x2="18.3832" y2="4.54639" gradientUnits="userSpaceOnUse">
<stop stop-color="#18A7B7"/>
<stop offset="1" stop-color="#1F88BF"/>
</linearGradient>
<linearGradient id="paint11_linear_319_1054" x1="10.3294" y1="3.05811" x2="18.5701" y2="4.80529" gradientUnits="userSpaceOnUse">
<stop stop-color="white" stop-opacity="0.08"/>
<stop offset="1" stop-color="white" stop-opacity="0.08"/>
</linearGradient>
<linearGradient id="paint12_linear_319_1054" x1="2.89443" y1="1.08197" x2="5.87334" y2="1.39682" gradientUnits="userSpaceOnUse">
<stop stop-color="#18A7B7"/>
<stop offset="1" stop-color="#1F88BF"/>
</linearGradient>
<linearGradient id="paint13_linear_319_1054" x1="2.22482" y1="0.72168" x2="5.9779" y2="1.44931" gradientUnits="userSpaceOnUse">
<stop stop-color="white" stop-opacity="0.08"/>
<stop offset="1" stop-color="white" stop-opacity="0.08"/>
</linearGradient>
<linearGradient id="paint14_linear_319_1054" x1="2.89443" y1="1.08197" x2="5.87334" y2="1.39682" gradientUnits="userSpaceOnUse">
<stop stop-color="#18A7B7"/>
<stop offset="1" stop-color="#1F88BF"/>
</linearGradient>
<linearGradient id="paint15_linear_319_1054" x1="2.22482" y1="0.72168" x2="5.9779" y2="1.44931" gradientUnits="userSpaceOnUse">
<stop stop-color="white" stop-opacity="0.08"/>
<stop offset="1" stop-color="white" stop-opacity="0.08"/>
</linearGradient>
</defs>
</svg>
