<svg width="48" height="48" viewBox="0 0 48 48" fill="none" xmlns="http://www.w3.org/2000/svg">
<circle cx="24" cy="24" r="24" fill="url(#paint0_linear_317_813)"/>
<circle cx="24" cy="24" r="23.5" stroke="white" stroke-opacity="0.5"/>
<path d="M32.9363 12H15.064C14.6056 12 14.2339 12.3716 14.2339 12.8301V26.2346C14.2343 31.6453 23.2764 35.7554 23.6614 35.9276C23.7693 35.9759 23.8848 36 24.0005 36C24.1162 36 24.2318 35.9759 24.3395 35.9276C24.7246 35.7553 33.7663 31.6453 33.7663 26.2345V12.8301C33.7664 12.3716 33.3949 12 32.9363 12ZM32.1062 26.2345C32.1062 29.6731 26.547 33.0411 24.0006 34.2552C21.4541 33.0411 15.8946 29.6733 15.8943 26.2345V13.6603H32.1063L32.1062 26.2345Z" fill="white"/>
<path d="M20.875 30.3151C21.8859 31.0533 22.9197 31.648 23.6088 32.0168C23.731 32.0823 23.8657 32.1151 24.0005 32.1151C24.1353 32.1151 24.2702 32.0823 24.3925 32.0167C25.0817 31.6475 26.1152 31.0527 27.1263 30.3151C28.3529 29.4192 30.4107 27.6667 30.4107 25.9951V16.0958C30.4107 15.6373 30.0392 15.2656 29.5806 15.2656H18.4205C17.9619 15.2656 17.5903 15.6373 17.5903 16.0958V25.9951C17.5903 27.6673 19.6483 29.4195 20.875 30.3151ZM19.2506 16.9259H28.7505V25.9951C28.7505 26.3679 28.2063 27.4704 26.1473 28.9742C25.3882 29.528 24.6101 29.9973 24.0004 30.3386C23.3907 29.9977 22.613 29.5286 21.854 28.9743C19.7947 27.4708 19.2506 26.3681 19.2506 25.9951V16.9259Z" fill="white"/>
<defs>
<linearGradient id="paint0_linear_317_813" x1="20.5" y1="51.5" x2="0.298077" y2="23.5436" gradientUnits="userSpaceOnUse">
<stop stop-color="#20B4C5"/>
<stop offset="1" stop-color="#0B89CB"/>
</linearGradient>
</defs>
</svg>
