<svg width="24" height="24" viewBox="0 0 24 24" fill="none" xmlns="http://www.w3.org/2000/svg">
<path fill-rule="evenodd" clip-rule="evenodd" d="M19.4972 1.26284C19.415 1.01625 19.211 0.8298 18.958 0.770077C18.705 0.710359 18.4392 0.785884 18.2554 0.969686L14.0768 5.14825C13.8759 5.34913 13.8058 5.64625 13.8956 5.91576L14.6776 8.26172L12.2197 10.7197C11.9268 11.0126 11.9268 11.4874 12.2197 11.7803C12.5126 12.0732 12.9875 12.0732 13.2803 11.7803L15.7383 9.32241L18.0843 10.1044C18.3538 10.1942 18.6509 10.1241 18.8518 9.9232L23.0303 5.74465C23.2142 5.56082 23.2897 5.29495 23.2299 5.04197C23.1702 4.789 22.9838 4.585 22.7372 4.5028L20.3072 3.6928L19.4972 1.26284ZM18.1189 8.5348L16.1286 7.87138L15.4652 5.88115L18.458 2.88844L19.0028 4.5229C19.0774 4.74685 19.2532 4.92257 19.4771 4.99724L21.1116 5.54207L18.1189 8.5348Z" fill="url(#paint0_linear_319_1044)"/>
<path fill-rule="evenodd" clip-rule="evenodd" d="M19.4972 1.26284C19.415 1.01625 19.211 0.8298 18.958 0.770077C18.705 0.710359 18.4392 0.785884 18.2554 0.969686L14.0768 5.14825C13.8759 5.34913 13.8058 5.64625 13.8956 5.91576L14.6776 8.26172L12.2197 10.7197C11.9268 11.0126 11.9268 11.4874 12.2197 11.7803C12.5126 12.0732 12.9875 12.0732 13.2803 11.7803L15.7383 9.32241L18.0843 10.1044C18.3538 10.1942 18.6509 10.1241 18.8518 9.9232L23.0303 5.74465C23.2142 5.56082 23.2897 5.29495 23.2299 5.04197C23.1702 4.789 22.9838 4.585 22.7372 4.5028L20.3072 3.6928L19.4972 1.26284ZM18.1189 8.5348L16.1286 7.87138L15.4652 5.88115L18.458 2.88844L19.0028 4.5229C19.0774 4.74685 19.2532 4.92257 19.4771 4.99724L21.1116 5.54207L18.1189 8.5348Z" fill="url(#paint1_linear_319_1044)" fill-opacity="0.2"/>
<path d="M12 2.25C6.61522 2.25 2.25 6.61523 2.25 12C2.25 17.3848 6.61522 21.75 12 21.75C17.3848 21.75 21.75 17.3848 21.75 12C21.75 11.5858 22.0858 11.25 22.5 11.25C22.9142 11.25 23.25 11.5858 23.25 12C23.25 18.2132 18.2132 23.25 12 23.25C5.78681 23.25 0.75 18.2132 0.75 12C0.75 5.78678 5.78681 0.75 12 0.75C12.4142 0.75 12.75 1.08579 12.75 1.5C12.75 1.91421 12.4142 2.25 12 2.25Z" fill="url(#paint2_linear_319_1044)"/>
<path d="M12 2.25C6.61522 2.25 2.25 6.61523 2.25 12C2.25 17.3848 6.61522 21.75 12 21.75C17.3848 21.75 21.75 17.3848 21.75 12C21.75 11.5858 22.0858 11.25 22.5 11.25C22.9142 11.25 23.25 11.5858 23.25 12C23.25 18.2132 18.2132 23.25 12 23.25C5.78681 23.25 0.75 18.2132 0.75 12C0.75 5.78678 5.78681 0.75 12 0.75C12.4142 0.75 12.75 1.08579 12.75 1.5C12.75 1.91421 12.4142 2.25 12 2.25Z" fill="url(#paint3_linear_319_1044)" fill-opacity="0.2"/>
<path d="M12 6.375C8.89339 6.375 6.375 8.89339 6.375 12C6.375 15.1066 8.89339 17.625 12 17.625C15.1066 17.625 17.625 15.1066 17.625 12C17.625 11.5858 17.9608 11.25 18.375 11.25C18.7892 11.25 19.125 11.5858 19.125 12C19.125 15.935 15.935 19.125 12 19.125C8.06498 19.125 4.875 15.935 4.875 12C4.875 8.06498 8.06498 4.875 12 4.875C12.4142 4.875 12.75 5.21078 12.75 5.625C12.75 6.03919 12.4142 6.375 12 6.375Z" fill="url(#paint4_linear_319_1044)"/>
<path d="M12 6.375C8.89339 6.375 6.375 8.89339 6.375 12C6.375 15.1066 8.89339 17.625 12 17.625C15.1066 17.625 17.625 15.1066 17.625 12C17.625 11.5858 17.9608 11.25 18.375 11.25C18.7892 11.25 19.125 11.5858 19.125 12C19.125 15.935 15.935 19.125 12 19.125C8.06498 19.125 4.875 15.935 4.875 12C4.875 8.06498 8.06498 4.875 12 4.875C12.4142 4.875 12.75 5.21078 12.75 5.625C12.75 6.03919 12.4142 6.375 12 6.375Z" fill="url(#paint5_linear_319_1044)" fill-opacity="0.2"/>
<defs>
<linearGradient id="paint0_linear_319_1044" x1="14.4836" y1="1.41449" x2="19.9162" y2="1.98212" gradientUnits="userSpaceOnUse">
<stop stop-color="#18A7B7"/>
<stop offset="1" stop-color="#1F88BF"/>
</linearGradient>
<linearGradient id="paint1_linear_319_1044" x1="13.2628" y1="0.75" x2="20.1111" y2="2.06255" gradientUnits="userSpaceOnUse">
<stop stop-color="white" stop-opacity="0.08"/>
<stop offset="1" stop-color="white" stop-opacity="0.08"/>
</linearGradient>
<linearGradient id="paint2_linear_319_1044" x1="5.71721" y1="2.07897" x2="16.5823" y2="3.21423" gradientUnits="userSpaceOnUse">
<stop stop-color="#18A7B7"/>
<stop offset="1" stop-color="#1F88BF"/>
</linearGradient>
<linearGradient id="paint3_linear_319_1044" x1="3.27551" y1="0.75" x2="16.9721" y2="3.37509" gradientUnits="userSpaceOnUse">
<stop stop-color="white" stop-opacity="0.08"/>
<stop offset="1" stop-color="white" stop-opacity="0.08"/>
</linearGradient>
<linearGradient id="paint4_linear_319_1044" x1="8.0209" y1="5.71668" x2="14.9021" y2="6.43568" gradientUnits="userSpaceOnUse">
<stop stop-color="#18A7B7"/>
<stop offset="1" stop-color="#1F88BF"/>
</linearGradient>
<linearGradient id="paint5_linear_319_1044" x1="6.47449" y1="4.875" x2="15.149" y2="6.53755" gradientUnits="userSpaceOnUse">
<stop stop-color="white" stop-opacity="0.08"/>
<stop offset="1" stop-color="white" stop-opacity="0.08"/>
</linearGradient>
</defs>
</svg>
