<svg width="48" height="48" viewBox="0 0 48 48" fill="none" xmlns="http://www.w3.org/2000/svg">
<circle cx="24" cy="24" r="24" fill="url(#paint0_linear_317_760)"/>
<circle cx="24" cy="24" r="23.5" stroke="white" stroke-opacity="0.5"/>
<g clip-path="url(#clip0_317_760)">
<path d="M25.8468 15.9522C25.4701 15.2694 24.7797 14.8618 23.9998 14.8618C23.22 14.8618 22.5296 15.2694 22.1529 15.9522L17.0349 25.2286C16.6706 25.8889 16.682 26.6707 17.0653 27.32C17.4487 27.9694 18.1277 28.357 18.8818 28.357H29.1179C29.8719 28.357 30.551 27.9694 30.9343 27.32C31.3177 26.6707 31.3291 25.8889 30.9648 25.2286L25.8468 15.9522ZM29.7234 26.6051C29.662 26.7091 29.4802 26.9508 29.1179 26.9508H18.8818C18.5195 26.9508 18.3377 26.7091 18.2763 26.6051C18.2149 26.5012 18.0911 26.2253 18.2661 25.908L23.3842 16.6315C23.5652 16.3035 23.875 16.2681 23.9998 16.2681C24.1247 16.2681 24.4345 16.3035 24.6155 16.6315L29.7335 25.908C29.9086 26.2252 29.7847 26.5012 29.7234 26.6051Z" fill="white"/>
<path d="M24 18.7476C23.6117 18.7476 23.2969 19.0624 23.2969 19.4507V22.4976C23.2969 22.8859 23.6117 23.2007 24 23.2007C24.3883 23.2007 24.7031 22.8859 24.7031 22.4976V19.4507C24.7031 19.0624 24.3883 18.7476 24 18.7476Z" fill="white"/>
<path d="M33.4219 12H14.5781C13.1565 12 12 13.1565 12 14.5781V28.6406C12 30.0622 13.1565 31.2188 14.5781 31.2188H20.4809C20.4473 31.6588 20.1697 32.0405 19.7545 32.2065C18.7741 32.5987 18.1406 33.5344 18.1406 34.5903V35.2969C18.1406 35.6852 18.4554 36 18.8438 36H29.1562C29.5446 36 29.8594 35.6852 29.8594 35.2969V34.5903C29.8594 33.5344 29.2259 32.5987 28.2455 32.2065C27.8303 32.0405 27.5527 31.6588 27.5191 31.2188H33.4219C34.8435 31.2188 36 30.0622 36 28.6406V14.5781C36 13.1565 34.8435 12 33.4219 12ZM27.7233 33.5122C28.1666 33.6895 28.4531 34.1127 28.4531 34.5903V34.5938H19.5469V34.5903C19.5469 34.1127 19.8334 33.6896 20.2767 33.5122C21.2291 33.1313 21.8539 32.2374 21.8889 31.2188H26.1111C26.146 32.2374 26.7709 33.1313 27.7233 33.5122ZM34.5938 28.6406C34.5938 29.2868 34.068 29.8125 33.4219 29.8125H14.5781C13.932 29.8125 13.4062 29.2868 13.4062 28.6406V14.5781C13.4062 13.932 13.932 13.4062 14.5781 13.4062H33.4219C34.068 13.4062 34.5938 13.932 34.5938 14.5781V28.6406Z" fill="white"/>
<path d="M24 24.1382C23.6117 24.1382 23.2969 24.453 23.2969 24.8413C23.2969 25.2296 23.6117 25.5444 24 25.5444C24.3883 25.5444 24.7031 25.2296 24.7031 24.8413C24.7031 24.453 24.3883 24.1382 24 24.1382Z" fill="white"/>
</g>
<defs>
<linearGradient id="paint0_linear_317_760" x1="20.5" y1="51.5" x2="0.298077" y2="23.5436" gradientUnits="userSpaceOnUse">
<stop stop-color="#20B4C5"/>
<stop offset="1" stop-color="#0B89CB"/>
</linearGradient>
<clipPath id="clip0_317_760">
<rect width="24" height="24" fill="white" transform="translate(12 12)"/>
</clipPath>
</defs>
</svg>
